<?xml version="1.0" encoding="UTF-8" standalone="no"?>
<!-- Created with Inkscape (http://www.inkscape.org/) -->

<svg
   width="860"
   height="110"
   viewBox="0 0 227.54165 29.104167"
   version="1.1"
   id="svg8"
   inkscape:version="1.4 (e7c3feb1, 2024-10-09)"
   sodipodi:docname="DIVIDER-18.svg"
   xmlns:inkscape="http://www.inkscape.org/namespaces/inkscape"
   xmlns:sodipodi="http://sodipodi.sourceforge.net/DTD/sodipodi-0.dtd"
   xmlns="http://www.w3.org/2000/svg"
   xmlns:svg="http://www.w3.org/2000/svg"
   xmlns:rdf="http://www.w3.org/1999/02/22-rdf-syntax-ns#"
   xmlns:cc="http://creativecommons.org/ns#"
   xmlns:dc="http://purl.org/dc/elements/1.1/">
  <defs
     id="defs2" />
  <sodipodi:namedview
     id="base"
     pagecolor="#ffffff"
     bordercolor="#666666"
     borderopacity="1.0"
     inkscape:pageopacity="0.0"
     inkscape:pageshadow="2"
     inkscape:zoom="1.4959169"
     inkscape:cx="269.39999"
     inkscape:cy="132.69454"
     inkscape:document-units="px"
     inkscape:current-layer="layer1"
     showgrid="true"
     inkscape:snap-global="false"
     units="px"
     inkscape:window-width="1920"
     inkscape:window-height="1052"
     inkscape:window-x="0"
     inkscape:window-y="28"
     inkscape:window-maximized="0"
     showguides="true"
     inkscape:guide-bbox="true"
     inkscape:showpageshadow="2"
     inkscape:pagecheckerboard="0"
     inkscape:deskcolor="#d1d1d1">
    <inkscape:grid
       id="grid2"
       units="px"
       originx="0"
       originy="0"
       spacingx="0.26458332"
       spacingy="0.26458334"
       empcolor="#0099e5"
       empopacity="0.30196078"
       color="#0099e5"
       opacity="0.14901961"
       empspacing="5"
       enabled="true"
       visible="true" />
    <inkscape:page
       x="0"
       y="0"
       width="227.54166"
       height="29.104168"
       id="page2"
       margin="0"
       bleed="0" />
  </sodipodi:namedview>
  <metadata
     id="metadata5">
    <rdf:RDF>
      <cc:Work
         rdf:about="">
        <dc:format>image/svg+xml</dc:format>
        <dc:type
           rdf:resource="http://purl.org/dc/dcmitype/StillImage" />
      </cc:Work>
    </rdf:RDF>
  </metadata>
  <g
     inkscape:label="Layer 1"
     inkscape:groupmode="layer"
     id="layer1"
     transform="translate(0,232.16668)">
    <path
       style="fill:#ff0000;fill-opacity:1;fill-rule:nonzero;stroke:none;stroke-width:0.352778"
       d="m 9.5938899,-229.85013 c -0.2146,-0.007 -0.4355,0.003 -0.6579,0.0333 -0.89,0.12277 -1.7694,0.62004 -2.4263,1.41446 -1.0659,1.28928 -0.8156,2.92734 -0.3186,4.48762 0.4968,1.56028 1.4023,3.1342 2.7145,4.22594 1.0287,0.85549 2.1660001,1.43737 3.3002001,1.70935 -1.1344,0.27061 -2.2715001,0.83315 -3.3002001,1.6888 -1.3122,1.09175 -2.2177,2.66566 -2.7145,4.22595 -0.497,1.56028 -0.7473,3.19826 0.3186,4.48751 0.6569,0.79445 1.5363,1.29815 2.4263,1.42082 0.8897,0.12276 1.7302001,-0.0865 2.4879001,-0.4186 1.5155,-0.66446 2.8136,-1.83763 3.847,-2.83528 2.2193,-2.14296 2.8902,-5.17228 1.4921,-7.19753 h 6.2778 c -0.1447,0.10671 -0.2937,0.19998 -0.4345,0.31713 -1.3124,1.09175 -2.2177,2.66566 -2.7146,4.22595 -0.4973,1.56028 -0.7474,3.19826 0.3185,4.48751 0.6569,0.79445 1.5365,1.29815 2.4263,1.42082 0.8898,0.12276 1.7301,-0.0865 2.488,-0.4186 1.5154,-0.66446 2.8135,-1.83763 3.8469,-2.83528 2.2194,-2.14296 2.8904,-5.17228 1.4922,-7.19753 h 5.9194 c -0.1446,0.10671 -0.2936,0.19998 -0.4344,0.31713 -1.3123,1.09175 -2.2177,2.66566 -2.7149,4.22595 -0.4969,1.56028 -0.7486,3.19826 0.3171,4.48751 0.6569,0.79445 1.5319,1.29815 2.4214,1.42082 0.8898,0.12276 1.7352,-0.0865 2.4929,-0.4186 1.5155,-0.66446 2.809,-1.83763 3.8421,-2.83528 2.2194,-2.14296 2.8903,-5.17228 1.4921,-7.19753 h 58.5414 a 1.3819579,1.3819579 0 0 0 0,-2.76391 h -58.5382 c 1.3938,-2.0253 0.7223,-5.04982 -1.4953,-7.19118 -1.0331,-0.99765 -2.3266,-2.1709 -3.8421,-2.83526 -0.7577,-0.33222 -1.6031,-0.54137 -2.4929,-0.41869 -0.8895,0.12277 -1.7645,0.62004 -2.4214,1.41446 -1.0657,1.28928 -0.814,2.92734 -0.3171,4.48762 0.4972,1.56028 1.4026,3.1342 2.7149,4.22594 0.1402,0.11666 0.2887,0.21055 0.4329,0.31711 h -5.9149 c 1.394,-2.0253 0.7225,-5.04982 -1.4952,-7.19118 -1.0334,-0.99765 -2.3315,-2.1709 -3.8469,-2.83526 -0.7579,-0.33222 -1.5982,-0.54137 -2.488,-0.41869 -0.8898,0.12277 -1.7694,0.62004 -2.4263,1.41446 -1.0659,1.28928 -0.8158,2.92734 -0.3185,4.48762 0.4969,1.56028 1.4022,3.1342 2.7146,4.22594 0.1402,0.11666 0.2886,0.21055 0.4329,0.31711 h -6.2731 c 1.3939,-2.0253 0.7223,-5.04982 -1.4952,-7.19118 -1.0334,-0.99765 -2.3315,-2.1709 -3.847,-2.83526 -0.5684,-0.24917 -1.1829,-0.42908 -1.8300001,-0.45198 z m 180.5558001,0 c -0.6473,0.0229 -1.2616,0.20279 -1.83,0.45198 -1.5155,0.66435 -2.8136,1.83762 -3.847,2.83526 -2.2175,2.14135 -2.8891,5.16587 -1.4954,7.1912 h -58.5332 a 1.3819505,1.3819505 0 0 0 0,2.7639 h 58.5365 c -1.3983,2.02523 -0.7272,5.05455 1.4921,7.19752 1.0334,0.99764 2.3315,2.17082 3.847,2.83527 0.7575,0.33223 1.5982,0.54136 2.488,0.41861 0.8895,-0.12268 1.7708,-0.62638 2.4278,-1.4208 1.066,-1.28927 0.8141,-2.92725 0.317,-4.48753 -0.497,-1.56029 -1.4023,-3.1342 -2.7149,-4.22596 -0.14,-0.11714 -0.2898,-0.21034 -0.4344,-0.31711 h 5.918 c -1.3981,2.02523 -0.7272,5.05455 1.4922,7.19752 1.0333,0.99764 2.3267,2.17082 3.842,2.83527 0.7579,0.33223 1.6031,0.54136 2.4929,0.41861 0.8898,-0.12268 1.7642,-0.62638 2.4214,-1.4208 1.0659,-1.28927 0.8142,-2.92725 0.317,-4.48753 -0.4968,-1.56029 -1.4023,-3.1342 -2.7145,-4.22596 -0.1402,-0.11714 -0.2901,-0.21034 -0.4344,-0.31711 h 6.284 c -1.3982,2.02523 -0.7273,5.05455 1.4921,7.19752 1.0333,0.99764 2.3268,2.17082 3.8421,2.83527 0.7579,0.33223 1.6031,0.54136 2.4929,0.41861 0.8898,-0.12268 1.7644,-0.62638 2.4212,-1.4208 1.0661,-1.28927 0.8144,-2.92725 0.3175,-4.48753 -0.4973,-1.56029 -1.4026,-3.1342 -2.7149,-4.22596 -1.0285,-0.85564 -2.1607,-1.41819 -3.2937,-1.6888 1.1328,-0.27199 2.2654,-0.85385 3.2937,-1.70933 1.3123,-1.09175 2.2176,-2.66567 2.7149,-4.22595 0.4969,-1.56029 0.7486,-3.19834 -0.3175,-4.48761 -0.6568,-0.79444 -1.5314,-1.29171 -2.4212,-1.41446 -0.8898,-0.12269 -1.735,0.0865 -2.4929,0.41868 -1.5153,0.66435 -2.8088,1.83762 -3.8421,2.83526 -2.2176,2.14135 -2.8891,5.16587 -1.4952,7.1912 h -6.2795 c 0.1445,-0.1066 0.2925,-0.20047 0.433,-0.31712 1.3122,-1.09175 2.2177,-2.66567 2.7145,-4.22595 0.4972,-1.56029 0.7489,-3.19834 -0.317,-4.48761 -0.6572,-0.79444 -1.5316,-1.29171 -2.4214,-1.41446 -0.8898,-0.12269 -1.735,0.0865 -2.4929,0.41868 -1.5153,0.66435 -2.8087,1.83762 -3.842,2.83526 -2.2176,2.14135 -2.8892,5.16587 -1.4953,7.1912 h -5.9131 c 0.1446,-0.1066 0.2924,-0.20047 0.4326,-0.31712 1.3126,-1.09175 2.2179,-2.66567 2.7149,-4.22595 0.4971,-1.56029 0.749,-3.19834 -0.317,-4.48761 -0.657,-0.79444 -1.5383,-1.29171 -2.4278,-1.41446 -0.2223,-0.0307 -0.4423,-0.0409 -0.658,-0.0333 z m -180.6416001,2.45628 c 0.2561,0.0105 0.5696001,0.085 0.9326001,0.24422 0.9681,0.42445 2.159,1.4247 3.1223,2.35478 1.6382,1.58173 1.6351,3.51044 1.0847,4.1593 -0.2252,0.26564 -0.6854,0.45303 -1.4748,0.34732 -0.7893,-0.10581 -1.7943,-0.53941 -2.6957,-1.28918 -0.8126001,-0.67591 -1.5806001,-1.92352 -1.9489001,-3.07948 -0.3682,-1.15597 -0.173,-2.12528 -0.1248,-2.18195 0.3362,-0.40675 0.5795,-0.50556 0.869,-0.5455 0.072,-0.01 0.1511,-0.0129 0.2362,-0.009 z m 13.7007001,0 c 0.2559,0.0105 0.5695,0.085 0.9325,0.24422 0.9681,0.42445 2.1589,1.4247 3.1224,2.35478 1.638,1.58173 1.6351,3.51044 1.0845,4.1593 -0.2253,0.26564 -0.6853,0.45303 -1.4749,0.34732 -0.7891,-0.10581 -1.7943,-0.53941 -2.6957,-1.28918 -0.8123,-0.67591 -1.5804,-1.92352 -1.9487,-3.07948 -0.3684,-1.15597 -0.1731,-2.12528 -0.1249,-2.18195 0.3364,-0.40675 0.5796,-0.50556 0.8688,-0.5455 0.071,-0.01 0.1512,-0.0129 0.2365,-0.009 z m 13.336,0 c 0.2559,0.0105 0.5676,0.085 0.9307,0.24422 0.9683,0.42445 2.1653,1.4247 3.1287,2.35478 1.6381,1.58173 1.635,3.51044 1.0846,4.1593 -0.2252,0.26564 -0.6839,0.45303 -1.4731,0.34732 -0.7895,-0.10581 -1.7961,-0.53941 -2.6975,-1.28918 -0.8123,-0.67591 -1.5789,-1.92352 -1.9473,-3.07948 -0.368,-1.15597 -0.1729,-2.12528 -0.127,-2.18195 0.3364,-0.40675 0.5735,-0.50556 0.8626,-0.5455 0.072,-0.01 0.1534,-0.0129 0.2378,-0.009 z m 153.6903,0 c 0.086,-0.004 0.1645,-5e-4 0.2364,0.009 0.2893,0.04 0.5326,0.13876 0.8692,0.5455 0.046,0.0567 0.243,1.02599 -0.1251,2.18195 -0.368,1.15595 -1.1347,2.40358 -1.9472,3.07948 -0.9012,0.74977 -1.9079,1.1834 -2.6972,1.28919 -0.7895,0.10572 -1.2494,-0.0817 -1.4747,-0.34732 -0.5504,-0.64886 -0.5537,-2.57758 1.0847,-4.15929 0.9632,-0.93011 2.154,-1.93034 3.1221,-2.3548 0.363,-0.15914 0.6765,-0.23382 0.9326,-0.24422 z m 13.341,0 c 0.085,-0.004 0.1643,-5e-4 0.2362,0.009 0.2893,0.04 0.5325,0.13876 0.8689,0.5455 0.046,0.0567 0.2364,1.02599 -0.1315,2.18195 -0.3684,1.15595 -1.1348,2.40358 -1.9473,3.07948 -0.9013,0.74977 -1.908,1.1834 -2.6972,1.28919 -0.7895,0.10572 -1.2495,-0.0817 -1.4749,-0.34732 -0.5503,-0.64886 -0.5471,-2.57758 1.0911,-4.15929 0.9633,-0.93011 2.1542,-1.93034 3.1223,-2.3548 0.3629,-0.15914 0.6764,-0.23382 0.9324,-0.24422 z m 13.7002,0 c 0.085,-0.004 0.1643,-5e-4 0.2363,0.009 0.2894,0.04 0.5344,0.13876 0.8707,0.5455 0.046,0.0567 0.235,1.02599 -0.1337,2.18195 -0.3683,1.15595 -1.1348,2.40358 -1.9473,3.07948 -0.9012,0.74977 -1.908,1.1834 -2.6973,1.28919 -0.7894,0.10572 -1.2493,-0.0817 -1.4748,-0.34732 -0.5504,-0.64886 -0.5471,-2.57758 1.091,-4.15929 0.9634,-0.93011 2.1544,-1.93034 3.1224,-2.3548 0.363,-0.15914 0.6766,-0.23382 0.9323,-0.24422 z m -100.1995,1.94405 c -2.2606,0.15347 -2.6732,3.46951 -3.3411,5.05056 -0.6113,-1.64949 -2.2911,-4.99128 -4.7016,-4.77143 -1.6802,0.2511 -2.4675,1.7829 -2.7418,3.6154 -0.361,2.0238 0.3836,4.09491 1.562,5.58651 1.2226,1.64026 2.9176,2.67313 4.2527,4.16887 0.509,0.66144 0.9852,1.08695 1.3021,1.23837 0.4158,0.1986 0.8652,-0.46309 1.5681,-1.21467 0.9143,-0.94244 1.9522,-1.79239 2.845,-2.63699 1.705,-1.50086 3.0741,-3.78957 3.0238,-6.33336 0,-2.32995 -1.6596,-4.67955 -3.7692,-4.70326 z m -103.3711,9.7363 c 0.4728,0.0206 0.773,0.17664 0.942,0.37582 0.5504,0.64886 0.5535,2.57757 -1.0847,4.15938 -0.9633,0.93009 -2.1542,1.92553 -3.1223,2.35 -0.4840001,0.2122 -0.8795001,0.27933 -1.1688001,0.23943 -0.2891,-0.0399 -0.5325,-0.14498 -0.8689,-0.55186 -0.046,-0.0567 -0.2429,-1.02596 0.1249,-2.18193 0.3682,-1.15587 1.1363,-2.4035 1.9487001,-3.0794 0.9013,-0.74985 1.9064,-1.17715 2.6959,-1.28285 0.197,-0.0264 0.3751,-0.0354 0.5326,-0.0284 z m 13.7007,0 c 0.4728,0.0206 0.7729,0.17664 0.9418,0.37582 0.5506,0.64886 0.5535,2.57757 -1.0845,4.15938 -0.9635,0.93009 -2.1543,1.92553 -3.1224,2.35 -0.484,0.2122 -0.8794,0.27933 -1.1687,0.23943 -0.2894,-0.0399 -0.5326,-0.14498 -0.8692,-0.55186 -0.046,-0.0567 -0.2429,-1.02596 0.1251,-2.18193 0.3681,-1.15587 1.1363,-2.4035 1.9488,-3.0794 0.9013,-0.74985 1.9062,-1.17715 2.6957,-1.28285 0.1972,-0.0264 0.375,-0.0354 0.5328,-0.0284 z m 13.3404,0 c 0.4729,0.0206 0.7731,0.17664 0.942,0.37582 0.5504,0.64886 0.5535,2.57757 -1.0846,4.15938 -0.9634,0.93009 -2.1604,1.92553 -3.1287,2.35 -0.484,0.2122 -0.8793,0.27933 -1.1686,0.23943 -0.2894,-0.0399 -0.5262,-0.14498 -0.8626,-0.55186 -0.048,-0.0567 -0.2416,-1.02596 0.1272,-2.18193 0.3683,-1.15587 1.1347,-2.4035 1.9472,-3.0794 0.9012,-0.74985 1.9081,-1.17715 2.6972,-1.28285 0.1972,-0.0264 0.3736,-0.0354 0.5314,-0.0284 z m 145.2911,0 c 0.1578,-0.006 0.3354,0.002 0.5329,0.0284 0.7893,0.10573 1.7958,0.533 2.6972,1.28287 0.8125,0.67589 1.5789,1.9235 1.9473,3.07939 0.368,1.15596 0.1709,2.12535 0.1249,2.18194 -0.3363,0.40683 -0.5796,0.51198 -0.869,0.55184 -0.2893,0.04 -0.6845,-0.0273 -1.1687,-0.23943 -0.9682,-0.42445 -2.1589,-1.41992 -3.1223,-2.35 -1.6379,-1.58181 -1.635,-3.51052 -1.0844,-4.15938 0.1687,-0.19915 0.4688,-0.35512 0.9417,-0.37582 z m 13.3356,0 c 0.158,-0.006 0.3341,0.002 0.5314,0.0284 0.7893,0.10573 1.7962,0.533 2.6972,1.28287 0.8127,0.67589 1.579,1.9235 1.9473,3.07939 0.3684,1.15596 0.1799,2.12535 0.1337,2.18194 -0.3363,0.40683 -0.5796,0.51198 -0.869,0.55184 -0.2894,0.04 -0.6846,-0.0273 -1.1687,-0.23943 -0.968,-0.42445 -2.1604,-1.41992 -3.1239,-2.35 -1.6382,-1.58181 -1.6397,-3.51052 -1.0894,-4.15938 0.1686,-0.19915 0.4692,-0.35512 0.9421,-0.37582 z m 13.7007,0 c 0.1578,-0.006 0.334,0.002 0.5312,0.0284 0.7894,0.10573 1.7962,0.533 2.6974,1.28287 0.8124,0.67589 1.5789,1.9235 1.9472,3.07939 0.3683,1.15596 0.1797,2.12535 0.1337,2.18194 -0.3363,0.40683 -0.5795,0.51198 -0.869,0.55184 -0.2892,0.04 -0.6845,-0.0273 -1.1687,-0.23943 -0.9681,-0.42445 -2.1604,-1.41992 -3.1239,-2.35 -1.6381,-1.58181 -1.6398,-3.51052 -1.0892,-4.15938 0.1687,-0.19915 0.4689,-0.35512 0.9417,-0.37582 z"
       id="path1368"
       inkscape:connector-curvature="0" />
  </g>
</svg>
