<svg fill="none" height="272" viewBox="0 0 272 272" width="272" xmlns="http://www.w3.org/2000/svg"><path d="m131.917 195.296c-8.533 0-16.725-1.792-24.576-5.376-7.68-3.755-13.9093-9.557-18.688-17.408-4.7787-8.021-7.168-18.261-7.168-30.72s2.4747-23.637 7.424-33.536c5.12-9.8987 12.117-17.7493 20.992-23.552 9.045-5.8027 19.456-8.704 31.232-8.704 8.704 0 16.896 1.8773 24.576 5.632 7.68 3.584 13.909 9.3013 18.688 17.152 4.779 7.851 7.168 18.005 7.168 30.464s-2.56 23.723-7.68 33.792c-4.949 9.899-11.861 17.749-20.736 23.552s-19.285 8.704-31.232 8.704zm5.12-25.856c9.557-.171 17.835-3.243 24.832-9.216s10.496-14.336 10.496-25.088c0-7.339-1.792-13.483-5.376-18.432-3.413-4.949-7.936-8.704-13.568-11.264-5.461-2.731-11.349-4.011-17.664-3.84-9.387.171-17.493 3.328-24.32 9.472s-10.325 14.336-10.496 24.576c0 7.509 1.707 13.824 5.12 18.944 3.413 4.949 7.851 8.704 13.312 11.264 5.632 2.389 11.52 3.584 17.664 3.584z" fill="rgb(0,0,0)"/></svg>