<?xml version="1.0" encoding="UTF-8" standalone="no"?>
<svg
   fill="none"
   height="272"
   viewBox="0 0 272 272"
   width="272"
   version="1.1"
   id="svg2"
   xml:space="preserve"
   xmlns="http://www.w3.org/2000/svg"
   xmlns:svg="http://www.w3.org/2000/svg"><defs
     id="defs2" /><g
     fill="#000000"
     id="g2"
     style="display:inline"
     transform="translate(-0.5472837,0.54728408)"><path
       d="m 102.592,195.04 c -5.2907,0 -9.3867,-1.451 -12.288,-4.352 -2.9013,-3.072 -4.4373,-8.875 -4.608,-17.408 -0.1707,-7.339 0.6827,-16.384 2.56,-27.136 1.8773,-10.923 4.4373,-23.125 7.68,-36.608 -4.096,3.243 -8.6187,6.315 -13.568,9.216 -4.9493,2.901 -9.3013,4.352 -13.056,4.352 -4.2667,0 -7.5947,-1.707 -9.984,-5.12 C 57.1093,114.4 56,110.475 56,106.208 c 0,-3.584 0.6827,-6.059 2.048,-7.424 1.536,-1.3653 3.1573,-2.1333 4.864,-2.304 10.0693,-0.8533 18.432,-2.9867 25.088,-6.4 6.656,-3.4133 12.971,-7.3387 18.944,-11.776 2.048,-1.536 4.011,-2.304 5.888,-2.304 1.877,0 3.755,0.5973 5.632,1.792 1.877,1.024 2.816,2.2187 2.816,3.584 0,0.6827 -0.256,1.8773 -0.768,3.584 -0.341,1.7067 -0.853,3.7547 -1.536,6.144 -1.707,5.632 -3.413,13.312 -5.12,23.04 -1.707,9.557 -2.56,20.565 -2.56,33.024 0,7.68 0.768,13.397 2.304,17.152 1.707,3.584 4.779,6.315 9.216,8.192 1.365,0.512 2.389,1.109 3.072,1.792 0.683,0.512 1.024,1.451 1.024,2.816 0,1.365 -0.768,3.499 -2.304,6.4 -1.365,2.901 -3.84,5.547 -7.424,7.936 -3.413,2.389 -8.277,3.584 -14.592,3.584 z"
       id="path1"
       style="display:none" /><path
       d="m 191.842,195.04 c -5.291,0 -9.387,-1.451 -12.288,-4.352 -2.901,-3.072 -4.437,-8.875 -4.608,-17.408 -0.171,-7.339 0.683,-16.384 2.56,-27.136 1.877,-10.923 4.437,-23.125 7.68,-36.608 -4.096,3.243 -8.619,6.315 -13.568,9.216 -4.949,2.901 -9.301,4.352 -13.056,4.352 -4.267,0 -7.595,-1.707 -9.984,-5.12 -2.219,-3.584 -3.328,-7.509 -3.328,-11.776 0,-3.584 0.683,-6.059 2.048,-7.424 1.536,-1.3653 3.157,-2.1333 4.864,-2.304 10.069,-0.8533 18.432,-2.9867 25.088,-6.4 6.656,-3.4133 12.971,-7.3387 18.944,-11.776 2.048,-1.536 4.011,-2.304 5.888,-2.304 1.877,0 3.755,0.5973 5.632,1.792 1.877,1.024 2.816,2.2187 2.816,3.584 0,0.6827 -0.256,1.8773 -0.768,3.584 -0.341,1.7067 -0.853,3.7547 -1.536,6.144 -1.707,5.632 -3.413,13.312 -5.12,23.04 -1.707,9.557 -2.56,20.565 -2.56,33.024 0,7.68 0.768,13.397 2.304,17.152 1.707,3.584 4.779,6.315 9.216,8.192 1.365,0.512 2.389,1.109 3.072,1.792 0.683,0.512 1.024,1.451 1.024,2.816 0,1.365 -0.768,3.499 -2.304,6.4 -1.365,2.901 -3.84,5.547 -7.424,7.936 -3.413,2.389 -8.277,3.584 -14.592,3.584 z"
       id="path2"
       style="display:inline" /></g><g
     id="layer1"
     style="display:inline"><g
       style="display:none;fill:none"
       id="g3"
       transform="translate(43.326696,-0.0672837)"><path
         d="m 147.592,195.04 c -5.291,0 -9.387,-1.451 -12.288,-4.352 -2.901,-3.072 -4.437,-8.875 -4.608,-17.408 -0.171,-7.339 0.683,-16.384 2.56,-27.136 1.877,-10.923 4.437,-23.125 7.68,-36.608 -4.096,3.243 -8.619,6.315 -13.568,9.216 -4.949,2.901 -9.301,4.352 -13.056,4.352 -4.267,0 -7.595,-1.707 -9.984,-5.12 C 102.109,114.4 101,110.475 101,106.208 c 0,-3.584 0.683,-6.059 2.048,-7.424 1.536,-1.3653 3.157,-2.1333 4.864,-2.304 10.069,-0.8533 18.432,-2.9867 25.088,-6.4 6.656,-3.4133 12.971,-7.3387 18.944,-11.776 2.048,-1.536 4.011,-2.304 5.888,-2.304 1.877,0 3.755,0.5973 5.632,1.792 1.877,1.024 2.816,2.2187 2.816,3.584 0,0.6827 -0.256,1.8773 -0.768,3.584 -0.341,1.7067 -0.853,3.7547 -1.536,6.144 -1.707,5.632 -3.413,13.312 -5.12,23.04 -1.707,9.557 -2.56,20.565 -2.56,33.024 0,7.68 0.768,13.397 2.304,17.152 1.707,3.584 4.779,6.315 9.216,8.192 1.365,0.512 2.389,1.109 3.072,1.792 0.683,0.512 1.024,1.451 1.024,2.816 0,1.365 -0.768,3.499 -2.304,6.4 -1.365,2.901 -3.84,5.547 -7.424,7.936 -3.413,2.389 -8.277,3.584 -14.592,3.584 z"
         fill="#000000"
         id="path1-2" /></g><g
       style="display:inline;fill:none"
       id="g4"
       transform="matrix(0.93039634,0,0,0.93577344,-39.183325,12.895191)"><path
         d="m 131.917,195.296 c -8.533,0 -16.725,-1.792 -24.576,-5.376 -7.68,-3.755 -13.9093,-9.557 -18.688,-17.408 -4.7787,-8.021 -7.168,-18.261 -7.168,-30.72 0,-12.459 2.4747,-23.637 7.424,-33.536 5.12,-9.8987 12.117,-17.7493 20.992,-23.552 9.045,-5.8027 19.456,-8.704 31.232,-8.704 8.704,0 16.896,1.8773 24.576,5.632 7.68,3.584 13.909,9.3013 18.688,17.152 4.779,7.851 7.168,18.005 7.168,30.464 0,12.459 -2.56,23.723 -7.68,33.792 -4.949,9.899 -11.861,17.749 -20.736,23.552 -8.875,5.803 -19.285,8.704 -31.232,8.704 z m 5.12,-25.856 c 9.557,-0.171 17.835,-3.243 24.832,-9.216 6.997,-5.973 10.496,-14.336 10.496,-25.088 0,-7.339 -1.792,-13.483 -5.376,-18.432 -3.413,-4.949 -7.936,-8.704 -13.568,-11.264 -5.461,-2.731 -11.349,-4.011 -17.664,-3.84 -9.387,0.171 -17.493,3.328 -24.32,9.472 -6.827,6.144 -10.325,14.336 -10.496,24.576 0,7.509 1.707,13.824 5.12,18.944 3.413,4.949 7.851,8.704 13.312,11.264 5.632,2.389 11.52,3.584 17.664,3.584 z"
         fill="#000000"
         id="path1-3" /></g></g></svg>
