<?xml version="1.0" encoding="UTF-8" standalone="no"?>
<svg
   fill="none"
   height="272"
   viewBox="0 0 272 272"
   width="272"
   version="1.1"
   id="svg2"
   xml:space="preserve"
   xmlns="http://www.w3.org/2000/svg"
   xmlns:svg="http://www.w3.org/2000/svg"><defs
     id="defs2" /><g
     id="layer1"
     style="display:inline"><g
       style="display:none;fill:none"
       id="g3"
       transform="translate(43.326696,-0.0672837)"><path
         d="m 147.592,195.04 c -5.291,0 -9.387,-1.451 -12.288,-4.352 -2.901,-3.072 -4.437,-8.875 -4.608,-17.408 -0.171,-7.339 0.683,-16.384 2.56,-27.136 1.877,-10.923 4.437,-23.125 7.68,-36.608 -4.096,3.243 -8.619,6.315 -13.568,9.216 -4.949,2.901 -9.301,4.352 -13.056,4.352 -4.267,0 -7.595,-1.707 -9.984,-5.12 C 102.109,114.4 101,110.475 101,106.208 c 0,-3.584 0.683,-6.059 2.048,-7.424 1.536,-1.3653 3.157,-2.1333 4.864,-2.304 10.069,-0.8533 18.432,-2.9867 25.088,-6.4 6.656,-3.4133 12.971,-7.3387 18.944,-11.776 2.048,-1.536 4.011,-2.304 5.888,-2.304 1.877,0 3.755,0.5973 5.632,1.792 1.877,1.024 2.816,2.2187 2.816,3.584 0,0.6827 -0.256,1.8773 -0.768,3.584 -0.341,1.7067 -0.853,3.7547 -1.536,6.144 -1.707,5.632 -3.413,13.312 -5.12,23.04 -1.707,9.557 -2.56,20.565 -2.56,33.024 0,7.68 0.768,13.397 2.304,17.152 1.707,3.584 4.779,6.315 9.216,8.192 1.365,0.512 2.389,1.109 3.072,1.792 0.683,0.512 1.024,1.451 1.024,2.816 0,1.365 -0.768,3.499 -2.304,6.4 -1.365,2.901 -3.84,5.547 -7.424,7.936 -3.413,2.389 -8.277,3.584 -14.592,3.584 z"
         fill="#000000"
         id="path1-2" /></g><g
       style="display:inline;fill:none"
       id="g4"
       transform="matrix(0.93039634,0,0,0.93577344,-39.183325,12.895191)"><path
         d="m 131.917,195.296 c -8.533,0 -16.725,-1.792 -24.576,-5.376 -7.68,-3.755 -13.9093,-9.557 -18.688,-17.408 -4.7787,-8.021 -7.168,-18.261 -7.168,-30.72 0,-12.459 2.4747,-23.637 7.424,-33.536 5.12,-9.8987 12.117,-17.7493 20.992,-23.552 9.045,-5.8027 19.456,-8.704 31.232,-8.704 8.704,0 16.896,1.8773 24.576,5.632 7.68,3.584 13.909,9.3013 18.688,17.152 4.779,7.851 7.168,18.005 7.168,30.464 0,12.459 -2.56,23.723 -7.68,33.792 -4.949,9.899 -11.861,17.749 -20.736,23.552 -8.875,5.803 -19.285,8.704 -31.232,8.704 z m 5.12,-25.856 c 9.557,-0.171 17.835,-3.243 24.832,-9.216 6.997,-5.973 10.496,-14.336 10.496,-25.088 0,-7.339 -1.792,-13.483 -5.376,-18.432 -3.413,-4.949 -7.936,-8.704 -13.568,-11.264 -5.461,-2.731 -11.349,-4.011 -17.664,-3.84 -9.387,0.171 -17.493,3.328 -24.32,9.472 -6.827,6.144 -10.325,14.336 -10.496,24.576 0,7.509 1.707,13.824 5.12,18.944 3.413,4.949 7.851,8.704 13.312,11.264 5.632,2.389 11.52,3.584 17.664,3.584 z"
         fill="#000000"
         id="path1-3" /></g><g
       style="fill:none"
       id="g5"
       transform="translate(48.624966,2.0531348)"><path
         d="m 133.104,195.272 c -11.435,0 -21.077,-0.683 -28.928,-2.048 -7.68,-1.195 -12.7147,-3.669 -15.104,-7.424 -0.6827,-1.024 -1.3653,-2.56 -2.048,-4.608 C 86.3413,179.144 86,177.267 86,175.56 c 0,-5.291 2.304,-8.789 6.912,-10.496 7.68,-3.755 15.104,-7.68 22.272,-11.776 7.168,-4.096 13.739,-8.789 19.712,-14.08 10.411,-9.045 15.616,-16.981 15.616,-23.808 0,-3.413 -1.365,-6.144 -4.096,-8.192 -2.731,-2.048 -6.656,-3.072 -11.776,-3.072 -3.925,0 -8.192,0.512 -12.8,1.536 -4.437,1.024 -8.363,2.475 -11.776,4.352 -2.048,1.195 -3.925,2.219 -5.632,3.072 -1.536,0.683 -2.987,1.024 -4.352,1.024 -2.2187,0 -3.9253,-1.109 -5.12,-3.328 -1.1947,-2.219 -1.792,-4.608 -1.792,-7.168 0,-2.901 0.768,-5.7173 2.304,-8.448 1.7067,-2.9013 4.693,-5.7173 8.96,-8.448 4.437,-2.9013 9.643,-5.2053 15.616,-6.912 6.144,-1.8773 12.629,-2.816 19.456,-2.816 10.752,0 19.456,2.6453 26.112,7.936 6.827,5.12 10.24,12.2027 10.24,21.248 0,5.803 -1.28,11.435 -3.84,16.896 -2.56,5.291 -5.803,10.155 -9.728,14.592 -5.803,6.827 -12.629,12.885 -20.48,18.176 -7.851,5.291 -15.445,9.643 -22.784,13.056 2.901,0.171 6.485,0.341 10.752,0.512 h 10.24 c 10.069,0 17.237,-0.853 21.504,-2.56 4.267,-1.877 7.509,-4.011 9.728,-6.4 2.048,-2.219 3.755,-3.328 5.12,-3.328 1.877,0 3.755,1.365 5.632,4.096 2.048,2.56 3.072,6.144 3.072,10.752 0,8.875 -4.352,15.019 -13.056,18.432 -8.533,3.243 -21.504,4.864 -38.912,4.864 z"
         fill="#000000"
         id="path1-39" /></g></g></svg>
