<?xml version="1.0" encoding="UTF-8" standalone="no"?>
<svg
   fill="none"
   height="272"
   viewBox="0 0 272 272"
   width="272"
   version="1.1"
   id="svg2"
   xml:space="preserve"
   xmlns="http://www.w3.org/2000/svg"
   xmlns:svg="http://www.w3.org/2000/svg"><defs
     id="defs2" /><g
     id="layer1"
     style="display:inline"><g
       style="display:none;fill:none"
       id="g3"
       transform="translate(43.326696,-0.0672837)"><path
         d="m 147.592,195.04 c -5.291,0 -9.387,-1.451 -12.288,-4.352 -2.901,-3.072 -4.437,-8.875 -4.608,-17.408 -0.171,-7.339 0.683,-16.384 2.56,-27.136 1.877,-10.923 4.437,-23.125 7.68,-36.608 -4.096,3.243 -8.619,6.315 -13.568,9.216 -4.949,2.901 -9.301,4.352 -13.056,4.352 -4.267,0 -7.595,-1.707 -9.984,-5.12 C 102.109,114.4 101,110.475 101,106.208 c 0,-3.584 0.683,-6.059 2.048,-7.424 1.536,-1.3653 3.157,-2.1333 4.864,-2.304 10.069,-0.8533 18.432,-2.9867 25.088,-6.4 6.656,-3.4133 12.971,-7.3387 18.944,-11.776 2.048,-1.536 4.011,-2.304 5.888,-2.304 1.877,0 3.755,0.5973 5.632,1.792 1.877,1.024 2.816,2.2187 2.816,3.584 0,0.6827 -0.256,1.8773 -0.768,3.584 -0.341,1.7067 -0.853,3.7547 -1.536,6.144 -1.707,5.632 -3.413,13.312 -5.12,23.04 -1.707,9.557 -2.56,20.565 -2.56,33.024 0,7.68 0.768,13.397 2.304,17.152 1.707,3.584 4.779,6.315 9.216,8.192 1.365,0.512 2.389,1.109 3.072,1.792 0.683,0.512 1.024,1.451 1.024,2.816 0,1.365 -0.768,3.499 -2.304,6.4 -1.365,2.901 -3.84,5.547 -7.424,7.936 -3.413,2.389 -8.277,3.584 -14.592,3.584 z"
         fill="#000000"
         id="path1-2" /></g><g
       style="display:inline;fill:none"
       id="g4"
       transform="matrix(0.93039634,0,0,0.93577344,-39.183325,12.895191)"><path
         d="m 131.917,195.296 c -8.533,0 -16.725,-1.792 -24.576,-5.376 -7.68,-3.755 -13.9093,-9.557 -18.688,-17.408 -4.7787,-8.021 -7.168,-18.261 -7.168,-30.72 0,-12.459 2.4747,-23.637 7.424,-33.536 5.12,-9.8987 12.117,-17.7493 20.992,-23.552 9.045,-5.8027 19.456,-8.704 31.232,-8.704 8.704,0 16.896,1.8773 24.576,5.632 7.68,3.584 13.909,9.3013 18.688,17.152 4.779,7.851 7.168,18.005 7.168,30.464 0,12.459 -2.56,23.723 -7.68,33.792 -4.949,9.899 -11.861,17.749 -20.736,23.552 -8.875,5.803 -19.285,8.704 -31.232,8.704 z m 5.12,-25.856 c 9.557,-0.171 17.835,-3.243 24.832,-9.216 6.997,-5.973 10.496,-14.336 10.496,-25.088 0,-7.339 -1.792,-13.483 -5.376,-18.432 -3.413,-4.949 -7.936,-8.704 -13.568,-11.264 -5.461,-2.731 -11.349,-4.011 -17.664,-3.84 -9.387,0.171 -17.493,3.328 -24.32,9.472 -6.827,6.144 -10.325,14.336 -10.496,24.576 0,7.509 1.707,13.824 5.12,18.944 3.413,4.949 7.851,8.704 13.312,11.264 5.632,2.389 11.52,3.584 17.664,3.584 z"
         fill="#000000"
         id="path1-3" /></g><g
       style="fill:none"
       id="g6"
       transform="matrix(0.74217162,0,0,0.81758064,76.152499,27.130047)"><path
         d="m 124.424,221.008 c -10.923,0 -20.224,-2.475 -27.904,-7.424 C 88.84,208.805 85,201.893 85,192.848 c 0,-6.485 1.536,-11.093 4.608,-13.824 3.072,-2.56 5.8027,-3.84 8.192,-3.84 1.3653,0 2.56,0.427 3.584,1.28 1.195,1.024 2.475,2.475 3.84,4.352 2.219,2.731 5.888,5.547 11.008,8.448 5.12,3.072 11.861,4.608 20.224,4.608 9.045,0 16.384,-1.963 22.016,-5.888 5.803,-3.925 8.704,-9.472 8.704,-16.64 0,-5.632 -1.621,-10.069 -4.864,-13.312 -3.072,-3.243 -6.571,-5.717 -10.496,-7.424 -5.461,-2.048 -11.605,-3.499 -18.432,-4.352 -1.365,-0.171 -2.56,-0.512 -3.584,-1.024 -1.024,-0.683 -1.963,-2.048 -2.816,-4.096 -1.536,-3.413 -2.304,-6.827 -2.304,-10.24 0,-1.877 0.512,-3.413 1.536,-4.608 1.024,-1.195 2.389,-2.219 4.096,-3.072 3.413,-1.536 7.253,-3.499 11.52,-5.888 4.437,-2.56 8.192,-5.717 11.264,-9.472 3.243,-3.755 4.864,-8.3627 4.864,-13.824 0,-6.3147 -2.219,-10.6667 -6.656,-13.056 -4.267,-2.56 -9.131,-3.84 -14.592,-3.84 -5.461,0 -10.411,0.9387 -14.848,2.816 -4.437,1.7067 -7.851,3.2427 -10.24,4.608 -3.072,2.048 -5.376,3.072 -6.912,3.072 -2.389,0 -4.096,-1.28 -5.12,-3.84 -1.024,-2.56 -1.536,-4.9493 -1.536,-7.168 0,-2.9013 0.768,-5.7173 2.304,-8.448 1.707,-2.9013 4.523,-5.632 8.448,-8.192 5.461,-3.9253 11.179,-6.5707 17.152,-7.936 6.144,-1.3653 11.947,-2.048 17.408,-2.048 12.629,0 22.443,3.1573 29.44,9.472 6.997,6.144 10.496,14.2507 10.496,24.32 0,8.5333 -2.389,16.469 -7.168,23.808 -4.779,7.339 -10.496,13.056 -17.152,17.152 8.875,2.389 15.701,6.827 20.48,13.312 4.949,6.485 7.424,14.763 7.424,24.832 0,11.093 -2.816,20.992 -8.448,29.696 -5.461,8.875 -12.885,15.787 -22.272,20.736 -9.387,5.12 -19.968,7.68 -31.744,7.68 z"
         fill="#000000"
         id="path1" /></g></g></svg>
