<?xml version="1.0" encoding="UTF-8" standalone="no"?>
<svg
   fill="none"
   height="272"
   viewBox="0 0 272 272"
   width="272"
   version="1.1"
   id="svg2"
   xml:space="preserve"
   xmlns="http://www.w3.org/2000/svg"
   xmlns:svg="http://www.w3.org/2000/svg"><defs
     id="defs2" /><g
     id="layer1"
     style="display:inline"><g
       style="display:inline;fill:none"
       id="g4"
       transform="matrix(0.93039634,0,0,0.93577344,-39.183325,12.895191)"><path
         d="m 131.917,195.296 c -8.533,0 -16.725,-1.792 -24.576,-5.376 -7.68,-3.755 -13.9093,-9.557 -18.688,-17.408 -4.7787,-8.021 -7.168,-18.261 -7.168,-30.72 0,-12.459 2.4747,-23.637 7.424,-33.536 5.12,-9.8987 12.117,-17.7493 20.992,-23.552 9.045,-5.8027 19.456,-8.704 31.232,-8.704 8.704,0 16.896,1.8773 24.576,5.632 7.68,3.584 13.909,9.3013 18.688,17.152 4.779,7.851 7.168,18.005 7.168,30.464 0,12.459 -2.56,23.723 -7.68,33.792 -4.949,9.899 -11.861,17.749 -20.736,23.552 -8.875,5.803 -19.285,8.704 -31.232,8.704 z m 5.12,-25.856 c 9.557,-0.171 17.835,-3.243 24.832,-9.216 6.997,-5.973 10.496,-14.336 10.496,-25.088 0,-7.339 -1.792,-13.483 -5.376,-18.432 -3.413,-4.949 -7.936,-8.704 -13.568,-11.264 -5.461,-2.731 -11.349,-4.011 -17.664,-3.84 -9.387,0.171 -17.493,3.328 -24.32,9.472 -6.827,6.144 -10.325,14.336 -10.496,24.576 0,7.509 1.707,13.824 5.12,18.944 3.413,4.949 7.851,8.704 13.312,11.264 5.632,2.389 11.52,3.584 17.664,3.584 z"
         fill="#000000"
         id="path1-3" /></g><g
       style="display:inline;fill:none"
       id="g7"
       transform="matrix(0.82304341,0,0,0.90093776,79.9849,14.624936)"><path
         d="m 151.40134,220.04908 c -4.779,0 -8.533,-1.365 -11.264,-4.096 -2.731,-2.731 -4.181,-7.765 -4.352,-15.104 0,-3.925 0.256,-8.96 0.768,-15.104 0.512,-5.973 1.28,-11.776 2.304,-17.408 H 93.033342 c -6.144,0 -10.8373,-1.707 -14.08,-5.12 -3.072,-3.584 -4.608,-7.595 -4.608,-12.032 0,-2.731 0.512,-5.547 1.536,-8.448 1.024,-2.901 2.3893,-5.973 4.096,-9.216 4.9493,-9.899 11.1787,-19.541 18.688,-28.928 7.679998,-9.5573 15.615998,-18.3467 23.807998,-26.368 8.192,-8.0213 15.616,-14.592 22.272,-19.712 4.267,-3.072 7.936,-5.4613 11.008,-7.168 3.072,-1.7067 5.973,-2.56 8.704,-2.56 3.584,0 5.888,1.3653 6.912,4.096 1.195,2.7307 1.792,6.4853 1.792,11.264 0,7.3387 -0.683,16.128 -2.048,26.368 -1.195,10.24 -2.56,20.395 -4.096,30.464 -0.341,2.901 -0.683,5.888 -1.024,8.96 -0.341,3.072 -0.683,6.315 -1.024,9.728 2.219,-0.171 4.608,-0.256 7.168,-0.256 2.731,-0.171 5.717,-0.256 8.96,-0.256 1.877,0 3.584,0.427 5.12,1.28 1.707,0.683 2.56,2.389 2.56,5.12 0,2.731 -0.768,5.888 -2.304,9.472 -1.365,3.413 -3.243,6.485 -5.632,9.216 -2.219,2.56 -4.608,3.84 -7.168,3.84 h -13.056 v 5.632 c 0,5.12 0.597,9.899 1.792,14.336 1.195,4.437 3.84,7.595 7.936,9.472 2.389,1.024 3.584,2.56 3.584,4.608 0,1.536 -0.683,3.669 -2.048,6.4 -1.365,2.901 -3.669,5.547 -6.912,7.936 -3.243,2.389 -7.765,3.584 -13.568,3.584 z m -43.776,-78.08 35.072,-1.792 c 0.512,-3.072 1.109,-6.997 1.792,-11.776 0.683,-4.949 1.365,-9.899 2.048,-14.848 0.683,-5.12 1.195,-9.728 1.536,-13.824 0.512,-4.2667 0.768,-7.3387 0.768,-9.216 0,-2.7307 -0.768,-4.096 -2.304,-4.096 -1.365,0 -3.328,0.8533 -5.888,2.56 -6.144,4.4373 -12.885,10.155 -20.224,17.152 -7.339,6.997 -13.824,15.531 -19.456,25.6 -1.023998,1.536 -1.535998,3.072 -1.535998,4.608 0,1.877 0.767998,3.328 2.303998,4.352 1.536,1.024 3.499,1.451 5.888,1.28 z"
         fill="#000000"
         id="path1-4" /></g></g></svg>
