<?xml version="1.0" encoding="UTF-8" standalone="no"?>
<svg
   fill="none"
   height="272"
   viewBox="0 0 272 272"
   width="272"
   version="1.1"
   id="svg2"
   xml:space="preserve"
   xmlns="http://www.w3.org/2000/svg"
   xmlns:svg="http://www.w3.org/2000/svg"><defs
     id="defs2" /><g
     id="layer1"
     style="display:inline"><g
       style="display:inline;fill:none"
       id="g4"
       transform="matrix(0.93039634,0,0,0.93577344,-39.183325,12.895191)"><path
         d="m 131.917,195.296 c -8.533,0 -16.725,-1.792 -24.576,-5.376 -7.68,-3.755 -13.9093,-9.557 -18.688,-17.408 -4.7787,-8.021 -7.168,-18.261 -7.168,-30.72 0,-12.459 2.4747,-23.637 7.424,-33.536 5.12,-9.8987 12.117,-17.7493 20.992,-23.552 9.045,-5.8027 19.456,-8.704 31.232,-8.704 8.704,0 16.896,1.8773 24.576,5.632 7.68,3.584 13.909,9.3013 18.688,17.152 4.779,7.851 7.168,18.005 7.168,30.464 0,12.459 -2.56,23.723 -7.68,33.792 -4.949,9.899 -11.861,17.749 -20.736,23.552 -8.875,5.803 -19.285,8.704 -31.232,8.704 z m 5.12,-25.856 c 9.557,-0.171 17.835,-3.243 24.832,-9.216 6.997,-5.973 10.496,-14.336 10.496,-25.088 0,-7.339 -1.792,-13.483 -5.376,-18.432 -3.413,-4.949 -7.936,-8.704 -13.568,-11.264 -5.461,-2.731 -11.349,-4.011 -17.664,-3.84 -9.387,0.171 -17.493,3.328 -24.32,9.472 -6.827,6.144 -10.325,14.336 -10.496,24.576 0,7.509 1.707,13.824 5.12,18.944 3.413,4.949 7.851,8.704 13.312,11.264 5.632,2.389 11.52,3.584 17.664,3.584 z"
         fill="#000000"
         id="path1-3" /></g><g
       style="display:inline;fill:none"
       id="g8"
       transform="matrix(0.96606629,0,0,0.88910407,52.95227,15.778499)"><path
         d="m 124.608,224.664 c -6.485,0 -12.544,-1.024 -18.176,-3.072 C 100.8,219.544 96.2773,216.387 92.864,212.12 89.6213,208.024 88,202.819 88,196.504 c 0,-6.485 1.4507,-11.093 4.352,-13.824 3.072,-2.56 5.7173,-3.84 7.936,-3.84 2.048,0 4.437,1.792 7.168,5.376 3.413,4.267 7.595,7.424 12.544,9.472 5.12,2.219 10.411,3.328 15.872,3.328 9.045,0 15.872,-2.304 20.48,-6.912 4.779,-4.437 7.253,-10.069 7.424,-16.896 0.171,-7.509 -2.304,-14.165 -7.424,-19.968 -4.949,-5.973 -11.264,-10.667 -18.944,-14.08 -7.68,-3.413 -15.445,-5.12 -23.296,-5.12 -2.901,0 -5.205,0.171 -6.912,0.512 -1.707,0.341 -3.243,0.512 -4.608,0.512 -2.219,0 -4.1813,-0.597 -5.888,-1.792 -1.7067,-1.195 -2.56,-2.731 -2.56,-4.608 0,-1.195 0.256,-2.645 0.768,-4.352 0.512,-2.731 1.1947,-8.789 2.048,-18.176 1.024,-9.5573 1.536,-23.808 1.536,-42.752 0,-2.3893 0.4267,-4.352 1.28,-5.888 1.024,-1.536 2.645,-2.304 4.864,-2.304 0.512,0 1.28,0.0853 2.304,0.256 1.024,0 1.963,0.0853 2.816,0.256 3.072,0.3413 7.253,0.6827 12.544,1.024 5.291,0.3413 10.923,0.512 16.896,0.512 8.021,0 14.165,-0.3413 18.432,-1.024 4.437,-0.8533 7.595,-1.792 9.472,-2.816 2.048,-1.1947 3.499,-2.304 4.352,-3.328 1.877,-2.048 3.328,-3.072 4.352,-3.072 1.877,0 3.669,1.28 5.376,3.84 1.877,2.56 2.816,6.4853 2.816,11.776 0,8.8747 -3.243,14.592 -9.728,17.152 -6.315,2.3893 -15.275,3.584 -26.88,3.584 -5.291,0 -10.581,-0.1707 -15.872,-0.512 -5.12,-0.3413 -9.216,-0.6827 -12.288,-1.024 l -3.84,26.112 c 8.533,-0.171 17.067,0.853 25.6,3.072 8.533,2.048 15.957,5.291 22.272,9.728 7.509,5.291 12.971,11.691 16.384,19.2 3.413,7.509 5.12,15.275 5.12,23.296 0,10.923 -2.645,21.077 -7.936,30.464 -5.291,9.387 -12.459,16.896 -21.504,22.528 -9.045,5.632 -19.285,8.448 -30.72,8.448 z"
         fill="#000000"
         id="path1" /></g></g></svg>
