<?xml version="1.0" encoding="UTF-8" standalone="no"?>
<svg
   fill="none"
   height="272"
   viewBox="0 0 272 272"
   width="272"
   version="1.1"
   id="svg2"
   xml:space="preserve"
   xmlns="http://www.w3.org/2000/svg"
   xmlns:svg="http://www.w3.org/2000/svg"><defs
     id="defs2" /><g
     id="layer1"
     style="display:inline"><g
       style="display:inline;fill:none"
       id="g4"
       transform="matrix(0.93039634,0,0,0.93577344,-39.183325,12.895191)"><path
         d="m 131.917,195.296 c -8.533,0 -16.725,-1.792 -24.576,-5.376 -7.68,-3.755 -13.9093,-9.557 -18.688,-17.408 -4.7787,-8.021 -7.168,-18.261 -7.168,-30.72 0,-12.459 2.4747,-23.637 7.424,-33.536 5.12,-9.8987 12.117,-17.7493 20.992,-23.552 9.045,-5.8027 19.456,-8.704 31.232,-8.704 8.704,0 16.896,1.8773 24.576,5.632 7.68,3.584 13.909,9.3013 18.688,17.152 4.779,7.851 7.168,18.005 7.168,30.464 0,12.459 -2.56,23.723 -7.68,33.792 -4.949,9.899 -11.861,17.749 -20.736,23.552 -8.875,5.803 -19.285,8.704 -31.232,8.704 z m 5.12,-25.856 c 9.557,-0.171 17.835,-3.243 24.832,-9.216 6.997,-5.973 10.496,-14.336 10.496,-25.088 0,-7.339 -1.792,-13.483 -5.376,-18.432 -3.413,-4.949 -7.936,-8.704 -13.568,-11.264 -5.461,-2.731 -11.349,-4.011 -17.664,-3.84 -9.387,0.171 -17.493,3.328 -24.32,9.472 -6.827,6.144 -10.325,14.336 -10.496,24.576 0,7.509 1.707,13.824 5.12,18.944 3.413,4.949 7.851,8.704 13.312,11.264 5.632,2.389 11.52,3.584 17.664,3.584 z"
         fill="#000000"
         id="path1-3" /></g><g
       style="display:none;fill:none"
       id="g9"
       transform="matrix(0.93926198,0,0,0.96780816,58.20462,8.2056792)"><path
         d="m 130.835,221.007 c -10.24,0 -18.688,-2.474 -25.344,-7.424 -6.485,-5.12 -11.2637,-12.117 -14.3357,-20.992 -3.072,-8.874 -4.7787,-19.029 -5.12,-30.464 -0.3413,-15.53 1.792,-29.952 6.4,-43.264 4.608,-13.482 11.0937,-25.3437 19.4557,-35.5837 8.363,-10.24 17.835,-18.176 28.416,-23.808 4.95,-2.56 10.24,-4.608 15.872,-6.144 5.632,-1.7067 10.667,-2.4747 15.104,-2.304 3.755,0.1706 6.315,1.1093 7.68,2.816 1.366,1.536 2.048,3.84 2.048,6.912 0,2.9013 -0.512,5.9733 -1.536,9.216 -0.853,3.072 -2.133,5.7173 -3.84,7.936 -1.536,2.048 -3.413,3.072 -5.632,3.072 -1.365,0 -2.56,-0.1707 -3.584,-0.512 -0.682,-0.1707 -1.45,-0.256 -2.304,-0.256 -0.853,-0.1707 -1.962,-0.256 -3.328,-0.256 -11.093,0 -21.248,3.7546 -30.464,11.264 -9.216,7.3386 -15.786,17.5787 -19.712,30.7197 4.95,-4.096 10.07,-6.997 15.36,-8.704 5.291,-1.877 10.838,-2.816 16.64,-2.816 12.971,0 23.211,4.267 30.72,12.8 7.68,8.534 11.606,20.395 11.776,35.584 0.171,11.264 -2.048,21.675 -6.656,31.232 -4.437,9.387 -10.752,16.896 -18.944,22.528 -8.192,5.632 -17.749,8.448 -28.672,8.448 z m 6.912,-26.624 c 8.534,0 15.446,-2.645 20.736,-7.936 5.291,-5.461 7.851,-12.458 7.68,-20.992 -0.17,-9.045 -3.157,-16.042 -8.96,-20.992 -5.802,-5.12 -12.97,-7.68 -21.504,-7.68 -5.461,0 -10.666,1.024 -15.616,3.072 -4.778,2.048 -9.301,4.95 -13.568,8.704 -0.682,7.851 0,15.275 2.048,22.272 2.219,6.998 5.803,12.715 10.752,17.152 4.95,4.267 11.094,6.4 18.432,6.4 z"
         fill="#000000"
         id="path1-6" /></g><g
       style="display:inline;fill:none"
       id="g11"
       transform="translate(45.608547,6.2601207)"><path
         d="m 129.544,221.52 c -10.752,0 -19.456,-1.963 -26.112,-5.888 -6.4853,-3.925 -11.1787,-8.96 -14.08,-15.104 C 86.4507,194.213 85,187.557 85,180.56 c 0,-7.68 1.4507,-14.421 4.352,-20.224 2.9013,-5.973 6.4853,-11.008 10.752,-15.104 4.437,-4.267 8.875,-7.68 13.312,-10.24 -4.949,-2.731 -9.216,-6.741 -12.8,-12.032 -3.584,-5.461 -5.376,-12.117 -5.376,-19.968 0,-3.7547 0.3413,-6.9973 1.024,-9.728 0.8533,-2.7307 1.8773,-5.12 3.072,-7.168 -0.3413,0.1707 -0.8533,0.3413 -1.536,0.512 -0.512,0.1707 -1.024,0.256 -1.536,0.256 -1.7067,0 -2.9867,-1.28 -3.84,-3.84 -0.6827,-2.7307 -1.024,-5.12 -1.024,-7.168 0,-3.2427 0.768,-5.8027 2.304,-7.68 1.536,-2.048 3.072,-3.6693 4.608,-4.864 3.413,-2.3893 8.789,-5.2053 16.128,-8.448 7.509,-3.2427 16.299,-4.864 26.368,-4.864 13.653,0 24.491,3.584 32.512,10.752 8.192,7.168 12.288,16.64 12.288,28.416 0,9.216 -2.304,17.579 -6.912,25.088 -4.437,7.339 -10.155,13.312 -17.152,17.92 6.485,3.243 12.288,8.107 17.408,14.592 5.12,6.315 7.68,14.507 7.68,24.576 0,9.557 -2.56,18.176 -7.68,25.856 -4.949,7.509 -11.691,13.483 -20.224,17.92 -8.533,4.267 -18.261,6.4 -29.184,6.4 z m 15.872,-98.304 c 5.461,-3.072 9.813,-6.4 13.056,-9.984 3.243,-3.755 4.864,-8.704 4.864,-14.848 0,-7.3387 -2.304,-12.9707 -6.912,-16.896 -4.608,-4.096 -10.667,-6.144 -18.176,-6.144 -3.413,0 -6.656,0.4267 -9.728,1.28 -2.901,0.6827 -5.632,1.6213 -8.192,2.816 -2.389,3.7547 -3.584,7.936 -3.584,12.544 0,7.3387 2.901,13.483 8.704,18.432 5.973,4.949 12.629,9.216 19.968,12.8 z m -4.608,73.472 c 6.827,0 12.885,-1.536 18.176,-4.608 5.291,-3.243 7.936,-8.107 7.936,-14.592 0,-4.779 -1.536,-9.045 -4.608,-12.8 -3.072,-3.755 -7.253,-7.168 -12.544,-10.24 -3.243,-2.048 -6.827,-3.925 -10.752,-5.632 -3.925,-1.707 -7.936,-3.243 -12.032,-4.608 -5.291,3.072 -9.557,6.827 -12.8,11.264 -3.243,4.437 -4.864,9.557 -4.864,15.36 0,5.803 1.536,10.667 4.608,14.592 3.072,3.755 6.997,6.571 11.776,8.448 4.949,1.877 9.984,2.816 15.104,2.816 z"
         fill="#000000"
         id="path1-52" /></g></g></svg>
