<?xml version="1.0" encoding="UTF-8" standalone="no"?>
<svg
   fill="none"
   height="272"
   viewBox="0 0 272 272"
   width="272"
   version="1.1"
   id="svg2"
   xml:space="preserve"
   xmlns="http://www.w3.org/2000/svg"
   xmlns:svg="http://www.w3.org/2000/svg"><defs
     id="defs2" /><g
     id="layer1"
     style="display:inline"><g
       style="display:inline;fill:none"
       id="g4"
       transform="matrix(0.93039634,0,0,0.93577344,-39.183325,12.895191)"><path
         d="m 131.917,195.296 c -8.533,0 -16.725,-1.792 -24.576,-5.376 -7.68,-3.755 -13.9093,-9.557 -18.688,-17.408 -4.7787,-8.021 -7.168,-18.261 -7.168,-30.72 0,-12.459 2.4747,-23.637 7.424,-33.536 5.12,-9.8987 12.117,-17.7493 20.992,-23.552 9.045,-5.8027 19.456,-8.704 31.232,-8.704 8.704,0 16.896,1.8773 24.576,5.632 7.68,3.584 13.909,9.3013 18.688,17.152 4.779,7.851 7.168,18.005 7.168,30.464 0,12.459 -2.56,23.723 -7.68,33.792 -4.949,9.899 -11.861,17.749 -20.736,23.552 -8.875,5.803 -19.285,8.704 -31.232,8.704 z m 5.12,-25.856 c 9.557,-0.171 17.835,-3.243 24.832,-9.216 6.997,-5.973 10.496,-14.336 10.496,-25.088 0,-7.339 -1.792,-13.483 -5.376,-18.432 -3.413,-4.949 -7.936,-8.704 -13.568,-11.264 -5.461,-2.731 -11.349,-4.011 -17.664,-3.84 -9.387,0.171 -17.493,3.328 -24.32,9.472 -6.827,6.144 -10.325,14.336 -10.496,24.576 0,7.509 1.707,13.824 5.12,18.944 3.413,4.949 7.851,8.704 13.312,11.264 5.632,2.389 11.52,3.584 17.664,3.584 z"
         fill="#000000"
         id="path1-3" /></g><g
       style="display:none;fill:none"
       id="g9"
       transform="matrix(0.93926198,0,0,0.96780816,58.20462,8.2056792)"><path
         d="m 130.835,221.007 c -10.24,0 -18.688,-2.474 -25.344,-7.424 -6.485,-5.12 -11.2637,-12.117 -14.3357,-20.992 -3.072,-8.874 -4.7787,-19.029 -5.12,-30.464 -0.3413,-15.53 1.792,-29.952 6.4,-43.264 4.608,-13.482 11.0937,-25.3437 19.4557,-35.5837 8.363,-10.24 17.835,-18.176 28.416,-23.808 4.95,-2.56 10.24,-4.608 15.872,-6.144 5.632,-1.7067 10.667,-2.4747 15.104,-2.304 3.755,0.1706 6.315,1.1093 7.68,2.816 1.366,1.536 2.048,3.84 2.048,6.912 0,2.9013 -0.512,5.9733 -1.536,9.216 -0.853,3.072 -2.133,5.7173 -3.84,7.936 -1.536,2.048 -3.413,3.072 -5.632,3.072 -1.365,0 -2.56,-0.1707 -3.584,-0.512 -0.682,-0.1707 -1.45,-0.256 -2.304,-0.256 -0.853,-0.1707 -1.962,-0.256 -3.328,-0.256 -11.093,0 -21.248,3.7546 -30.464,11.264 -9.216,7.3386 -15.786,17.5787 -19.712,30.7197 4.95,-4.096 10.07,-6.997 15.36,-8.704 5.291,-1.877 10.838,-2.816 16.64,-2.816 12.971,0 23.211,4.267 30.72,12.8 7.68,8.534 11.606,20.395 11.776,35.584 0.171,11.264 -2.048,21.675 -6.656,31.232 -4.437,9.387 -10.752,16.896 -18.944,22.528 -8.192,5.632 -17.749,8.448 -28.672,8.448 z m 6.912,-26.624 c 8.534,0 15.446,-2.645 20.736,-7.936 5.291,-5.461 7.851,-12.458 7.68,-20.992 -0.17,-9.045 -3.157,-16.042 -8.96,-20.992 -5.802,-5.12 -12.97,-7.68 -21.504,-7.68 -5.461,0 -10.666,1.024 -15.616,3.072 -4.778,2.048 -9.301,4.95 -13.568,8.704 -0.682,7.851 0,15.275 2.048,22.272 2.219,6.998 5.803,12.715 10.752,17.152 4.95,4.267 11.094,6.4 18.432,6.4 z"
         fill="#000000"
         id="path1-6" /></g><g
       style="display:inline;fill:none"
       id="g12"
       transform="matrix(0.97791343,0,0,0.9903426,56.52251,5.4132401)"><path
         d="m 99.8338,220.984 c -3.7546,-0.171 -6.4,-1.024 -7.936,-2.56 -1.3653,-1.536 -2.048,-3.755 -2.048,-6.656 0,-3.072 0.4267,-6.229 1.28,-9.472 1.024,-3.243 2.304,-5.973 3.84,-8.192 1.7067,-2.048 3.584,-3.072 5.6322,-3.072 h 1.536 c 0.683,0.171 1.365,0.341 2.048,0.512 0.853,0.171 1.621,0.256 2.304,0.256 0.853,0.171 1.963,0.256 3.328,0.256 11.435,0 21.931,-3.755 31.488,-11.264 9.557,-7.509 16.299,-18.005 20.224,-31.488 -4.949,4.267 -10.069,7.424 -15.36,9.472 -5.12,1.877 -10.667,2.816 -16.64,2.816 -12.971,0 -23.381,-4.267 -31.2322,-12.8 C 90.4472,140.259 86.3512,128.653 86.0098,113.976 85.8392,102.2 87.8872,91.6187 92.1538,82.232 96.5912,72.6747 102.821,65.08 110.842,59.448 118.863,53.816 128.25,51 139.002,51 c 10.411,0 18.944,2.6453 25.6,7.936 6.656,5.12 11.691,12.1173 15.104,20.992 3.413,8.8747 5.205,19.0293 5.376,30.464 0.341,15.36 -1.877,29.781 -6.656,43.264 -4.608,13.312 -11.093,25.003 -19.456,35.072 -8.192,10.24 -17.579,18.261 -28.16,24.064 -4.949,2.56 -10.24,4.608 -15.872,6.144 -5.632,1.536 -10.667,2.219 -15.1042,2.048 z m 35.5842,-85.76 c 5.461,0 10.581,-1.024 15.36,-3.072 4.779,-2.048 9.301,-4.949 13.568,-8.704 1.024,-7.851 0.427,-15.189 -1.792,-22.016 -2.048,-6.9973 -5.547,-12.6293 -10.496,-16.896 -4.949,-4.4373 -11.264,-6.656 -18.944,-6.656 -8.363,0 -15.189,2.816 -20.48,8.448 -5.291,5.632 -7.851,12.6293 -7.68,20.992 0.171,8.704 3.157,15.531 8.96,20.48 5.973,4.949 13.141,7.424 21.504,7.424 z"
         fill="#000000"
         id="path1" /></g></g></svg>
