<svg fill="none" height="272" viewBox="0 0 272 272" width="272" xmlns="http://www.w3.org/2000/svg"><path d="m147.592 195.04c-5.291 0-9.387-1.451-12.288-4.352-2.901-3.072-4.437-8.875-4.608-17.408-.171-7.339.683-16.384 2.56-27.136 1.877-10.923 4.437-23.125 7.68-36.608-4.096 3.243-8.619 6.315-13.568 9.216s-9.301 4.352-13.056 4.352c-4.267 0-7.595-1.707-9.984-5.12-2.219-3.584-3.328-7.509-3.328-11.776 0-3.584.683-6.059 2.048-7.424 1.536-1.3653 3.157-2.1333 4.864-2.304 10.069-.8533 18.432-2.9867 25.088-6.4s12.971-7.3387 18.944-11.776c2.048-1.536 4.011-2.304 5.888-2.304s3.755.5973 5.632 1.792c1.877 1.024 2.816 2.2187 2.816 3.584 0 .6827-.256 1.8773-.768 3.584-.341 1.7067-.853 3.7547-1.536 6.144-1.707 5.632-3.413 13.312-5.12 23.04-1.707 9.557-2.56 20.565-2.56 33.024 0 7.68.768 13.397 2.304 17.152 1.707 3.584 4.779 6.315 9.216 8.192 1.365.512 2.389 1.109 3.072 1.792.683.512 1.024 1.451 1.024 2.816s-.768 3.499-2.304 6.4c-1.365 2.901-3.84 5.547-7.424 7.936-3.413 2.389-8.277 3.584-14.592 3.584z" fill="rgb(0,0,0)"/></svg>