<svg fill="none" height="272" viewBox="0 0 272 272" width="272" xmlns="http://www.w3.org/2000/svg"><g fill="rgb(0,0,0)"><path d="m77.592 195.04c-5.2907 0-9.3867-1.451-12.288-4.352-2.9013-3.072-4.4373-8.875-4.608-17.408-.1707-7.339.6827-16.384 2.56-27.136 1.8773-10.923 4.4373-23.125 7.68-36.608-4.096 3.243-8.6187 6.315-13.568 9.216s-9.3013 4.352-13.056 4.352c-4.2667 0-7.5947-1.707-9.984-5.12-2.2187-3.584-3.328-7.509-3.328-11.776 0-3.584.6827-6.059 2.048-7.424 1.536-1.3653 3.1573-2.1333 4.864-2.304 10.0693-.8533 18.432-2.9867 25.088-6.4s12.9707-7.3387 18.944-11.776c2.048-1.536 4.0107-2.304 5.888-2.304s3.7547.5973 5.632 1.792c1.8773 1.024 2.816 2.2187 2.816 3.584 0 .6827-.256 1.8773-.768 3.584-.3413 1.7067-.8533 3.7547-1.536 6.144-1.7067 5.632-3.4133 13.312-5.12 23.04-1.7067 9.557-2.56 20.565-2.56 33.024 0 7.68.768 13.397 2.304 17.152 1.7067 3.584 4.7787 6.315 9.216 8.192 1.3653.512 2.389 1.109 3.072 1.792.683.512 1.024 1.451 1.024 2.816s-.768 3.499-2.304 6.4c-1.3653 2.901-3.84 5.547-7.424 7.936-3.4133 2.389-8.2773 3.584-14.592 3.584z"/><path d="m181.178 196.064c-8.533 0-16.725-1.792-24.576-5.376-7.68-3.755-13.909-9.557-18.688-17.408-4.779-8.021-7.168-18.261-7.168-30.72s2.475-23.637 7.424-33.536c5.12-9.8987 12.117-17.7493 20.992-23.552 9.045-5.8027 19.456-8.704 31.232-8.704 8.704 0 16.896 1.8773 24.576 5.632 7.68 3.584 13.909 9.3013 18.688 17.152 4.779 7.851 7.168 18.005 7.168 30.464s-2.56 23.723-7.68 33.792c-4.949 9.899-11.861 17.749-20.736 23.552s-19.285 8.704-31.232 8.704zm5.12-25.856c9.557-.171 17.835-3.243 24.832-9.216s10.496-14.336 10.496-25.088c0-7.339-1.792-13.483-5.376-18.432-3.413-4.949-7.936-8.704-13.568-11.264-5.461-2.731-11.349-4.011-17.664-3.84-9.387.171-17.493 3.328-24.32 9.472s-10.325 14.336-10.496 24.576c0 7.509 1.707 13.824 5.12 18.944 3.413 4.949 7.851 8.704 13.312 11.264 5.632 2.389 11.52 3.584 17.664 3.584z"/></g></svg>