<svg fill="none" height="272" viewBox="0 0 272 272" width="272" xmlns="http://www.w3.org/2000/svg"><g fill="rgb(0,0,0)"><path d="m91.592 169.04c-5.2907 0-9.3867-1.451-12.288-4.352-2.9013-3.072-4.4373-8.875-4.608-17.408-.1707-7.339.6827-16.384 2.56-27.136 1.8773-10.923 4.4373-23.1253 7.68-36.608-4.096 3.2427-8.6187 6.3147-13.568 9.216s-9.3013 4.352-13.056 4.352c-4.2667 0-7.5947-1.7067-9.984-5.12-2.2187-3.584-3.328-7.5093-3.328-11.776 0-3.584.6827-6.0587 2.048-7.424 1.536-1.3653 3.1573-2.1333 4.864-2.304 10.0693-.8533 18.432-2.9867 25.088-6.4s12.9707-7.3387 18.944-11.776c2.048-1.536 4.0107-2.304 5.888-2.304 1.877 0 3.755.5973 5.632 1.792 1.877 1.024 2.816 2.2187 2.816 3.584 0 .6827-.256 1.8773-.768 3.584-.341 1.7067-.853 3.7547-1.536 6.144-1.707 5.632-3.413 13.312-5.12 23.04-1.707 9.5573-2.56 20.565-2.56 33.024 0 7.68.768 13.397 2.304 17.152 1.707 3.584 4.779 6.315 9.216 8.192 1.365.512 2.389 1.109 3.072 1.792.683.512 1.024 1.451 1.024 2.816s-.768 3.499-2.304 6.4c-1.365 2.901-3.84 5.547-7.424 7.936-3.413 2.389-8.2773 3.584-14.592 3.584z"/><path d="m164.97 221.776c-10.923 0-20.224-2.475-27.904-7.424-7.68-4.779-11.52-11.691-11.52-20.736 0-6.485 1.536-11.093 4.608-13.824 3.072-2.56 5.803-3.84 8.192-3.84 1.365 0 2.56.427 3.584 1.28 1.195 1.024 2.475 2.475 3.84 4.352 2.219 2.731 5.888 5.547 11.008 8.448 5.12 3.072 11.861 4.608 20.224 4.608 9.045 0 16.384-1.963 22.016-5.888 5.803-3.925 8.704-9.472 8.704-16.64 0-5.632-1.621-10.069-4.864-13.312-3.072-3.243-6.571-5.717-10.496-7.424-5.461-2.048-11.605-3.499-18.432-4.352-1.365-.171-2.56-.512-3.584-1.024-1.024-.683-1.963-2.048-2.816-4.096-1.536-3.413-2.304-6.827-2.304-10.24 0-1.877.512-3.413 1.536-4.608s2.389-2.219 4.096-3.072c3.413-1.536 7.253-3.499 11.52-5.888 4.437-2.56 8.192-5.717 11.264-9.472 3.243-3.755 4.864-8.363 4.864-13.824 0-6.3147-2.219-10.6667-6.656-13.056-4.267-2.56-9.131-3.84-14.592-3.84s-10.411.9387-14.848 2.816c-4.437 1.7067-7.851 3.2427-10.24 4.608-3.072 2.048-5.376 3.072-6.912 3.072-2.389 0-4.096-1.28-5.12-3.84s-1.536-4.9493-1.536-7.168c0-2.9013.768-5.7173 2.304-8.448 1.707-2.9013 4.523-5.632 8.448-8.192 5.461-3.9253 11.179-6.5707 17.152-7.936 6.144-1.3653 11.947-2.048 17.408-2.048 12.629 0 22.443 3.1573 29.44 9.472 6.997 6.144 10.496 14.2507 10.496 24.32 0 8.5333-2.389 16.469-7.168 23.808s-10.496 13.056-17.152 17.152c8.875 2.389 15.701 6.827 20.48 13.312 4.949 6.485 7.424 14.763 7.424 24.832 0 11.093-2.816 20.992-8.448 29.696-5.461 8.875-12.885 15.787-22.272 20.736-9.387 5.12-19.968 7.68-31.744 7.68z"/></g></svg>