<svg fill="none" height="272" viewBox="0 0 272 272" width="272" xmlns="http://www.w3.org/2000/svg"><g fill="rgb(0,0,0)"><path d="m83.592 219.983c-5.2907 0-9.3867-1.45-12.288-4.352-2.9013-3.072-4.4373-8.874-4.608-17.408-.1707-7.338.6827-16.384 2.56-27.136 1.8773-10.922 4.4373-23.125 7.68-36.608-4.096 3.243-8.6187 6.315-13.568 9.216-4.9493 2.902-9.3013 4.352-13.056 4.352-4.2667 0-7.5947-1.706-9.984-5.12-2.2187-3.584-3.328-7.509-3.328-11.776 0-3.584.6827-6.058 2.048-7.424 1.536-1.365 3.1573-2.133 4.864-2.304 10.0693-.853 18.432-2.986 25.088-6.4 6.656-3.413 12.9707-7.338 18.944-11.776 2.048-1.536 4.0107-2.304 5.888-2.304s3.7547.598 5.632 1.792c1.877 1.024 2.816 2.219 2.816 3.584 0 .683-.256 1.878-.768 3.584-.341 1.707-.853 3.755-1.536 6.144-1.7067 5.632-3.4133 13.312-5.12 23.04-1.7067 9.558-2.56 20.566-2.56 33.024 0 7.68.768 13.398 2.304 17.152 1.7067 3.584 4.7787 6.315 9.216 8.192 1.365.512 2.389 1.11 3.072 1.792.683.512 1.024 1.451 1.024 2.816 0 1.366-.768 3.499-2.304 6.4-1.365 2.902-3.84 5.547-7.424 7.936-3.4133 2.39-8.2773 3.584-14.592 3.584z"/><path d="m180.266 221.007c-10.24 0-18.688-2.474-25.344-7.424-6.485-5.12-11.264-12.117-14.336-20.992-3.072-8.874-4.779-19.029-5.12-30.464-.341-15.53 1.792-29.952 6.4-43.264 4.608-13.482 11.093-25.3437 19.456-35.5837s17.835-18.176 28.416-23.808c4.949-2.56 10.24-4.608 15.872-6.144 5.632-1.7067 10.667-2.4747 15.104-2.304 3.755.1706 6.315 1.1093 7.68 2.816 1.365 1.536 2.048 3.84 2.048 6.912 0 2.9013-.512 5.9733-1.536 9.216-.853 3.072-2.133 5.7173-3.84 7.936-1.536 2.048-3.413 3.072-5.632 3.072-1.365 0-2.56-.1707-3.584-.512-.683-.1707-1.451-.256-2.304-.256-.853-.1707-1.963-.256-3.328-.256-11.093 0-21.248 3.7546-30.464 11.264-9.216 7.3386-15.787 17.5787-19.712 30.7197 4.949-4.096 10.069-6.997 15.36-8.704 5.291-1.877 10.837-2.816 16.64-2.816 12.971 0 23.211 4.267 30.72 12.8 7.68 8.534 11.605 20.395 11.776 35.584.171 11.264-2.048 21.675-6.656 31.232-4.437 9.387-10.752 16.896-18.944 22.528s-17.749 8.448-28.672 8.448zm6.912-26.624c8.533 0 15.445-2.645 20.736-7.936 5.291-5.461 7.851-12.458 7.68-20.992-.171-9.045-3.157-16.042-8.96-20.992-5.803-5.12-12.971-7.68-21.504-7.68-5.461 0-10.667 1.024-15.616 3.072-4.779 2.048-9.301 4.95-13.568 8.704-.683 7.851 0 15.275 2.048 22.272 2.219 6.998 5.803 12.715 10.752 17.152 4.949 4.267 11.093 6.4 18.432 6.4z"/></g></svg>