<svg fill="none" height="272" viewBox="0 0 272 272" width="272" xmlns="http://www.w3.org/2000/svg"><g fill="rgb(0,0,0)"><path d="m84.592 170.064c-5.2907 0-9.3867-1.451-12.288-4.352-2.9013-3.072-4.4373-8.875-4.608-17.408-.1707-7.339.6827-16.384 2.56-27.136 1.8773-10.923 4.4373-23.1253 7.68-36.608-4.096 3.2427-8.6187 6.3147-13.568 9.216s-9.3013 4.352-13.056 4.352c-4.2667 0-7.5947-1.7067-9.984-5.12-2.2187-3.584-3.328-7.5093-3.328-11.776 0-3.584.6827-6.0587 2.048-7.424 1.536-1.3653 3.1573-2.1333 4.864-2.304 10.0693-.8533 18.432-2.9867 25.088-6.4s12.9707-7.3387 18.944-11.776c2.048-1.536 4.0107-2.304 5.888-2.304s3.7547.5973 5.632 1.792c1.877 1.024 2.816 2.2187 2.816 3.584 0 .6827-.256 1.8773-.768 3.584-.341 1.7067-.853 3.7547-1.536 6.144-1.7067 5.632-3.4133 13.312-5.12 23.04-1.7067 9.5573-2.56 20.565-2.56 33.024 0 7.68.768 13.397 2.304 17.152 1.7067 3.584 4.779 6.315 9.216 8.192 1.365.512 2.389 1.109 3.072 1.792.683.512 1.024 1.451 1.024 2.816s-.768 3.499-2.304 6.4c-1.365 2.901-3.84 5.547-7.424 7.936-3.4133 2.389-8.2773 3.584-14.592 3.584z"/><path d="m158.994 222.032c-4.949 0-8.704-1.365-11.264-4.096-2.56-2.56-3.84-6.827-3.84-12.8 0-7.339 1.024-14.848 3.072-22.528 2.048-7.509 4.779-15.189 8.192-23.04 5.973-13.312 13.397-27.136 22.272-41.472 8.875-14.507 18.091-27.7333 27.648-39.68-5.803.8533-12.203 1.6213-19.2 2.304-6.827.512-13.653.9387-20.48 1.28-6.656.1707-12.544.256-17.664.256-3.755 0-6.912-.0853-9.472-.256-2.56-.3413-4.779-.9387-6.656-1.792-3.243-1.536-4.864-5.12-4.864-10.752 0-5.12.853-9.6427 2.56-13.568 1.877-3.9253 4.181-5.888 6.912-5.888.512 0 1.195.0853 2.048.256s2.219.512 4.096 1.024c6.827 1.7067 13.568 2.816 20.224 3.328s13.909.768 21.76.768c7.339 0 13.909-.256 19.712-.768s10.496-.9387 14.08-1.28c3.584-.512 5.888-.768 6.912-.768 2.389 0 4.352 1.28 5.888 3.84 1.536 2.3893 2.304 4.5227 2.304 6.4 0 2.048-.683 4.096-2.048 6.144-10.411 14.848-20.053 29.8667-28.928 45.056-8.875 15.019-15.701 28.416-20.48 40.192-2.048 5.291-3.669 10.24-4.864 14.848-1.024 4.608-1.536 8.875-1.536 12.8 0 3.755.512 6.741 1.536 8.96s2.133 4.267 3.328 6.144c.853 1.536 1.621 2.901 2.304 4.096.683 1.365 1.024 2.731 1.024 4.096 0 2.219-1.024 4.608-3.072 7.168-2.048 2.731-4.949 5.035-8.704 6.912-3.584 1.877-7.851 2.816-12.8 2.816z"/></g></svg>