<svg fill="none" height="272" viewBox="0 0 272 272" width="272" xmlns="http://www.w3.org/2000/svg"><g fill="rgb(0,0,0)"><path d="m84.592 170.04c-5.2907 0-9.3867-1.451-12.288-4.352-2.9013-3.072-4.4373-8.875-4.608-17.408-.1707-7.339.6827-16.384 2.56-27.136 1.8773-10.923 4.4373-23.1253 7.68-36.608-4.096 3.2427-8.6187 6.3147-13.568 9.216s-9.3013 4.352-13.056 4.352c-4.2667 0-7.5947-1.7067-9.984-5.12-2.2187-3.584-3.328-7.5093-3.328-11.776 0-3.584.6827-6.0587 2.048-7.424 1.536-1.3653 3.1573-2.1333 4.864-2.304 10.0693-.8533 18.432-2.9867 25.088-6.4s12.9707-7.3387 18.944-11.776c2.048-1.536 4.0107-2.304 5.888-2.304s3.7547.5973 5.632 1.792c1.877 1.024 2.816 2.2187 2.816 3.584 0 .6827-.256 1.8773-.768 3.584-.341 1.7067-.853 3.7547-1.536 6.144-1.7067 5.632-3.4133 13.312-5.12 23.04-1.7067 9.5573-2.56 20.565-2.56 33.024 0 7.68.768 13.397 2.304 17.152 1.7067 3.584 4.779 6.315 9.216 8.192 1.365.512 2.389 1.109 3.072 1.792.683.512 1.024 1.451 1.024 2.816s-.768 3.499-2.304 6.4c-1.365 2.901-3.84 5.547-7.424 7.936-3.4133 2.389-8.2773 3.584-14.592 3.584z"/><path d="m149.266 221.752c-3.755-.171-6.4-1.024-7.936-2.56-1.365-1.536-2.048-3.755-2.048-6.656 0-3.072.427-6.229 1.28-9.472 1.024-3.243 2.304-5.973 3.84-8.192 1.707-2.048 3.584-3.072 5.632-3.072h1.536c.683.171 1.365.341 2.048.512.853.171 1.621.256 2.304.256.853.171 1.963.256 3.328.256 11.435 0 21.931-3.755 31.488-11.264s16.299-18.005 20.224-31.488c-4.949 4.267-10.069 7.424-15.36 9.472-5.12 1.877-10.667 2.816-16.64 2.816-12.971 0-23.381-4.267-31.232-12.8s-11.947-20.139-12.288-34.816c-.171-11.776 1.877-22.3573 6.144-31.744 4.437-9.5573 10.667-17.152 18.688-22.784s17.408-8.448 28.16-8.448c10.411 0 18.944 2.6453 25.6 7.936 6.656 5.12 11.691 12.1173 15.104 20.992s5.205 19.0293 5.376 30.464c.341 15.36-1.877 29.781-6.656 43.264-4.608 13.312-11.093 25.003-19.456 35.072-8.192 10.24-17.579 18.261-28.16 24.064-4.949 2.56-10.24 4.608-15.872 6.144s-10.667 2.219-15.104 2.048zm35.584-85.76c5.461 0 10.581-1.024 15.36-3.072s9.301-4.949 13.568-8.704c1.024-7.851.427-15.189-1.792-22.016-2.048-6.9973-5.547-12.6293-10.496-16.896-4.949-4.4373-11.264-6.656-18.944-6.656-8.363 0-15.189 2.816-20.48 8.448s-7.851 12.6293-7.68 20.992c.171 8.704 3.157 15.531 8.96 20.48 5.973 4.949 13.141 7.424 21.504 7.424z"/></g></svg>