<svg fill="none" height="272" viewBox="0 0 272 272" width="272" xmlns="http://www.w3.org/2000/svg"><g fill="rgb(0,0,0)"><path d="m66.104 194.272c-11.4347 0-21.0773-.683-28.928-2.048-7.68-1.195-12.7147-3.669-15.104-7.424-.6827-1.024-1.3653-2.56-2.048-4.608s-1.024-3.925-1.024-5.632c0-5.291 2.304-8.789 6.912-10.496 7.68-3.755 15.104-7.68 22.272-11.776s13.7387-8.789 19.712-14.08c10.4107-9.045 15.616-16.981 15.616-23.808 0-3.413-1.3653-6.144-4.096-8.192s-6.656-3.072-11.776-3.072c-3.9253 0-8.192.512-12.8 1.536-4.4373 1.024-8.3627 2.475-11.776 4.352-2.048 1.195-3.9253 2.219-5.632 3.072-1.536.683-2.9867 1.024-4.352 1.024-2.2187 0-3.9253-1.109-5.12-3.328s-1.792-4.608-1.792-7.168c0-2.9013.768-5.7173 2.304-8.448 1.7067-2.9013 4.6933-5.7173 8.96-8.448 4.4373-2.9013 9.6427-5.2053 15.616-6.912 6.144-1.8773 12.6293-2.816 19.456-2.816 10.752 0 19.456 2.6453 26.112 7.936 6.827 5.12 10.24 12.2027 10.24 21.248 0 5.803-1.28 11.435-3.84 16.896-2.56 5.291-5.8027 10.155-9.728 14.592-5.8027 6.827-12.6293 12.885-20.48 18.176s-15.4453 9.643-22.784 13.056c2.9013.171 6.4853.341 10.752.512h10.24c10.0693 0 17.2373-.853 21.504-2.56 4.2667-1.877 7.509-4.011 9.728-6.4 2.048-2.219 3.755-3.328 5.12-3.328 1.877 0 3.755 1.365 5.632 4.096 2.048 2.56 3.072 6.144 3.072 10.752 0 8.875-4.352 15.019-13.056 18.432-8.5333 3.243-21.504 4.864-38.912 4.864z"/><path d="m193.708 195.296c-8.533 0-16.725-1.792-24.576-5.376-7.68-3.755-13.909-9.557-18.688-17.408-4.779-8.021-7.168-18.261-7.168-30.72s2.475-23.637 7.424-33.536c5.12-9.8987 12.117-17.7493 20.992-23.552 9.045-5.8027 19.456-8.704 31.232-8.704 8.704 0 16.896 1.8773 24.576 5.632 7.68 3.584 13.909 9.3013 18.688 17.152 4.779 7.851 7.168 18.005 7.168 30.464s-2.56 23.723-7.68 33.792c-4.949 9.899-11.861 17.749-20.736 23.552s-19.285 8.704-31.232 8.704zm5.12-25.856c9.557-.171 17.835-3.243 24.832-9.216s10.496-14.336 10.496-25.088c0-7.339-1.792-13.483-5.376-18.432-3.413-4.949-7.936-8.704-13.568-11.264-5.461-2.731-11.349-4.011-17.664-3.84-9.387.171-17.493 3.328-24.32 9.472s-10.325 14.336-10.496 24.576c0 7.509 1.707 13.824 5.12 18.944 3.413 4.949 7.851 8.704 13.312 11.264 5.632 2.389 11.52 3.584 17.664 3.584z"/></g></svg>