<svg fill="none" height="272" viewBox="0 0 272 272" width="272" xmlns="http://www.w3.org/2000/svg"><g fill="rgb(0,0,0)"><path d="m77.104 195.272c-11.4347 0-21.0773-.683-28.928-2.048-7.68-1.195-12.7147-3.669-15.104-7.424-.6827-1.024-1.3653-2.56-2.048-4.608s-1.024-3.925-1.024-5.632c0-5.291 2.304-8.789 6.912-10.496 7.68-3.755 15.104-7.68 22.272-11.776s13.7387-8.789 19.712-14.08c10.4107-9.045 15.616-16.981 15.616-23.808 0-3.413-1.3653-6.144-4.096-8.192s-6.656-3.072-11.776-3.072c-3.9253 0-8.192.512-12.8 1.536-4.4373 1.024-8.3627 2.475-11.776 4.352-2.048 1.195-3.9253 2.219-5.632 3.072-1.536.683-2.9867 1.024-4.352 1.024-2.2187 0-3.9253-1.109-5.12-3.328s-1.792-4.608-1.792-7.168c0-2.901.768-5.7173 2.304-8.448 1.7067-2.9013 4.6933-5.7173 8.96-8.448 4.4373-2.9013 9.6427-5.2053 15.616-6.912 6.144-1.8773 12.6293-2.816 19.456-2.816 10.752 0 19.456 2.6453 26.112 7.936 6.827 5.12 10.24 12.2027 10.24 21.248 0 5.803-1.28 11.435-3.84 16.896-2.56 5.291-5.803 10.155-9.728 14.592-5.803 6.827-12.6293 12.885-20.48 18.176s-15.4453 9.643-22.784 13.056c2.9013.171 6.4853.341 10.752.512h10.24c10.0693 0 17.237-.853 21.504-2.56 4.267-1.877 7.509-4.011 9.728-6.4 2.048-2.219 3.755-3.328 5.12-3.328 1.877 0 3.755 1.365 5.632 4.096 2.048 2.56 3.072 6.144 3.072 10.752 0 8.875-4.352 15.019-13.056 18.432-8.533 3.243-21.504 4.864-38.912 4.864z"/><path d="m189.604 195.272c-11.435 0-21.077-.683-28.928-2.048-7.68-1.195-12.715-3.669-15.104-7.424-.683-1.024-1.365-2.56-2.048-4.608s-1.024-3.925-1.024-5.632c0-5.291 2.304-8.789 6.912-10.496 7.68-3.755 15.104-7.68 22.272-11.776s13.739-8.789 19.712-14.08c10.411-9.045 15.616-16.981 15.616-23.808 0-3.413-1.365-6.144-4.096-8.192s-6.656-3.072-11.776-3.072c-3.925 0-8.192.512-12.8 1.536-4.437 1.024-8.363 2.475-11.776 4.352-2.048 1.195-3.925 2.219-5.632 3.072-1.536.683-2.987 1.024-4.352 1.024-2.219 0-3.925-1.109-5.12-3.328s-1.792-4.608-1.792-7.168c0-2.901.768-5.7173 2.304-8.448 1.707-2.9013 4.693-5.7173 8.96-8.448 4.437-2.9013 9.643-5.2053 15.616-6.912 6.144-1.8773 12.629-2.816 19.456-2.816 10.752 0 19.456 2.6453 26.112 7.936 6.827 5.12 10.24 12.2027 10.24 21.248 0 5.803-1.28 11.435-3.84 16.896-2.56 5.291-5.803 10.155-9.728 14.592-5.803 6.827-12.629 12.885-20.48 18.176s-15.445 9.643-22.784 13.056c2.901.171 6.485.341 10.752.512h10.24c10.069 0 17.237-.853 21.504-2.56 4.267-1.877 7.509-4.011 9.728-6.4 2.048-2.219 3.755-3.328 5.12-3.328 1.877 0 3.755 1.365 5.632 4.096 2.048 2.56 3.072 6.144 3.072 10.752 0 8.875-4.352 15.019-13.056 18.432-8.533 3.243-21.504 4.864-38.912 4.864z"/></g></svg>