<svg fill="none" height="272" viewBox="0 0 272 272" width="272" xmlns="http://www.w3.org/2000/svg"><g fill="rgb(0,0,0)"><path d="m70.104 169.04c-11.4347 0-21.0773-.683-28.928-2.048-7.68-1.195-12.7147-3.669-15.104-7.424-.6827-1.024-1.3653-2.56-2.048-4.608s-1.024-3.925-1.024-5.632c0-5.291 2.304-8.789 6.912-10.496 7.68-3.755 15.104-7.68 22.272-11.776s13.7387-8.789 19.712-14.08c10.4107-9.045 15.616-16.9813 15.616-23.808 0-3.4133-1.3653-6.144-4.096-8.192s-6.656-3.072-11.776-3.072c-3.9253 0-8.192.512-12.8 1.536-4.4373 1.024-8.3627 2.4747-11.776 4.352-2.048 1.1947-3.9253 2.2187-5.632 3.072-1.536.6827-2.9867 1.024-4.352 1.024-2.2187 0-3.9253-1.1093-5.12-3.328s-1.792-4.608-1.792-7.168c0-2.9013.768-5.7173 2.304-8.448 1.7067-2.9013 4.6933-5.7173 8.96-8.448 4.4373-2.9013 9.6427-5.2053 15.616-6.912 6.144-1.8773 12.6293-2.816 19.456-2.816 10.752 0 19.456 2.6453 26.112 7.936 6.827 5.12 10.24 12.2027 10.24 21.248 0 5.8027-1.28 11.4347-3.84 16.896-2.56 5.291-5.803 10.155-9.728 14.592-5.8027 6.827-12.6293 12.885-20.48 18.176s-15.4453 9.643-22.784 13.056c2.9013.171 6.4853.341 10.752.512h10.24c10.0693 0 17.2373-.853 21.504-2.56 4.267-1.877 7.509-4.011 9.728-6.4 2.048-2.219 3.755-3.328 5.12-3.328 1.877 0 3.755 1.365 5.632 4.096 2.048 2.56 3.072 6.144 3.072 10.752 0 8.875-4.352 15.019-13.056 18.432-8.533 3.243-21.504 4.864-38.912 4.864z"/><path d="m211.532 221.264c-4.779 0-8.533-1.365-11.264-4.096s-4.181-7.765-4.352-15.104c0-3.925.256-8.96.768-15.104.512-5.973 1.28-11.776 2.304-17.408h-45.824c-6.144 0-10.837-1.707-14.08-5.12-3.072-3.584-4.608-7.595-4.608-12.032 0-2.731.512-5.547 1.536-8.448s2.389-5.973 4.096-9.216c4.949-9.899 11.179-19.541 18.688-28.928 7.68-9.5573 15.616-18.3467 23.808-26.368s15.616-14.592 22.272-19.712c4.267-3.072 7.936-5.4613 11.008-7.168s5.973-2.56 8.704-2.56c3.584 0 5.888 1.3653 6.912 4.096 1.195 2.7307 1.792 6.4853 1.792 11.264 0 7.3387-.683 16.128-2.048 26.368-1.195 10.24-2.56 20.395-4.096 30.464-.341 2.901-.683 5.888-1.024 8.96s-.683 6.315-1.024 9.728c2.219-.171 4.608-.256 7.168-.256 2.731-.171 5.717-.256 8.96-.256 1.877 0 3.584.427 5.12 1.28 1.707.683 2.56 2.389 2.56 5.12s-.768 5.888-2.304 9.472c-1.365 3.413-3.243 6.485-5.632 9.216-2.219 2.56-4.608 3.84-7.168 3.84h-13.056v5.632c0 5.12.597 9.899 1.792 14.336s3.84 7.595 7.936 9.472c2.389 1.024 3.584 2.56 3.584 4.608 0 1.536-.683 3.669-2.048 6.4-1.365 2.901-3.669 5.547-6.912 7.936s-7.765 3.584-13.568 3.584zm-43.776-78.08 35.072-1.792c.512-3.072 1.109-6.997 1.792-11.776.683-4.949 1.365-9.899 2.048-14.848.683-5.12 1.195-9.728 1.536-13.824.512-4.2667.768-7.3387.768-9.216 0-2.7307-.768-4.096-2.304-4.096-1.365 0-3.328.8533-5.888 2.56-6.144 4.4373-12.885 10.155-20.224 17.152s-13.824 15.531-19.456 25.6c-1.024 1.536-1.536 3.072-1.536 4.608 0 1.877.768 3.328 2.304 4.352s3.499 1.451 5.888 1.28z"/></g></svg>