<svg fill="none" height="272" viewBox="0 0 272 272" width="272" xmlns="http://www.w3.org/2000/svg"><g fill="rgb(0,0,0)"><path d="m72.104 219.983c-11.4347 0-21.0773-.682-28.928-2.048-7.68-1.194-12.7147-3.669-15.104-7.424-.6827-1.024-1.3653-2.56-2.048-4.608s-1.024-3.925-1.024-5.632c0-5.29 2.304-8.789 6.912-10.496 7.68-3.754 15.104-7.68 22.272-11.776s13.7387-8.789 19.712-14.08c10.4107-9.045 15.616-16.981 15.616-23.808 0-3.413-1.3653-6.144-4.096-8.192s-6.656-3.072-11.776-3.072c-3.9253 0-8.192.512-12.8 1.536-4.4373 1.024-8.3627 2.475-11.776 4.352-2.048 1.195-3.9253 2.219-5.632 3.072-1.536.683-2.9867 1.024-4.352 1.024-2.2187 0-3.9253-1.109-5.12-3.328-1.1947-2.218-1.792-4.608-1.792-7.168 0-2.901.768-5.717 2.304-8.448 1.7067-2.901 4.6933-5.717 8.96-8.448 4.4373-2.901 9.6427-5.205 15.616-6.912 6.144-1.877 12.6293-2.816 19.456-2.816 10.752 0 19.456 2.646 26.112 7.936 6.827 5.12 10.24 12.203 10.24 21.248 0 5.803-1.28 11.435-3.84 16.896-2.56 5.291-5.803 10.155-9.728 14.592-5.8027 6.827-12.6293 12.886-20.48 18.176-7.8507 5.291-15.4453 9.643-22.784 13.056 2.9013.171 6.4853.342 10.752.512h10.24c10.0693 0 17.2373-.853 21.504-2.56 4.267-1.877 7.509-4.01 9.728-6.4 2.048-2.218 3.755-3.328 5.12-3.328 1.877 0 3.755 1.366 5.632 4.096 2.048 2.56 3.072 6.144 3.072 10.752 0 8.875-4.352 15.019-13.056 18.432-8.533 3.243-21.504 4.864-38.912 4.864z"/><path d="m192.796 221.007c-10.24 0-18.688-2.474-25.344-7.424-6.485-5.12-11.264-12.117-14.336-20.992-3.072-8.874-4.779-19.029-5.12-30.464-.341-15.53 1.792-29.952 6.4-43.264 4.608-13.482 11.093-25.3437 19.456-35.5837s17.835-18.176 28.416-23.808c4.949-2.56 10.24-4.608 15.872-6.144 5.632-1.7067 10.667-2.4747 15.104-2.304 3.755.1706 6.315 1.1093 7.68 2.816 1.365 1.536 2.048 3.84 2.048 6.912 0 2.9013-.512 5.9733-1.536 9.216-.853 3.072-2.133 5.7173-3.84 7.936-1.536 2.048-3.413 3.072-5.632 3.072-1.365 0-2.56-.1707-3.584-.512-.683-.1707-1.451-.256-2.304-.256-.853-.1707-1.963-.256-3.328-.256-11.093 0-21.248 3.7546-30.464 11.264-9.216 7.3386-15.787 17.5787-19.712 30.7197 4.949-4.096 10.069-6.997 15.36-8.704 5.291-1.877 10.837-2.816 16.64-2.816 12.971 0 23.211 4.267 30.72 12.8 7.68 8.534 11.605 20.395 11.776 35.584.171 11.264-2.048 21.675-6.656 31.232-4.437 9.387-10.752 16.896-18.944 22.528s-17.749 8.448-28.672 8.448zm6.912-26.624c8.533 0 15.445-2.645 20.736-7.936 5.291-5.461 7.851-12.458 7.68-20.992-.171-9.045-3.157-16.042-8.96-20.992-5.803-5.12-12.971-7.68-21.504-7.68-5.461 0-10.667 1.024-15.616 3.072-4.779 2.048-9.301 4.95-13.568 8.704-.683 7.851 0 15.275 2.048 22.272 2.219 6.998 5.803 12.715 10.752 17.152 4.949 4.267 11.093 6.4 18.432 6.4z"/></g></svg>