<svg fill="none" height="272" viewBox="0 0 272 272" width="272" xmlns="http://www.w3.org/2000/svg"><g fill="rgb(0,0,0)"><path d="m72.063 170.064c-11.4347 0-21.0773-.683-28.928-2.048-7.68-1.195-12.7147-3.669-15.104-7.424-.6827-1.024-1.3653-2.56-2.048-4.608s-1.024-3.925-1.024-5.632c0-5.291 2.304-8.789 6.912-10.496 7.68-3.755 15.104-7.68 22.272-11.776s13.7387-8.789 19.712-14.08c10.4107-9.045 15.616-16.9813 15.616-23.808 0-3.4133-1.3653-6.144-4.096-8.192s-6.656-3.072-11.776-3.072c-3.9253 0-8.192.512-12.8 1.536-4.4373 1.024-8.3627 2.4747-11.776 4.352-2.048 1.1947-3.9253 2.2187-5.632 3.072-1.536.6827-2.9867 1.024-4.352 1.024-2.2187 0-3.9253-1.1093-5.12-3.328s-1.792-4.608-1.792-7.168c0-2.9013.768-5.7173 2.304-8.448 1.7067-2.9013 4.6933-5.7173 8.96-8.448 4.4373-2.9013 9.6427-5.2053 15.616-6.912 6.144-1.8773 12.6293-2.816 19.456-2.816 10.752 0 19.456 2.6453 26.112 7.936 6.827 5.12 10.24 12.2027 10.24 21.248 0 5.8027-1.28 11.4347-3.84 16.896-2.56 5.291-5.803 10.155-9.728 14.592-5.8027 6.827-12.6293 12.885-20.48 18.176s-15.4453 9.643-22.784 13.056c2.9013.171 6.4853.341 10.752.512h10.24c10.0693 0 17.2373-.853 21.504-2.56 4.267-1.877 7.509-4.011 9.728-6.4 2.048-2.219 3.755-3.328 5.12-3.328 1.877 0 3.755 1.365 5.632 4.096 2.048 2.56 3.072 6.144 3.072 10.752 0 8.875-4.352 15.019-13.056 18.432-8.533 3.243-21.504 4.864-38.912 4.864z"/><path d="m170.483 222.032c-4.949 0-8.704-1.365-11.264-4.096-2.56-2.56-3.84-6.827-3.84-12.8 0-7.339 1.024-14.848 3.072-22.528 2.048-7.509 4.779-15.189 8.192-23.04 5.973-13.312 13.397-27.136 22.272-41.472 8.875-14.507 18.091-27.7333 27.648-39.68-5.803.8533-12.203 1.6213-19.2 2.304-6.827.512-13.653.9387-20.48 1.28-6.656.1707-12.544.256-17.664.256-3.755 0-6.912-.0853-9.472-.256-2.56-.3413-4.779-.9387-6.656-1.792-3.243-1.536-4.864-5.12-4.864-10.752 0-5.12.853-9.6427 2.56-13.568 1.877-3.9253 4.181-5.888 6.912-5.888.512 0 1.195.0853 2.048.256s2.219.512 4.096 1.024c6.827 1.7067 13.568 2.816 20.224 3.328s13.909.768 21.76.768c7.339 0 13.909-.256 19.712-.768s10.496-.9387 14.08-1.28c3.584-.512 5.888-.768 6.912-.768 2.389 0 4.352 1.28 5.888 3.84 1.536 2.3893 2.304 4.5227 2.304 6.4 0 2.048-.683 4.096-2.048 6.144-10.411 14.848-20.053 29.8667-28.928 45.056-8.875 15.019-15.701 28.416-20.48 40.192-2.048 5.291-3.669 10.24-4.864 14.848-1.024 4.608-1.536 8.875-1.536 12.8 0 3.755.512 6.741 1.536 8.96s2.133 4.267 3.328 6.144c.853 1.536 1.621 2.901 2.304 4.096.683 1.365 1.024 2.731 1.024 4.096 0 2.219-1.024 4.608-3.072 7.168-2.048 2.731-4.949 5.035-8.704 6.912-3.584 1.877-7.851 2.816-12.8 2.816z"/></g></svg>