<svg fill="none" height="272" viewBox="0 0 272 272" width="272" xmlns="http://www.w3.org/2000/svg"><g fill="rgb(0,0,0)"><path d="m72.104 169.272c-11.4347 0-21.0773-.683-28.928-2.048-7.68-1.195-12.7147-3.669-15.104-7.424-.6827-1.024-1.3653-2.56-2.048-4.608s-1.024-3.925-1.024-5.632c0-5.291 2.304-8.789 6.912-10.496 7.68-3.755 15.104-7.68 22.272-11.776s13.7387-8.789 19.712-14.08c10.4107-9.045 15.616-16.9813 15.616-23.808 0-3.4133-1.3653-6.144-4.096-8.192s-6.656-3.072-11.776-3.072c-3.9253 0-8.192.512-12.8 1.536-4.4373 1.024-8.3627 2.4747-11.776 4.352-2.048 1.1947-3.9253 2.2187-5.632 3.072-1.536.6827-2.9867 1.024-4.352 1.024-2.2187 0-3.9253-1.1093-5.12-3.328s-1.792-4.608-1.792-7.168c0-2.9013.768-5.7173 2.304-8.448 1.7067-2.9013 4.6933-5.7173 8.96-8.448 4.4373-2.9013 9.6427-5.2053 15.616-6.912 6.144-1.8773 12.6293-2.816 19.456-2.816 10.752 0 19.456 2.6453 26.112 7.936 6.827 5.12 10.24 12.2027 10.24 21.248 0 5.8027-1.28 11.4347-3.84 16.896-2.56 5.291-5.803 10.155-9.728 14.592-5.8027 6.827-12.6293 12.885-20.48 18.176s-15.4453 9.643-22.784 13.056c2.9013.171 6.4853.341 10.752.512h10.24c10.0693 0 17.2373-.853 21.504-2.56 4.267-1.877 7.509-4.011 9.728-6.4 2.048-2.219 3.755-3.328 5.12-3.328 1.877 0 3.755 1.365 5.632 4.096 2.048 2.56 3.072 6.144 3.072 10.752 0 8.875-4.352 15.019-13.056 18.432-8.533 3.243-21.504 4.864-38.912 4.864z"/><path d="m160.796 220.984c-3.755-.171-6.4-1.024-7.936-2.56-1.365-1.536-2.048-3.755-2.048-6.656 0-3.072.427-6.229 1.28-9.472 1.024-3.243 2.304-5.973 3.84-8.192 1.707-2.048 3.584-3.072 5.632-3.072h1.536c.683.171 1.365.341 2.048.512.853.171 1.621.256 2.304.256.853.171 1.963.256 3.328.256 11.435 0 21.931-3.755 31.488-11.264s16.299-18.005 20.224-31.488c-4.949 4.267-10.069 7.424-15.36 9.472-5.12 1.877-10.667 2.816-16.64 2.816-12.971 0-23.381-4.267-31.232-12.8s-11.947-20.139-12.288-34.816c-.171-11.776 1.877-22.3573 6.144-31.744 4.437-9.5573 10.667-17.152 18.688-22.784s17.408-8.448 28.16-8.448c10.411 0 18.944 2.6453 25.6 7.936 6.656 5.12 11.691 12.1173 15.104 20.992s5.205 19.0293 5.376 30.464c.341 15.36-1.877 29.781-6.656 43.264-4.608 13.312-11.093 25.003-19.456 35.072-8.192 10.24-17.579 18.261-28.16 24.064-4.949 2.56-10.24 4.608-15.872 6.144s-10.667 2.219-15.104 2.048zm35.584-85.76c5.461 0 10.581-1.024 15.36-3.072s9.301-4.949 13.568-8.704c1.024-7.851.427-15.189-1.792-22.016-2.048-6.9973-5.547-12.6293-10.496-16.896-4.949-4.4373-11.264-6.656-18.944-6.656-8.363 0-15.189 2.816-20.48 8.448s-7.851 12.6293-7.68 20.992c.171 8.704 3.157 15.531 8.96 20.48 5.973 4.949 13.141 7.424 21.504 7.424z"/></g></svg>