<svg fill="none" height="272" viewBox="0 0 272 272" width="272" xmlns="http://www.w3.org/2000/svg"><g fill="rgb(0,0,0)"><path d="m55.424 221.008c-10.9227 0-20.224-2.475-27.904-7.424-7.68-4.779-11.52-11.691-11.52-20.736 0-6.485 1.536-11.093 4.608-13.824 3.072-2.56 5.8027-3.84 8.192-3.84 1.3653 0 2.56.427 3.584 1.28 1.1947 1.024 2.4747 2.475 3.84 4.352 2.2187 2.731 5.888 5.547 11.008 8.448 5.12 3.072 11.8613 4.608 20.224 4.608 9.0453 0 16.384-1.963 22.016-5.888 5.8027-3.925 8.704-9.472 8.704-16.64 0-5.632-1.6213-10.069-4.864-13.312-3.072-3.243-6.5707-5.717-10.496-7.424-5.4613-2.048-11.6053-3.499-18.432-4.352-1.3653-.171-2.56-.512-3.584-1.024-1.024-.683-1.9627-2.048-2.816-4.096-1.536-3.413-2.304-6.827-2.304-10.24 0-1.877.512-3.413 1.536-4.608s2.3893-2.219 4.096-3.072c3.4133-1.536 7.2533-3.499 11.52-5.888 4.4373-2.56 8.192-5.717 11.264-9.472 3.2427-3.755 4.864-8.3627 4.864-13.824 0-6.3147-2.2187-10.6667-6.656-13.056-4.2667-2.56-9.1307-3.84-14.592-3.84s-10.4107.9387-14.848 2.816c-4.4373 1.7067-7.8507 3.2427-10.24 4.608-3.072 2.048-5.376 3.072-6.912 3.072-2.3893 0-4.096-1.28-5.12-3.84s-1.536-4.9493-1.536-7.168c0-2.9013.768-5.7173 2.304-8.448 1.7067-2.9013 4.5227-5.632 8.448-8.192 5.4613-3.9253 11.1787-6.5707 17.152-7.936 6.144-1.3653 11.9467-2.048 17.408-2.048 12.6293 0 22.4427 3.1573 29.44 9.472 6.997 6.144 10.496 14.2507 10.496 24.32 0 8.5333-2.389 16.469-7.168 23.808s-10.496 13.056-17.152 17.152c8.8747 2.389 15.701 6.827 20.48 13.312 4.949 6.485 7.424 14.763 7.424 24.832 0 11.093-2.816 20.992-8.448 29.696-5.461 8.875-12.8853 15.787-22.272 20.736-9.3867 5.12-19.968 7.68-31.744 7.68z"/><path d="m196.382 169.296c-8.533 0-16.725-1.792-24.576-5.376-7.68-3.755-13.909-9.557-18.688-17.408-4.779-8.021-7.168-18.261-7.168-30.72s2.475-23.6373 7.424-33.536c5.12-9.8987 12.117-17.7493 20.992-23.552 9.045-5.8027 19.456-8.704 31.232-8.704 8.704 0 16.896 1.8773 24.576 5.632 7.68 3.584 13.909 9.3013 18.688 17.152s7.168 18.0053 7.168 30.464c0 12.459-2.56 23.723-7.68 33.792-4.949 9.899-11.861 17.749-20.736 23.552s-19.285 8.704-31.232 8.704zm5.12-25.856c9.557-.171 17.835-3.243 24.832-9.216s10.496-14.336 10.496-25.088c0-7.339-1.792-13.4827-5.376-18.432-3.413-4.9493-7.936-8.704-13.568-11.264-5.461-2.7307-11.349-4.0107-17.664-3.84-9.387.1707-17.493 3.328-24.32 9.472s-10.325 14.336-10.496 24.576c0 7.509 1.707 13.824 5.12 18.944 3.413 4.949 7.851 8.704 13.312 11.264 5.632 2.389 11.52 3.584 17.664 3.584z"/></g></svg>