<svg fill="none" height="272" viewBox="0 0 272 272" width="272" xmlns="http://www.w3.org/2000/svg"><g fill="rgb(0,0,0)"><path d="m66.424 221.008c-10.9227 0-20.224-2.475-27.904-7.424-7.68-4.779-11.52-11.691-11.52-20.736 0-6.485 1.536-11.093 4.608-13.824 3.072-2.56 5.8027-3.84 8.192-3.84 1.3653 0 2.56.427 3.584 1.28 1.1947 1.024 2.4747 2.475 3.84 4.352 2.2187 2.731 5.888 5.547 11.008 8.448 5.12 3.072 11.8613 4.608 20.224 4.608 9.0453 0 16.384-1.963 22.016-5.888 5.803-3.925 8.704-9.472 8.704-16.64 0-5.632-1.621-10.069-4.864-13.312-3.072-3.243-6.5707-5.717-10.496-7.424-5.4613-2.048-11.6053-3.499-18.432-4.352-1.3653-.171-2.56-.512-3.584-1.024-1.024-.683-1.9627-2.048-2.816-4.096-1.536-3.413-2.304-6.827-2.304-10.24 0-1.877.512-3.413 1.536-4.608s2.3893-2.219 4.096-3.072c3.4133-1.536 7.2533-3.499 11.52-5.888 4.4373-2.56 8.192-5.717 11.264-9.472 3.2427-3.755 4.864-8.3627 4.864-13.824 0-6.3147-2.2187-10.6667-6.656-13.056-4.2667-2.56-9.1307-3.84-14.592-3.84s-10.4107.9387-14.848 2.816c-4.4373 1.7067-7.8507 3.2427-10.24 4.608-3.072 2.048-5.376 3.072-6.912 3.072-2.3893 0-4.096-1.28-5.12-3.84s-1.536-4.9493-1.536-7.168c0-2.9013.768-5.7173 2.304-8.448 1.7067-2.9013 4.5227-5.632 8.448-8.192 5.4613-3.9253 11.1787-6.5707 17.152-7.936 6.144-1.3653 11.9467-2.048 17.408-2.048 12.6293 0 22.443 3.1573 29.44 9.472 6.997 6.144 10.496 14.2507 10.496 24.32 0 8.5333-2.389 16.469-7.168 23.808s-10.496 13.056-17.152 17.152c8.875 2.389 15.701 6.827 20.48 13.312 4.949 6.485 7.424 14.763 7.424 24.832 0 11.093-2.816 20.992-8.448 29.696-5.461 8.875-12.885 15.787-22.272 20.736-9.3867 5.12-19.968 7.68-31.744 7.68z"/><path d="m192.278 168.272c-11.435 0-21.077-.683-28.928-2.048-7.68-1.195-12.715-3.669-15.104-7.424-.683-1.024-1.365-2.56-2.048-4.608s-1.024-3.925-1.024-5.632c0-5.291 2.304-8.789 6.912-10.496 7.68-3.755 15.104-7.68 22.272-11.776s13.739-8.789 19.712-14.08c10.411-9.045 15.616-16.9813 15.616-23.808 0-3.4133-1.365-6.144-4.096-8.192s-6.656-3.072-11.776-3.072c-3.925 0-8.192.512-12.8 1.536-4.437 1.024-8.363 2.4747-11.776 4.352-2.048 1.1947-3.925 2.2187-5.632 3.072-1.536.6827-2.987 1.024-4.352 1.024-2.219 0-3.925-1.1093-5.12-3.328s-1.792-4.608-1.792-7.168c0-2.9013.768-5.7173 2.304-8.448 1.707-2.9013 4.693-5.7173 8.96-8.448 4.437-2.9013 9.643-5.2053 15.616-6.912 6.144-1.8773 12.629-2.816 19.456-2.816 10.752 0 19.456 2.6453 26.112 7.936 6.827 5.12 10.24 12.2027 10.24 21.248 0 5.8027-1.28 11.4347-3.84 16.896-2.56 5.291-5.803 10.155-9.728 14.592-5.803 6.827-12.629 12.885-20.48 18.176s-15.445 9.643-22.784 13.056c2.901.171 6.485.341 10.752.512h10.24c10.069 0 17.237-.853 21.504-2.56 4.267-1.877 7.509-4.011 9.728-6.4 2.048-2.219 3.755-3.328 5.12-3.328 1.877 0 3.755 1.365 5.632 4.096 2.048 2.56 3.072 6.144 3.072 10.752 0 8.875-4.352 15.019-13.056 18.432-8.533 3.243-21.504 4.864-38.912 4.864z"/></g></svg>