<svg fill="none" height="272" viewBox="0 0 272 272" width="272" xmlns="http://www.w3.org/2000/svg"><g fill="rgb(0,0,0)"><path d="m59.424 221.776c-10.9227 0-20.224-2.475-27.904-7.424-7.68-4.779-11.52-11.691-11.52-20.736 0-6.485 1.536-11.093 4.608-13.824 3.072-2.56 5.8027-3.84 8.192-3.84 1.3653 0 2.56.427 3.584 1.28 1.1947 1.024 2.4747 2.475 3.84 4.352 2.2187 2.731 5.888 5.547 11.008 8.448 5.12 3.072 11.8613 4.608 20.224 4.608 9.0453 0 16.384-1.963 22.016-5.888 5.8027-3.925 8.704-9.472 8.704-16.64 0-5.632-1.621-10.069-4.864-13.312-3.072-3.243-6.5707-5.717-10.496-7.424-5.4613-2.048-11.6053-3.499-18.432-4.352-1.3653-.171-2.56-.512-3.584-1.024-1.024-.683-1.9627-2.048-2.816-4.096-1.536-3.413-2.304-6.827-2.304-10.24 0-1.877.512-3.413 1.536-4.608s2.3893-2.219 4.096-3.072c3.4133-1.536 7.2533-3.499 11.52-5.888 4.4373-2.56 8.192-5.717 11.264-9.472 3.2427-3.755 4.864-8.363 4.864-13.824 0-6.3147-2.2187-10.6667-6.656-13.056-4.2667-2.56-9.1307-3.84-14.592-3.84s-10.4107.9387-14.848 2.816c-4.4373 1.7067-7.8507 3.2427-10.24 4.608-3.072 2.048-5.376 3.072-6.912 3.072-2.3893 0-4.096-1.28-5.12-3.84s-1.536-4.9493-1.536-7.168c0-2.9013.768-5.7173 2.304-8.448 1.7067-2.9013 4.5227-5.632 8.448-8.192 5.4613-3.9253 11.1787-6.5707 17.152-7.936 6.144-1.3653 11.9467-2.048 17.408-2.048 12.6293 0 22.443 3.1573 29.44 9.472 6.997 6.144 10.496 14.2507 10.496 24.32 0 8.5333-2.389 16.469-7.168 23.808s-10.496 13.056-17.152 17.152c8.875 2.389 15.701 6.827 20.48 13.312 4.949 6.485 7.424 14.763 7.424 24.832 0 11.093-2.816 20.992-8.448 29.696-5.461 8.875-12.885 15.787-22.272 20.736-9.3867 5.12-19.968 7.68-31.744 7.68z"/><path d="m214.206 221.264c-4.779 0-8.533-1.365-11.264-4.096s-4.181-7.765-4.352-15.104c0-3.925.256-8.96.768-15.104.512-5.973 1.28-11.776 2.304-17.408h-45.824c-6.144 0-10.837-1.707-14.08-5.12-3.072-3.584-4.608-7.595-4.608-12.032 0-2.731.512-5.547 1.536-8.448s2.389-5.973 4.096-9.216c4.949-9.899 11.179-19.541 18.688-28.928 7.68-9.5573 15.616-18.3467 23.808-26.368s15.616-14.592 22.272-19.712c4.267-3.072 7.936-5.4613 11.008-7.168s5.973-2.56 8.704-2.56c3.584 0 5.888 1.3653 6.912 4.096 1.195 2.7307 1.792 6.4853 1.792 11.264 0 7.3387-.683 16.128-2.048 26.368-1.195 10.24-2.56 20.395-4.096 30.464-.341 2.901-.683 5.888-1.024 8.96s-.683 6.315-1.024 9.728c2.219-.171 4.608-.256 7.168-.256 2.731-.171 5.717-.256 8.96-.256 1.877 0 3.584.427 5.12 1.28 1.707.683 2.56 2.389 2.56 5.12s-.768 5.888-2.304 9.472c-1.365 3.413-3.243 6.485-5.632 9.216-2.219 2.56-4.608 3.84-7.168 3.84h-13.056v5.632c0 5.12.597 9.899 1.792 14.336s3.84 7.595 7.936 9.472c2.389 1.024 3.584 2.56 3.584 4.608 0 1.536-.683 3.669-2.048 6.4-1.365 2.901-3.669 5.547-6.912 7.936s-7.765 3.584-13.568 3.584zm-43.776-78.08 35.072-1.792c.512-3.072 1.109-6.997 1.792-11.776.683-4.949 1.365-9.899 2.048-14.848.683-5.12 1.195-9.728 1.536-13.824.512-4.2667.768-7.3387.768-9.216 0-2.7307-.768-4.096-2.304-4.096-1.365 0-3.328.8533-5.888 2.56-6.144 4.4373-12.885 10.155-20.224 17.152s-13.824 15.531-19.456 25.6c-1.024 1.536-1.536 3.072-1.536 4.608 0 1.877.768 3.328 2.304 4.352s3.499 1.451 5.888 1.28z"/></g></svg>