<svg fill="none" height="272" viewBox="0 0 272 272" width="272" xmlns="http://www.w3.org/2000/svg"><g fill="rgb(0,0,0)"><path d="m65.424 225.432c-10.9227 0-20.224-2.475-27.904-7.424-7.68-4.779-11.52-11.691-11.52-20.736 0-6.485 1.536-11.093 4.608-13.824 3.072-2.56 5.8027-3.84 8.192-3.84 1.3653 0 2.56.427 3.584 1.28 1.1947 1.024 2.4747 2.475 3.84 4.352 2.2187 2.731 5.888 5.547 11.008 8.448 5.12 3.072 11.8613 4.608 20.224 4.608 9.0453 0 16.384-1.963 22.016-5.888 5.803-3.925 8.704-9.472 8.704-16.64 0-5.632-1.621-10.069-4.864-13.312-3.072-3.243-6.5707-5.717-10.496-7.424-5.4613-2.048-11.6053-3.499-18.432-4.352-1.3653-.171-2.56-.512-3.584-1.024-1.024-.683-1.9627-2.048-2.816-4.096-1.536-3.413-2.304-6.827-2.304-10.24 0-1.877.512-3.413 1.536-4.608s2.3893-2.219 4.096-3.072c3.4133-1.536 7.2533-3.499 11.52-5.888 4.4373-2.56 8.192-5.717 11.264-9.472 3.2427-3.755 4.864-8.363 4.864-13.824 0-6.3147-2.2187-10.6667-6.656-13.056-4.2667-2.56-9.1307-3.84-14.592-3.84s-10.4107.9387-14.848 2.816c-4.4373 1.7067-7.8507 3.2427-10.24 4.608-3.072 2.048-5.376 3.072-6.912 3.072-2.3893 0-4.096-1.28-5.12-3.84s-1.536-4.9493-1.536-7.168c0-2.9013.768-5.7173 2.304-8.448 1.7067-2.9013 4.5227-5.632 8.448-8.192 5.4613-3.9253 11.1787-6.5707 17.152-7.936 6.144-1.3653 11.9467-2.048 17.408-2.048 12.6293 0 22.443 3.1573 29.44 9.472 6.997 6.144 10.496 14.2507 10.496 24.32 0 8.5333-2.389 16.469-7.168 23.808s-10.496 13.056-17.152 17.152c8.875 2.389 15.701 6.827 20.48 13.312 4.949 6.485 7.424 14.763 7.424 24.832 0 11.093-2.816 20.992-8.448 29.696-5.461 8.875-12.885 15.787-22.272 20.736-9.3867 5.12-19.968 7.68-31.744 7.68z"/><path d="m184.878 224.664c-6.485 0-12.544-1.024-18.176-3.072s-10.155-5.205-13.568-9.472c-3.243-4.096-4.864-9.301-4.864-15.616 0-6.485 1.451-11.093 4.352-13.824 3.072-2.56 5.717-3.84 7.936-3.84 2.048 0 4.437 1.792 7.168 5.376 3.413 4.267 7.595 7.424 12.544 9.472 5.12 2.219 10.411 3.328 15.872 3.328 9.045 0 15.872-2.304 20.48-6.912 4.779-4.437 7.253-10.069 7.424-16.896.171-7.509-2.304-14.165-7.424-19.968-4.949-5.973-11.264-10.667-18.944-14.08s-15.445-5.12-23.296-5.12c-2.901 0-5.205.171-6.912.512s-3.243.512-4.608.512c-2.219 0-4.181-.597-5.888-1.792s-2.56-2.731-2.56-4.608c0-1.195.256-2.645.768-4.352.512-2.731 1.195-8.789 2.048-18.176 1.024-9.5573 1.536-23.808 1.536-42.752 0-2.3893.427-4.352 1.28-5.888 1.024-1.536 2.645-2.304 4.864-2.304.512 0 1.28.0853 2.304.256 1.024 0 1.963.0853 2.816.256 3.072.3413 7.253.6827 12.544 1.024s10.923.512 16.896.512c8.021 0 14.165-.3413 18.432-1.024 4.437-.8533 7.595-1.792 9.472-2.816 2.048-1.1947 3.499-2.304 4.352-3.328 1.877-2.048 3.328-3.072 4.352-3.072 1.877 0 3.669 1.28 5.376 3.84 1.877 2.56 2.816 6.4853 2.816 11.776 0 8.8747-3.243 14.592-9.728 17.152-6.315 2.3893-15.275 3.584-26.88 3.584-5.291 0-10.581-.1707-15.872-.512-5.12-.3413-9.216-.6827-12.288-1.024l-3.84 26.112c8.533-.171 17.067.853 25.6 3.072 8.533 2.048 15.957 5.291 22.272 9.728 7.509 5.291 12.971 11.691 16.384 19.2s5.12 15.275 5.12 23.296c0 10.923-2.645 21.077-7.936 30.464s-12.459 16.896-21.504 22.528-19.285 8.448-30.72 8.448z"/></g></svg>