<svg fill="none" height="272" viewBox="0 0 272 272" width="272" xmlns="http://www.w3.org/2000/svg"><g fill="rgb(0,0,0)"><path d="m62.424 221.008c-10.9227 0-20.224-2.475-27.904-7.424-7.68-4.779-11.52-11.691-11.52-20.736 0-6.485 1.536-11.093 4.608-13.824 3.072-2.56 5.8027-3.84 8.192-3.84 1.3653 0 2.56.427 3.584 1.28 1.1947 1.024 2.4747 2.475 3.84 4.352 2.2187 2.731 5.888 5.547 11.008 8.448 5.12 3.072 11.8613 4.608 20.224 4.608 9.0453 0 16.384-1.963 22.016-5.888 5.803-3.925 8.704-9.472 8.704-16.64 0-5.632-1.621-10.069-4.864-13.312-3.072-3.243-6.5707-5.717-10.496-7.424-5.4613-2.048-11.6053-3.499-18.432-4.352-1.3653-.171-2.56-.512-3.584-1.024-1.024-.683-1.9627-2.048-2.816-4.096-1.536-3.413-2.304-6.827-2.304-10.24 0-1.877.512-3.413 1.536-4.608s2.3893-2.219 4.096-3.072c3.4133-1.536 7.2533-3.499 11.52-5.888 4.4373-2.56 8.192-5.717 11.264-9.472 3.2427-3.755 4.864-8.3627 4.864-13.824 0-6.3147-2.2187-10.6667-6.656-13.056-4.2667-2.56-9.1307-3.84-14.592-3.84s-10.4107.9387-14.848 2.816c-4.4373 1.7067-7.8507 3.2427-10.24 4.608-3.072 2.048-5.376 3.072-6.912 3.072-2.3893 0-4.096-1.28-5.12-3.84s-1.536-4.9493-1.536-7.168c0-2.9013.768-5.7173 2.304-8.448 1.7067-2.9013 4.5227-5.632 8.448-8.192 5.4613-3.9253 11.1787-6.5707 17.152-7.936 6.144-1.3653 11.9467-2.048 17.408-2.048 12.6293 0 22.443 3.1573 29.44 9.472 6.997 6.144 10.496 14.2507 10.496 24.32 0 8.5333-2.389 16.469-7.168 23.808s-10.496 13.056-17.152 17.152c8.875 2.389 15.701 6.827 20.48 13.312 4.949 6.485 7.424 14.763 7.424 24.832 0 11.093-2.816 20.992-8.448 29.696-5.461 8.875-12.885 15.787-22.272 20.736-9.3867 5.12-19.968 7.68-31.744 7.68z"/><path d="m164.47 219.984c-3.755-.171-6.4-1.024-7.936-2.56-1.365-1.536-2.048-3.755-2.048-6.656 0-3.072.427-6.229 1.28-9.472 1.024-3.243 2.304-5.973 3.84-8.192 1.707-2.048 3.584-3.072 5.632-3.072h1.536c.683.171 1.365.341 2.048.512.853.171 1.621.256 2.304.256.853.171 1.963.256 3.328.256 11.435 0 21.931-3.755 31.488-11.264s16.299-18.005 20.224-31.488c-4.949 4.267-10.069 7.424-15.36 9.472-5.12 1.877-10.667 2.816-16.64 2.816-12.971 0-23.381-4.267-31.232-12.8s-11.947-20.139-12.288-34.816c-.171-11.776 1.877-22.3573 6.144-31.744 4.437-9.5573 10.667-17.152 18.688-22.784s17.408-8.448 28.16-8.448c10.411 0 18.944 2.6453 25.6 7.936 6.656 5.12 11.691 12.1173 15.104 20.992s5.205 19.0293 5.376 30.464c.341 15.36-1.877 29.781-6.656 43.264-4.608 13.312-11.093 25.003-19.456 35.072-8.192 10.24-17.579 18.261-28.16 24.064-4.949 2.56-10.24 4.608-15.872 6.144s-10.667 2.219-15.104 2.048zm35.584-85.76c5.461 0 10.581-1.024 15.36-3.072s9.301-4.949 13.568-8.704c1.024-7.851.427-15.189-1.792-22.016-2.048-6.9973-5.547-12.6293-10.496-16.896-4.949-4.4373-11.264-6.656-18.944-6.656-8.363 0-15.189 2.816-20.48 8.448s-7.851 12.6293-7.68 20.992c.171 8.704 3.157 15.531 8.96 20.48 5.973 4.949 13.141 7.424 21.504 7.424z"/></g></svg>