<svg fill="none" height="272" viewBox="0 0 272 272" width="272" xmlns="http://www.w3.org/2000/svg"><g fill="rgb(0,0,0)"><path d="m95.056 246.207c-4.7787 0-8.5333-1.365-11.264-4.096-2.7307-2.73-4.1813-7.765-4.352-15.104 0-3.925.256-8.96.768-15.104.512-5.973 1.28-11.776 2.304-17.408h-45.824c-6.144 0-10.8373-1.706-14.08-5.12-3.072-3.584-4.608-7.594-4.608-12.032 0-2.73.512-5.546 1.536-8.448 1.024-2.901 2.3893-5.973 4.096-9.216 4.9493-9.898 11.1787-19.541 18.688-28.928 7.68-9.557 15.616-18.346 23.808-26.368 8.192-8.0211 15.616-14.5917 22.272-19.7117 4.2667-3.072 7.936-5.4614 11.008-7.168 3.072-1.7067 5.973-2.56 8.704-2.56 3.584 0 5.888 1.3653 6.912 4.096 1.195 2.7306 1.792 6.4853 1.792 11.264 0 7.3386-.683 16.1277-2.048 26.3677-1.195 10.24-2.56 20.395-4.096 30.464-.341 2.902-.683 5.888-1.024 8.96s-.683 6.315-1.024 9.728c2.219-.17 4.608-.256 7.168-.256 2.731-.17 5.717-.256 8.96-.256 1.877 0 3.584.427 5.12 1.28 1.707.683 2.56 2.39 2.56 5.12 0 2.731-.768 5.888-2.304 9.472-1.365 3.414-3.243 6.486-5.632 9.216-2.219 2.56-4.608 3.84-7.168 3.84h-13.056v5.632c0 5.12.597 9.899 1.792 14.336 1.195 4.438 3.84 7.595 7.936 9.472 2.389 1.024 3.584 2.56 3.584 4.608 0 1.536-.683 3.67-2.048 6.4-1.365 2.902-3.669 5.547-6.912 7.936-3.243 2.39-7.765 3.584-13.568 3.584zm-43.776-78.08 35.072-1.792c.512-3.072 1.1093-6.997 1.792-11.776.6827-4.949 1.3653-9.898 2.048-14.848.6827-5.12 1.1947-9.728 1.536-13.824.512-4.266.768-7.338.768-9.216 0-2.73-.768-4.096-2.304-4.096-1.3653 0-3.328.854-5.888 2.56-6.144 4.438-12.8853 10.155-20.224 17.152-7.3387 6.998-13.824 15.531-19.456 25.6-1.024 1.536-1.536 3.072-1.536 4.608 0 1.878.768 3.328 2.304 4.352s3.4987 1.451 5.888 1.28z"/><path d="m200.32 195.007c-10.24 0-18.688-2.474-25.344-7.424-6.485-5.12-11.264-12.117-14.336-20.992-3.072-8.874-4.779-19.029-5.12-30.464-.341-15.53 1.792-29.952 6.4-43.2637 4.608-13.4827 11.093-25.344 19.456-35.584s17.835-18.176 28.416-23.808c4.949-2.56 10.24-4.608 15.872-6.144 5.632-1.7067 10.667-2.4747 15.104-2.304 3.755.1706 6.315 1.1093 7.68 2.816 1.365 1.536 2.048 3.84 2.048 6.912 0 2.9013-.512 5.9733-1.536 9.216-.853 3.072-2.133 5.7173-3.84 7.936-1.536 2.048-3.413 3.072-5.632 3.072-1.365 0-2.56-.1707-3.584-.512-.683-.1707-1.451-.256-2.304-.256-.853-.1707-1.963-.256-3.328-.256-11.093 0-21.248 3.7546-30.464 11.264-9.216 7.3386-15.787 17.5786-19.712 30.72 4.949-4.096 10.069-6.9974 15.36-8.704 5.291-1.8774 10.837-2.816 16.64-2.816 12.971 0 23.211 4.2666 30.72 12.8 7.68 8.5337 11.605 20.3947 11.776 35.5837.171 11.264-2.048 21.675-6.656 31.232-4.437 9.387-10.752 16.896-18.944 22.528s-17.749 8.448-28.672 8.448zm6.912-26.624c8.533 0 15.445-2.645 20.736-7.936 5.291-5.461 7.851-12.458 7.68-20.992-.171-9.045-3.157-16.042-8.96-20.992-5.803-5.12-12.971-7.68-21.504-7.68-5.461 0-10.667 1.024-15.616 3.072-4.779 2.048-9.301 4.95-13.568 8.704-.683 7.851 0 15.275 2.048 22.272 2.219 6.998 5.803 12.715 10.752 17.152 4.949 4.267 11.093 6.4 18.432 6.4z"/></g></svg>