<svg fill="none" height="272" viewBox="0 0 272 272" width="272" xmlns="http://www.w3.org/2000/svg"><g fill="rgb(0,0,0)"><path d="m95.056 221.264c-4.7787 0-8.5333-1.365-11.264-4.096s-4.1813-7.765-4.352-15.104c0-3.925.256-8.96.768-15.104.512-5.973 1.28-11.776 2.304-17.408h-45.824c-6.144 0-10.8373-1.707-14.08-5.12-3.072-3.584-4.608-7.595-4.608-12.032 0-2.731.512-5.547 1.536-8.448s2.3893-5.973 4.096-9.216c4.9493-9.899 11.1787-19.541 18.688-28.928 7.68-9.5573 15.616-18.3467 23.808-26.368s15.616-14.592 22.272-19.712c4.2667-3.072 7.936-5.4613 11.008-7.168s5.973-2.56 8.704-2.56c3.584 0 5.888 1.3653 6.912 4.096 1.195 2.7307 1.792 6.4853 1.792 11.264 0 7.3387-.683 16.128-2.048 26.368-1.195 10.24-2.56 20.395-4.096 30.464-.341 2.901-.683 5.888-1.024 8.96s-.683 6.315-1.024 9.728c2.219-.171 4.608-.256 7.168-.256 2.731-.171 5.717-.256 8.96-.256 1.877 0 3.584.427 5.12 1.28 1.707.683 2.56 2.389 2.56 5.12s-.768 5.888-2.304 9.472c-1.365 3.413-3.243 6.485-5.632 9.216-2.219 2.56-4.608 3.84-7.168 3.84h-13.056v5.632c0 5.12.597 9.899 1.792 14.336s3.84 7.595 7.936 9.472c2.389 1.024 3.584 2.56 3.584 4.608 0 1.536-.683 3.669-2.048 6.4-1.365 2.901-3.669 5.547-6.912 7.936s-7.765 3.584-13.568 3.584zm-43.776-78.08 35.072-1.792c.512-3.072 1.1093-6.997 1.792-11.776.6827-4.949 1.3653-9.899 2.048-14.848.6827-5.12 1.1947-9.728 1.536-13.824.512-4.2667.768-7.3387.768-9.216 0-2.7307-.768-4.096-2.304-4.096-1.3653 0-3.328.8533-5.888 2.56-6.144 4.4373-12.8853 10.155-20.224 17.152s-13.824 15.531-19.456 25.6c-1.024 1.536-1.536 3.072-1.536 4.608 0 1.877.768 3.328 2.304 4.352s3.4987 1.451 5.888 1.28z"/><path d="m168.32 220.752c-3.755-.171-6.4-1.024-7.936-2.56-1.365-1.536-2.048-3.755-2.048-6.656 0-3.072.427-6.229 1.28-9.472 1.024-3.243 2.304-5.973 3.84-8.192 1.707-2.048 3.584-3.072 5.632-3.072h1.536c.683.171 1.365.341 2.048.512.853.171 1.621.256 2.304.256.853.171 1.963.256 3.328.256 11.435 0 21.931-3.755 31.488-11.264s16.299-18.005 20.224-31.488c-4.949 4.267-10.069 7.424-15.36 9.472-5.12 1.877-10.667 2.816-16.64 2.816-12.971 0-23.381-4.267-31.232-12.8s-11.947-20.139-12.288-34.816c-.171-11.776 1.877-22.3573 6.144-31.744 4.437-9.5573 10.667-17.152 18.688-22.784s17.408-8.448 28.16-8.448c10.411 0 18.944 2.6453 25.6 7.936 6.656 5.12 11.691 12.1173 15.104 20.992s5.205 19.0293 5.376 30.464c.341 15.36-1.877 29.781-6.656 43.264-4.608 13.312-11.093 25.003-19.456 35.072-8.192 10.24-17.579 18.261-28.16 24.064-4.949 2.56-10.24 4.608-15.872 6.144s-10.667 2.219-15.104 2.048zm35.584-85.76c5.461 0 10.581-1.024 15.36-3.072s9.301-4.949 13.568-8.704c1.024-7.851.427-15.189-1.792-22.016-2.048-6.9973-5.547-12.6293-10.496-16.896-4.949-4.4373-11.264-6.656-18.944-6.656-8.363 0-15.189 2.816-20.48 8.448s-7.851 12.6293-7.68 20.992c.171 8.704 3.157 15.531 8.96 20.48 5.973 4.949 13.141 7.424 21.504 7.424z"/></g></svg>