<svg fill="none" height="272" viewBox="0 0 272 272" width="272" xmlns="http://www.w3.org/2000/svg"><g fill="rgb(0,0,0)"><path d="m55.608 224.664c-6.4853 0-12.544-1.024-18.176-3.072s-10.1547-5.205-13.568-9.472c-3.2427-4.096-4.864-9.301-4.864-15.616 0-6.485 1.4507-11.093 4.352-13.824 3.072-2.56 5.7173-3.84 7.936-3.84 2.048 0 4.4373 1.792 7.168 5.376 3.4133 4.267 7.5947 7.424 12.544 9.472 5.12 2.219 10.4107 3.328 15.872 3.328 9.0453 0 15.872-2.304 20.48-6.912 4.7787-4.437 7.2533-10.069 7.424-16.896.1707-7.509-2.304-14.165-7.424-19.968-4.9493-5.973-11.264-10.667-18.944-14.08s-15.4453-5.12-23.296-5.12c-2.9013 0-5.2053.171-6.912.512s-3.2427.512-4.608.512c-2.2187 0-4.1813-.597-5.888-1.792s-2.56-2.731-2.56-4.608c0-1.195.256-2.645.768-4.352.512-2.731 1.1947-8.789 2.048-18.176 1.024-9.5573 1.536-23.808 1.536-42.752 0-2.3893.4267-4.352 1.28-5.888 1.024-1.536 2.6453-2.304 4.864-2.304.512 0 1.28.0853 2.304.256 1.024 0 1.9627.0853 2.816.256 3.072.3413 7.2533.6827 12.544 1.024s10.9227.512 16.896.512c8.0213 0 14.1653-.3413 18.432-1.024 4.4373-.8533 7.5947-1.792 9.472-2.816 2.048-1.1947 3.499-2.304 4.352-3.328 1.877-2.048 3.328-3.072 4.352-3.072 1.877 0 3.669 1.28 5.376 3.84 1.877 2.56 2.816 6.4853 2.816 11.776 0 8.8747-3.243 14.592-9.728 17.152-6.3147 2.3893-15.2747 3.584-26.88 3.584-5.2907 0-10.5813-.1707-15.872-.512-5.12-.3413-9.216-.6827-12.288-1.024l-3.84 26.112c8.5333-.171 17.0667.853 25.6 3.072 8.5333 2.048 15.9573 5.291 22.272 9.728 7.509 5.291 12.971 11.691 16.384 19.2s5.12 15.275 5.12 23.296c0 10.923-2.645 21.077-7.936 30.464s-12.4587 16.896-21.504 22.528-19.2853 8.448-30.72 8.448z"/><path d="m192.862 173.72c-8.533 0-16.725-1.792-24.576-5.376-7.68-3.755-13.909-9.557-18.688-17.408-4.779-8.021-7.168-18.261-7.168-30.72s2.475-23.6373 7.424-33.536c5.12-9.8987 12.117-17.7493 20.992-23.552 9.045-5.8027 19.456-8.704 31.232-8.704 8.704 0 16.896 1.8773 24.576 5.632 7.68 3.584 13.909 9.3013 18.688 17.152s7.168 18.0053 7.168 30.464c0 12.459-2.56 23.723-7.68 33.792-4.949 9.899-11.861 17.749-20.736 23.552s-19.285 8.704-31.232 8.704zm5.12-25.856c9.557-.171 17.835-3.243 24.832-9.216s10.496-14.336 10.496-25.088c0-7.339-1.792-13.483-5.376-18.432-3.413-4.9493-7.936-8.704-13.568-11.264-5.461-2.7307-11.349-4.0107-17.664-3.84-9.387.1707-17.493 3.328-24.32 9.472s-10.325 14.336-10.496 24.576c0 7.509 1.707 13.824 5.12 18.944 3.413 4.949 7.851 8.704 13.312 11.264 5.632 2.389 11.52 3.584 17.664 3.584z"/></g></svg>