<svg fill="none" height="272" viewBox="0 0 272 272" width="272" xmlns="http://www.w3.org/2000/svg"><g fill="rgb(0,0,0)"><path d="m80.608 224.664c-6.4853 0-12.544-1.024-18.176-3.072s-10.1547-5.205-13.568-9.472c-3.2427-4.096-4.864-9.301-4.864-15.616 0-6.485 1.4507-11.093 4.352-13.824 3.072-2.56 5.7173-3.84 7.936-3.84 2.048 0 4.4373 1.792 7.168 5.376 3.4133 4.267 7.5947 7.424 12.544 9.472 5.12 2.219 10.4107 3.328 15.872 3.328 9.045 0 15.872-2.304 20.48-6.912 4.779-4.437 7.253-10.069 7.424-16.896.171-7.509-2.304-14.165-7.424-19.968-4.949-5.973-11.264-10.667-18.944-14.08s-15.4453-5.12-23.296-5.12c-2.9013 0-5.2053.171-6.912.512s-3.2427.512-4.608.512c-2.2187 0-4.1813-.597-5.888-1.792s-2.56-2.731-2.56-4.608c0-1.195.256-2.645.768-4.352.512-2.731 1.1947-8.789 2.048-18.176 1.024-9.5573 1.536-23.808 1.536-42.752 0-2.3893.4267-4.352 1.28-5.888 1.024-1.536 2.6453-2.304 4.864-2.304.512 0 1.28.0853 2.304.256 1.024 0 1.9627.0853 2.816.256 3.072.3413 7.2533.6827 12.544 1.024s10.9227.512 16.896.512c8.021 0 14.165-.3413 18.432-1.024 4.437-.8533 7.595-1.792 9.472-2.816 2.048-1.1947 3.499-2.304 4.352-3.328 1.877-2.048 3.328-3.072 4.352-3.072 1.877 0 3.669 1.28 5.376 3.84 1.877 2.56 2.816 6.4853 2.816 11.776 0 8.8747-3.243 14.592-9.728 17.152-6.315 2.3893-15.275 3.584-26.88 3.584-5.2907 0-10.5813-.1707-15.872-.512-5.12-.3413-9.216-.6827-12.288-1.024l-3.84 26.112c8.5333-.171 17.0667.853 25.6 3.072 8.533 2.048 15.957 5.291 22.272 9.728 7.509 5.291 12.971 11.691 16.384 19.2s5.12 15.275 5.12 23.296c0 10.923-2.645 21.077-7.936 30.464s-12.459 16.896-21.504 22.528-19.2853 8.448-30.72 8.448z"/><path d="m203.526 172.696c-5.291 0-9.387-1.451-12.288-4.352-2.901-3.072-4.437-8.875-4.608-17.408-.171-7.339.683-16.384 2.56-27.136 1.877-10.923 4.437-23.125 7.68-36.608-4.096 3.2427-8.619 6.3147-13.568 9.216s-9.301 4.352-13.056 4.352c-4.267 0-7.595-1.7067-9.984-5.12-2.219-3.584-3.328-7.5093-3.328-11.776 0-3.584.683-6.0587 2.048-7.424 1.536-1.3653 3.157-2.1333 4.864-2.304 10.069-.8533 18.432-2.9867 25.088-6.4s12.971-7.3387 18.944-11.776c2.048-1.536 4.011-2.304 5.888-2.304s3.755.5973 5.632 1.792c1.877 1.024 2.816 2.2187 2.816 3.584 0 .6827-.256 1.8773-.768 3.584-.341 1.7067-.853 3.7547-1.536 6.144-1.707 5.632-3.413 13.312-5.12 23.04-1.707 9.557-2.56 20.565-2.56 33.024 0 7.68.768 13.397 2.304 17.152 1.707 3.584 4.779 6.315 9.216 8.192 1.365.512 2.389 1.109 3.072 1.792.683.512 1.024 1.451 1.024 2.816s-.768 3.499-2.304 6.4c-1.365 2.901-3.84 5.547-7.424 7.936-3.413 2.389-8.277 3.584-14.592 3.584z"/></g></svg>