<svg fill="none" height="272" viewBox="0 0 272 272" width="272" xmlns="http://www.w3.org/2000/svg"><g fill="rgb(0,0,0)"><path d="m59.608 224.664c-6.4853 0-12.544-1.024-18.176-3.072s-10.1547-5.205-13.568-9.472c-3.2427-4.096-4.864-9.301-4.864-15.616 0-6.485 1.4507-11.093 4.352-13.824 3.072-2.56 5.7173-3.84 7.936-3.84 2.048 0 4.4373 1.792 7.168 5.376 3.4133 4.267 7.5947 7.424 12.544 9.472 5.12 2.219 10.4107 3.328 15.872 3.328 9.0453 0 15.872-2.304 20.48-6.912 4.7787-4.437 7.2533-10.069 7.424-16.896.1707-7.509-2.304-14.165-7.424-19.968-4.9493-5.973-11.264-10.667-18.944-14.08s-15.4453-5.12-23.296-5.12c-2.9013 0-5.2053.171-6.912.512s-3.2427.512-4.608.512c-2.2187 0-4.1813-.597-5.888-1.792s-2.56-2.731-2.56-4.608c0-1.195.256-2.645.768-4.352.512-2.731 1.1947-8.789 2.048-18.176 1.024-9.5573 1.536-23.808 1.536-42.752 0-2.3893.4267-4.352 1.28-5.888 1.024-1.536 2.6453-2.304 4.864-2.304.512 0 1.28.0853 2.304.256 1.024 0 1.9627.0853 2.816.256 3.072.3413 7.2533.6827 12.544 1.024s10.9227.512 16.896.512c8.0213 0 14.1653-.3413 18.432-1.024 4.4373-.8533 7.595-1.792 9.472-2.816 2.048-1.1947 3.499-2.304 4.352-3.328 1.877-2.048 3.328-3.072 4.352-3.072 1.877 0 3.669 1.28 5.376 3.84 1.877 2.56 2.816 6.4853 2.816 11.776 0 8.8747-3.243 14.592-9.728 17.152-6.315 2.3893-15.2747 3.584-26.88 3.584-5.2907 0-10.5813-.1707-15.872-.512-5.12-.3413-9.216-.6827-12.288-1.024l-3.84 26.112c8.5333-.171 17.0667.853 25.6 3.072 8.5333 2.048 15.9573 5.291 22.272 9.728 7.509 5.291 12.971 11.691 16.384 19.2s5.12 15.275 5.12 23.296c0 10.923-2.645 21.077-7.936 30.464s-12.4587 16.896-21.504 22.528-19.2853 8.448-30.72 8.448z"/><path d="m210.686 224.92c-4.779 0-8.533-1.365-11.264-4.096s-4.181-7.765-4.352-15.104c0-3.925.256-8.96.768-15.104.512-5.973 1.28-11.776 2.304-17.408h-45.824c-6.144 0-10.837-1.707-14.08-5.12-3.072-3.584-4.608-7.595-4.608-12.032 0-2.731.512-5.547 1.536-8.448s2.389-5.973 4.096-9.216c4.949-9.899 11.179-19.541 18.688-28.928 7.68-9.5573 15.616-18.3467 23.808-26.368s15.616-14.592 22.272-19.712c4.267-3.072 7.936-5.4613 11.008-7.168s5.973-2.56 8.704-2.56c3.584 0 5.888 1.3653 6.912 4.096 1.195 2.7307 1.792 6.4853 1.792 11.264 0 7.3387-.683 16.128-2.048 26.368-1.195 10.24-2.56 20.395-4.096 30.464-.341 2.901-.683 5.888-1.024 8.96s-.683 6.315-1.024 9.728c2.219-.171 4.608-.256 7.168-.256 2.731-.171 5.717-.256 8.96-.256 1.877 0 3.584.427 5.12 1.28 1.707.683 2.56 2.389 2.56 5.12s-.768 5.888-2.304 9.472c-1.365 3.413-3.243 6.485-5.632 9.216-2.219 2.56-4.608 3.84-7.168 3.84h-13.056v5.632c0 5.12.597 9.899 1.792 14.336s3.84 7.595 7.936 9.472c2.389 1.024 3.584 2.56 3.584 4.608 0 1.536-.683 3.669-2.048 6.4-1.365 2.901-3.669 5.547-6.912 7.936s-7.765 3.584-13.568 3.584zm-43.776-78.08 35.072-1.792c.512-3.072 1.109-6.997 1.792-11.776.683-4.949 1.365-9.899 2.048-14.848.683-5.12 1.195-9.728 1.536-13.824.512-4.267.768-7.3387.768-9.216 0-2.7307-.768-4.096-2.304-4.096-1.365 0-3.328.8533-5.888 2.56-6.144 4.4373-12.885 10.155-20.224 17.152s-13.824 15.531-19.456 25.6c-1.024 1.536-1.536 3.072-1.536 4.608 0 1.877.768 3.328 2.304 4.352s3.499 1.451 5.888 1.28z"/></g></svg>