<svg fill="none" height="272" viewBox="0 0 272 272" width="272" xmlns="http://www.w3.org/2000/svg"><g fill="rgb(0,0,0)"><path d="m61.608 246.951c-6.4853 0-12.544-1.024-18.176-3.072s-10.1547-5.205-13.568-9.472c-3.2427-4.096-4.864-9.301-4.864-15.616 0-6.485 1.4507-11.093 4.352-13.824 3.072-2.56 5.7173-3.84 7.936-3.84 2.048 0 4.4373 1.792 7.168 5.376 3.4133 4.267 7.5947 7.424 12.544 9.472 5.12 2.219 10.4107 3.328 15.872 3.328 9.0453 0 15.872-2.304 20.48-6.912 4.7787-4.437 7.253-10.069 7.424-16.896.171-7.509-2.304-14.165-7.424-19.968-4.9493-5.973-11.264-10.666-18.944-14.08-7.68-3.413-15.4453-5.12-23.296-5.12-2.9013 0-5.2053.171-6.912.512-1.7067.342-3.2427.512-4.608.512-2.2187 0-4.1813-.597-5.888-1.792-1.7067-1.194-2.56-2.73-2.56-4.608 0-1.194.256-2.645.768-4.352.512-2.73 1.1947-8.789 2.048-18.176 1.024-9.557 1.536-23.808 1.536-42.7517 0-2.3894.4267-4.352 1.28-5.888 1.024-1.536 2.6453-2.304 4.864-2.304.512 0 1.28.0853 2.304.256 1.024 0 1.9627.0853 2.816.256 3.072.3413 7.2533.6826 12.544 1.024 5.2907.3413 10.9227.512 16.896.512 8.0213 0 14.1653-.3414 18.432-1.024 4.4373-.8534 7.595-1.792 9.472-2.816 2.048-1.1947 3.499-2.304 4.352-3.328 1.877-2.048 3.328-3.072 4.352-3.072 1.877 0 3.669 1.28 5.376 3.84 1.877 2.56 2.816 6.4853 2.816 11.776 0 8.8746-3.243 14.592-9.728 17.1517-6.315 2.39-15.2747 3.584-26.88 3.584-5.2907 0-10.5813-.17-15.872-.512-5.12-.341-9.216-.682-12.288-1.024l-3.84 26.112c8.5333-.17 17.0667.854 25.6 3.072 8.5333 2.048 15.9573 5.291 22.272 9.728 7.509 5.291 12.971 11.691 16.384 19.2 3.413 7.51 5.12 15.275 5.12 23.296 0 10.923-2.645 21.078-7.936 30.464-5.291 9.387-12.459 16.896-21.504 22.528-9.0453 5.632-19.2853 8.448-30.72 8.448z"/><path d="m191.95 196.007c-10.24 0-18.688-2.474-25.344-7.424-6.485-5.12-11.264-12.117-14.336-20.992-3.072-8.874-4.779-19.029-5.12-30.464-.341-15.53 1.792-29.952 6.4-43.2637 4.608-13.4827 11.093-25.344 19.456-35.584s17.835-18.176 28.416-23.808c4.949-2.56 10.24-4.608 15.872-6.144 5.632-1.7067 10.667-2.4747 15.104-2.304 3.755.1706 6.315 1.1093 7.68 2.816 1.365 1.536 2.048 3.84 2.048 6.912 0 2.9013-.512 5.9733-1.536 9.216-.853 3.072-2.133 5.7173-3.84 7.936-1.536 2.048-3.413 3.072-5.632 3.072-1.365 0-2.56-.1707-3.584-.512-.683-.1707-1.451-.256-2.304-.256-.853-.1707-1.963-.256-3.328-.256-11.093 0-21.248 3.7546-30.464 11.264-9.216 7.3386-15.787 17.5786-19.712 30.72 4.949-4.096 10.069-6.9974 15.36-8.704 5.291-1.8774 10.837-2.816 16.64-2.816 12.971 0 23.211 4.2666 30.72 12.8 7.68 8.5337 11.605 20.3947 11.776 35.5837.171 11.264-2.048 21.675-6.656 31.232-4.437 9.387-10.752 16.896-18.944 22.528s-17.749 8.448-28.672 8.448zm6.912-26.624c8.533 0 15.445-2.645 20.736-7.936 5.291-5.461 7.851-12.458 7.68-20.992-.171-9.045-3.157-16.042-8.96-20.992-5.803-5.12-12.971-7.68-21.504-7.68-5.461 0-10.667 1.024-15.616 3.072-4.779 2.048-9.301 4.95-13.568 8.704-.683 7.851 0 15.275 2.048 22.272 2.219 6.998 5.803 12.715 10.752 17.152 4.949 4.267 11.093 6.4 18.432 6.4z"/></g></svg>