<svg fill="none" height="272" viewBox="0 0 272 272" width="272" xmlns="http://www.w3.org/2000/svg"><g fill="rgb(0,0,0)"><path d="m64.5377 224.664c-6.4853 0-12.544-1.024-18.176-3.072s-10.1547-5.205-13.568-9.472c-3.2427-4.096-4.864-9.301-4.864-15.616 0-6.485 1.4507-11.093 4.352-13.824 3.072-2.56 5.7173-3.84 7.936-3.84 2.048 0 4.4373 1.792 7.168 5.376 3.4133 4.267 7.5947 7.424 12.544 9.472 5.12 2.219 10.4107 3.328 15.872 3.328 9.0453 0 15.872-2.304 20.48-6.912 4.7783-4.437 7.2533-10.069 7.4243-16.896.17-7.509-2.304-14.165-7.4243-19.968-4.9493-5.973-11.264-10.667-18.944-14.08s-15.4453-5.12-23.296-5.12c-2.9013 0-5.2053.171-6.912.512s-3.2427.512-4.608.512c-2.2187 0-4.1813-.597-5.888-1.792s-2.56-2.731-2.56-4.608c0-1.195.256-2.645.768-4.352.512-2.731 1.1947-8.789 2.048-18.176 1.024-9.5573 1.536-23.808 1.536-42.752 0-2.3893.4267-4.352 1.28-5.888 1.024-1.536 2.6453-2.304 4.864-2.304.512 0 1.28.0853 2.304.256 1.024 0 1.9627.0853 2.816.256 3.072.3413 7.2533.6827 12.544 1.024s10.9227.512 16.896.512c8.0213 0 14.1653-.3413 18.432-1.024 4.4373-.8533 7.5943-1.792 9.4723-2.816 2.048-1.1947 3.498-2.304 4.352-3.328 1.877-2.048 3.328-3.072 4.352-3.072 1.877 0 3.669 1.28 5.376 3.84 1.877 2.56 2.816 6.4853 2.816 11.776 0 8.8747-3.243 14.592-9.728 17.152-6.315 2.3893-15.275 3.584-26.8803 3.584-5.2907 0-10.5813-.1707-15.872-.512-5.12-.3413-9.216-.6827-12.288-1.024l-3.84 26.112c8.5333-.171 17.0667.853 25.6 3.072 8.5333 2.048 15.9573 5.291 22.2723 9.728 7.509 5.291 12.97 11.691 16.384 19.2 3.413 7.509 5.12 15.275 5.12 23.296 0 10.923-2.646 21.077-7.936 30.464-5.291 9.387-12.459 16.896-21.5043 22.528s-19.2853 8.448-30.72 8.448z"/><path d="m172.608 224.664c-4.95 0-8.704-1.365-11.264-4.096-2.56-2.56-3.84-6.827-3.84-12.8 0-7.339 1.024-14.848 3.072-22.528 2.048-7.509 4.778-15.189 8.192-23.04 5.973-13.312 13.397-27.136 22.272-41.472 8.874-14.507 18.09-27.7333 27.648-39.68-5.803.8533-12.203 1.6213-19.2 2.304-6.827.512-13.654.9387-20.48 1.28-6.656.1707-12.544.256-17.664.256-3.755 0-6.912-.0853-9.472-.256-2.56-.3413-4.779-.9387-6.656-1.792-3.243-1.536-4.864-5.12-4.864-10.752 0-5.12.853-9.6427 2.56-13.568 1.877-3.9253 4.181-5.888 6.912-5.888.512 0 1.194.0853 2.048.256.853.1707 2.218.512 4.096 1.024 6.826 1.7067 13.568 2.816 20.224 3.328s13.909.768 21.76.768c7.338 0 13.909-.256 19.712-.768 5.802-.512 10.496-.9387 14.08-1.28 3.584-.512 5.888-.768 6.912-.768 2.389 0 4.352 1.28 5.888 3.84 1.536 2.3893 2.304 4.5227 2.304 6.4 0 2.048-.683 4.096-2.048 6.144-10.411 14.848-20.054 29.867-28.928 45.056-8.875 15.019-15.702 28.416-20.48 40.192-2.048 5.291-3.67 10.24-4.864 14.848-1.024 4.608-1.536 8.875-1.536 12.8 0 3.755.512 6.741 1.536 8.96s2.133 4.267 3.328 6.144c.853 1.536 1.621 2.901 2.304 4.096.682 1.365 1.024 2.731 1.024 4.096 0 2.219-1.024 4.608-3.072 7.168-2.048 2.731-4.95 5.035-8.704 6.912-3.584 1.877-7.851 2.816-12.8 2.816z"/></g></svg>