<svg fill="none" height="272" viewBox="0 0 272 272" width="272" xmlns="http://www.w3.org/2000/svg"><path d="m130.835 221.007c-10.24 0-18.688-2.474-25.344-7.424-6.485-5.12-11.2637-12.117-14.3357-20.992-3.072-8.874-4.7787-19.029-5.12-30.464-.3413-15.53 1.792-29.952 6.4-43.264 4.608-13.482 11.0937-25.3437 19.4557-35.5837 8.363-10.24 17.835-18.176 28.416-23.808 4.95-2.56 10.24-4.608 15.872-6.144 5.632-1.7067 10.667-2.4747 15.104-2.304 3.755.1706 6.315 1.1093 7.68 2.816 1.366 1.536 2.048 3.84 2.048 6.912 0 2.9013-.512 5.9733-1.536 9.216-.853 3.072-2.133 5.7173-3.84 7.936-1.536 2.048-3.413 3.072-5.632 3.072-1.365 0-2.56-.1707-3.584-.512-.682-.1707-1.45-.256-2.304-.256-.853-.1707-1.962-.256-3.328-.256-11.093 0-21.248 3.7546-30.464 11.264-9.216 7.3386-15.786 17.5787-19.712 30.7197 4.95-4.096 10.07-6.997 15.36-8.704 5.291-1.877 10.838-2.816 16.64-2.816 12.971 0 23.211 4.267 30.72 12.8 7.68 8.534 11.606 20.395 11.776 35.584.171 11.264-2.048 21.675-6.656 31.232-4.437 9.387-10.752 16.896-18.944 22.528s-17.749 8.448-28.672 8.448zm6.912-26.624c8.534 0 15.446-2.645 20.736-7.936 5.291-5.461 7.851-12.458 7.68-20.992-.17-9.045-3.157-16.042-8.96-20.992-5.802-5.12-12.97-7.68-21.504-7.68-5.461 0-10.666 1.024-15.616 3.072-4.778 2.048-9.301 4.95-13.568 8.704-.682 7.851 0 15.275 2.048 22.272 2.219 6.998 5.803 12.715 10.752 17.152 4.95 4.267 11.094 6.4 18.432 6.4z" fill="rgb(0,0,0)"/></svg>