<svg fill="none" height="272" viewBox="0 0 272 272" width="272" xmlns="http://www.w3.org/2000/svg"><g fill="rgb(0,0,0)"><path d="m60.8353 221.328c-10.24 0-18.688-2.475-25.344-7.424-6.4853-5.12-11.264-12.117-14.336-20.992s-4.7787-19.029-5.12-30.464c-.3413-15.531 1.792-29.952 6.4-43.264 4.608-13.483 11.0933-25.3439 19.456-35.5839s17.8347-18.176 28.416-23.808c4.9493-2.56 10.24-4.608 15.872-6.144 5.632-1.7067 10.6667-2.4747 15.1037-2.304 3.755.1706 6.315 1.1093 7.68 2.816 1.366 1.536 2.048 3.84 2.048 6.912 0 2.9013-.512 5.9733-1.536 9.216-.853 3.072-2.133 5.7173-3.84 7.936-1.536 2.048-3.413 3.072-5.632 3.072-1.365 0-2.5597-.1707-3.5837-.512-.6827-.1707-1.4507-.256-2.304-.256-.8533-.1707-1.9627-.256-3.328-.256-11.0933 0-21.248 3.7546-30.464 11.264-9.216 7.3386-15.7867 17.5789-19.712 30.7199 4.9493-4.096 10.0693-6.997 15.36-8.704 5.2907-1.877 10.8373-2.816 16.64-2.816 12.9707 0 23.2107 4.267 30.7197 12.8 7.68 8.533 11.606 20.395 11.776 35.584.171 11.264-2.048 21.675-6.656 31.232-4.437 9.387-10.7517 16.896-18.9437 22.528s-17.7493 8.448-28.672 8.448zm6.912-26.624c8.5333 0 15.4453-2.645 20.736-7.936 5.2907-5.461 7.8507-12.459 7.68-20.992-.1707-9.045-3.1573-16.043-8.96-20.992-5.8027-5.12-12.9706-7.68-21.504-7.68-5.4613 0-10.6667 1.024-15.616 3.072-4.7787 2.048-9.3013 4.949-13.568 8.704-.6827 7.851 0 15.275 2.048 22.272 2.2187 6.997 5.8027 12.715 10.752 17.152 4.9493 4.267 11.0933 6.4 18.432 6.4z"/><path d="m196.497 221.328c-8.533 0-16.725-1.792-24.576-5.376-7.68-3.755-13.909-9.557-18.688-17.408-4.778-8.021-7.168-18.261-7.168-30.72s2.475-23.637 7.424-33.536c5.12-9.899 12.118-17.749 20.992-23.552 9.046-5.803 19.456-8.704 31.232-8.704 8.704 0 16.896 1.877 24.576 5.632 7.68 3.584 13.91 9.301 18.688 17.152 4.779 7.851 7.168 18.005 7.168 30.464s-2.56 23.723-7.68 33.792c-4.949 9.899-11.861 17.749-20.736 23.552-8.874 5.803-19.285 8.704-31.232 8.704zm5.12-25.856c9.558-.171 17.835-3.243 24.832-9.216 6.998-5.973 10.496-14.336 10.496-25.088 0-7.339-1.792-13.483-5.376-18.432-3.413-4.949-7.936-8.704-13.568-11.264-5.461-2.731-11.349-4.011-17.664-3.84-9.386.171-17.493 3.328-24.32 9.472-6.826 6.144-10.325 14.336-10.496 24.576 0 7.509 1.707 13.824 5.12 18.944 3.414 4.949 7.851 8.704 13.312 11.264 5.632 2.389 11.52 3.584 17.664 3.584z"/></g></svg>