<svg fill="none" height="272" viewBox="0 0 272 272" width="272" xmlns="http://www.w3.org/2000/svg"><g fill="rgb(0,0,0)"><path d="m85.8353 221.007c-10.24 0-18.688-2.474-25.344-7.424-6.4853-5.12-11.264-12.117-14.336-20.992-3.072-8.874-4.7787-19.029-5.12-30.464-.3413-15.53 1.792-29.952 6.4-43.264 4.608-13.482 11.0933-25.3437 19.456-35.5837s17.8347-18.176 28.416-23.808c4.9497-2.56 10.2397-4.608 15.8717-6.144 5.632-1.7067 10.667-2.4747 15.104-2.304 3.755.1706 6.315 1.1093 7.68 2.816 1.366 1.536 2.048 3.84 2.048 6.912 0 2.9013-.512 5.9733-1.536 9.216-.853 3.072-2.133 5.7173-3.84 7.936-1.536 2.048-3.413 3.072-5.632 3.072-1.365 0-2.56-.1707-3.584-.512-.682-.1707-1.45-.256-2.304-.256-.853-.1707-1.962-.256-3.328-.256-11.093 0-21.2477 3.7546-30.4637 11.264-9.216 7.3386-15.7867 17.5787-19.712 30.7197 4.9493-4.096 10.0693-6.997 15.36-8.704 5.2907-1.877 10.8373-2.816 16.64-2.816 12.9707 0 23.2107 4.267 30.7197 12.8 7.68 8.534 11.606 20.395 11.776 35.584.171 11.264-2.048 21.675-6.656 31.232-4.437 9.387-10.752 16.896-18.944 22.528s-17.749 8.448-28.6717 8.448zm6.912-26.624c8.5337 0 15.4457-2.645 20.7357-7.936 5.291-5.461 7.851-12.458 7.68-20.992-.17-9.045-3.157-16.042-8.96-20.992-5.802-5.12-12.9703-7.68-21.5037-7.68-5.4613 0-10.6667 1.024-15.616 3.072-4.7787 2.048-9.3013 4.95-13.568 8.704-.6827 7.851 0 15.275 2.048 22.272 2.2187 6.998 5.8027 12.715 10.752 17.152 4.9493 4.267 11.0933 6.4 18.432 6.4z"/><path d="m207.161 219.983c-5.29 0-9.386-1.45-12.288-4.352-2.901-3.072-4.437-8.874-4.608-17.408-.17-7.338.683-16.384 2.56-27.136 1.878-10.922 4.438-23.125 7.68-36.608-4.096 3.243-8.618 6.315-13.568 9.216-4.949 2.902-9.301 4.352-13.056 4.352-4.266 0-7.594-1.706-9.984-5.12-2.218-3.584-3.328-7.509-3.328-11.776 0-3.584.683-6.058 2.048-7.424 1.536-1.365 3.158-2.133 4.864-2.304 10.07-.853 18.432-2.986 25.088-6.4 6.656-3.413 12.971-7.338 18.944-11.776 2.048-1.536 4.011-2.304 5.888-2.304 1.878 0 3.755.598 5.632 1.792 1.878 1.024 2.816 2.219 2.816 3.584 0 .683-.256 1.878-.768 3.584-.341 1.707-.853 3.755-1.536 6.144-1.706 5.632-3.413 13.312-5.12 23.04-1.706 9.558-2.56 20.566-2.56 33.024 0 7.68.768 13.398 2.304 17.152 1.707 3.584 4.779 6.315 9.216 8.192 1.366.512 2.39 1.11 3.072 1.792.683.512 1.024 1.451 1.024 2.816 0 1.366-.768 3.499-2.304 6.4-1.365 2.902-3.84 5.547-7.424 7.936-3.413 2.39-8.277 3.584-14.592 3.584z"/></g></svg>