<svg fill="none" height="272" viewBox="0 0 272 272" width="272" xmlns="http://www.w3.org/2000/svg"><g fill="rgb(0,0,0)"><path d="m71.8353 221.007c-10.24 0-18.688-2.474-25.344-7.424-6.4853-5.12-11.264-12.117-14.336-20.992-3.072-8.874-4.7787-19.029-5.12-30.464-.3413-15.53 1.792-29.952 6.4-43.264 4.608-13.482 11.0933-25.3437 19.456-35.5837s17.8347-18.176 28.416-23.808c4.9493-2.56 10.24-4.608 15.872-6.144 5.6317-1.7067 10.6667-2.4747 15.1037-2.304 3.755.1706 6.315 1.1093 7.68 2.816 1.366 1.536 2.048 3.84 2.048 6.912 0 2.9013-.512 5.9733-1.536 9.216-.853 3.072-2.133 5.7173-3.84 7.936-1.536 2.048-3.413 3.072-5.632 3.072-1.365 0-2.56-.1707-3.584-.512-.682-.1707-1.45-.256-2.304-.256-.853-.1707-1.962-.256-3.328-.256-11.093 0-21.2477 3.7546-30.4637 11.264-9.216 7.3386-15.7867 17.5787-19.712 30.7197 4.9493-4.096 10.0693-6.997 15.36-8.704 5.2907-1.877 10.8373-2.816 16.64-2.816 12.9707 0 23.2107 4.267 30.7197 12.8 7.68 8.534 11.606 20.395 11.776 35.584.171 11.264-2.048 21.675-6.656 31.232-4.437 9.387-10.752 16.896-18.944 22.528-8.1917 5.632-17.749 8.448-28.6717 8.448zm6.912-26.624c8.5333 0 15.4453-2.645 20.736-7.936 5.2907-5.461 7.8507-12.458 7.6797-20.992-.17-9.045-3.157-16.042-8.9597-20.992-5.8027-5.12-12.9706-7.68-21.504-7.68-5.4613 0-10.6667 1.024-15.616 3.072-4.7787 2.048-9.3013 4.95-13.568 8.704-.6827 7.851 0 15.275 2.048 22.272 2.2187 6.998 5.8027 12.715 10.752 17.152 4.9493 4.267 11.0933 6.4 18.432 6.4z"/><path d="m192.393 219.983c-11.434 0-21.077-.682-28.928-2.048-7.68-1.194-12.714-3.669-15.104-7.424-.682-1.024-1.365-2.56-2.048-4.608-.682-2.048-1.024-3.925-1.024-5.632 0-5.29 2.304-8.789 6.912-10.496 7.68-3.754 15.104-7.68 22.272-11.776s13.739-8.789 19.712-14.08c10.411-9.045 15.616-16.981 15.616-23.808 0-3.413-1.365-6.144-4.096-8.192-2.73-2.048-6.656-3.072-11.776-3.072-3.925 0-8.192.512-12.8 1.536-4.437 1.024-8.362 2.475-11.776 4.352-2.048 1.195-3.925 2.219-5.632 3.072-1.536.683-2.986 1.024-4.352 1.024-2.218 0-3.925-1.109-5.12-3.328-1.194-2.218-1.792-4.608-1.792-7.168 0-2.901.768-5.717 2.304-8.448 1.707-2.901 4.694-5.717 8.96-8.448 4.438-2.901 9.643-5.205 15.616-6.912 6.144-1.877 12.63-2.816 19.456-2.816 10.752 0 19.456 2.646 26.112 7.936 6.827 5.12 10.24 12.203 10.24 21.248 0 5.803-1.28 11.435-3.84 16.896-2.56 5.291-5.802 10.155-9.728 14.592-5.802 6.827-12.629 12.886-20.48 18.176-7.85 5.291-15.445 9.643-22.784 13.056 2.902.171 6.486.342 10.752.512h10.24c10.07 0 17.238-.853 21.504-2.56 4.267-1.877 7.51-4.01 9.728-6.4 2.048-2.218 3.755-3.328 5.12-3.328 1.878 0 3.755 1.366 5.632 4.096 2.048 2.56 3.072 6.144 3.072 10.752 0 8.875-4.352 15.019-13.056 18.432-8.533 3.243-21.504 4.864-38.912 4.864z"/></g></svg>