<svg fill="none" height="272" viewBox="0 0 272 272" width="272" xmlns="http://www.w3.org/2000/svg"><g fill="rgb(0,0,0)"><path d="m74.8353 195.007c-10.24 0-18.688-2.474-25.344-7.424-6.4853-5.12-11.264-12.117-14.336-20.992-3.072-8.874-4.7787-19.029-5.12-30.464-.3413-15.53 1.792-29.952 6.4-43.2637 4.608-13.4827 11.0933-25.344 19.456-35.584s17.8347-18.176 28.416-23.808c4.9493-2.56 10.24-4.608 15.8717-6.144 5.632-1.7067 10.667-2.4747 15.104-2.304 3.755.1706 6.315 1.1093 7.68 2.816 1.366 1.536 2.048 3.84 2.048 6.912 0 2.9013-.512 5.9733-1.536 9.216-.853 3.072-2.133 5.7173-3.84 7.936-1.536 2.048-3.413 3.072-5.632 3.072-1.365 0-2.56-.1707-3.584-.512-.682-.1707-1.45-.256-2.304-.256-.853-.1707-1.962-.256-3.328-.256-11.093 0-21.2477 3.7546-30.4637 11.264-9.216 7.3386-15.7867 17.5786-19.712 30.72 4.9493-4.096 10.0693-6.9974 15.36-8.704 5.2907-1.8774 10.8373-2.816 16.64-2.816 12.9707 0 23.2107 4.2666 30.7197 12.8 7.68 8.5337 11.606 20.3947 11.776 35.5837.171 11.264-2.048 21.675-6.656 31.232-4.437 9.387-10.752 16.896-18.944 22.528-8.1917 5.632-17.749 8.448-28.6717 8.448zm6.912-26.624c8.5333 0 15.4453-2.645 20.7357-7.936 5.291-5.461 7.851-12.458 7.68-20.992-.17-9.045-3.157-16.042-8.96-20.992-5.8024-5.12-12.9703-7.68-21.5037-7.68-5.4613 0-10.6667 1.024-15.616 3.072-4.7787 2.048-9.3013 4.95-13.568 8.704-.6827 7.851 0 15.275 2.048 22.272 2.2187 6.998 5.8027 12.715 10.752 17.152 4.9493 4.267 11.0933 6.4 18.432 6.4z"/><path d="m180.289 246.719c-10.922 0-20.224-2.474-27.904-7.424-7.68-4.778-11.52-11.69-11.52-20.736 0-6.485 1.536-11.093 4.608-13.824 3.072-2.56 5.803-3.84 8.192-3.84 1.366 0 2.56.427 3.584 1.28 1.195 1.024 2.475 2.475 3.84 4.352 2.219 2.731 5.888 5.547 11.008 8.448 5.12 3.072 11.862 4.608 20.224 4.608 9.046 0 16.384-1.962 22.016-5.888 5.803-3.925 8.704-9.472 8.704-16.64 0-5.632-1.621-10.069-4.864-13.312-3.072-3.242-6.57-5.717-10.496-7.424-5.461-2.048-11.605-3.498-18.432-4.352-1.365-.17-2.56-.512-3.584-1.024-1.024-.682-1.962-2.048-2.816-4.096-1.536-3.413-2.304-6.826-2.304-10.24 0-1.877.512-3.413 1.536-4.608 1.024-1.194 2.39-2.218 4.096-3.072 3.414-1.536 7.254-3.498 11.52-5.888 4.438-2.56 8.192-5.717 11.264-9.472 3.243-3.754 4.864-8.362 4.864-13.824 0-6.314-2.218-10.666-6.656-13.056-4.266-2.56-9.13-3.84-14.592-3.84-5.461 0-10.41.939-14.848 2.816-4.437 1.707-7.85 3.243-10.24 4.608-3.072 2.048-5.376 3.072-6.912 3.072-2.389 0-4.096-1.28-5.12-3.84s-1.536-4.949-1.536-7.168c0-2.9011.768-5.7171 2.304-8.4477 1.707-2.9014 4.523-5.632 8.448-8.192 5.462-3.9254 11.179-6.5707 17.152-7.936 6.144-1.3654 11.947-2.048 17.408-2.048 12.63 0 22.443 3.1573 29.44 9.472 6.998 6.144 10.496 14.2506 10.496 24.3197 0 8.534-2.389 16.47-7.168 23.808-4.778 7.339-10.496 13.056-17.152 17.152 8.875 2.39 15.702 6.827 20.48 13.312 4.95 6.486 7.424 14.763 7.424 24.832 0 11.094-2.816 20.992-8.448 29.696-5.461 8.875-12.885 15.787-22.272 20.736-9.386 5.12-19.968 7.68-31.744 7.68z"/></g></svg>