<svg fill="none" height="272" viewBox="0 0 272 272" width="272" xmlns="http://www.w3.org/2000/svg"><g fill="rgb(0,0,0)"><path d="m67.8353 196.007c-10.24 0-18.688-2.474-25.344-7.424-6.4853-5.12-11.264-12.117-14.336-20.992-3.072-8.874-4.7787-19.029-5.12-30.464-.3413-15.53 1.792-29.952 6.4-43.2637 4.608-13.4827 11.0933-25.344 19.456-35.584s17.8347-18.176 28.416-23.808c4.9493-2.56 10.24-4.608 15.872-6.144 5.632-1.7067 10.6667-2.4747 15.1037-2.304 3.755.1706 6.315 1.1093 7.68 2.816 1.366 1.536 2.048 3.84 2.048 6.912 0 2.9013-.512 5.9733-1.536 9.216-.853 3.072-2.133 5.7173-3.84 7.936-1.536 2.048-3.413 3.072-5.632 3.072-1.365 0-2.56-.1707-3.584-.512-.682-.1707-1.45-.256-2.304-.256-.853-.1707-1.9624-.256-3.3277-.256-11.0933 0-21.248 3.7546-30.464 11.264-9.216 7.3386-15.7867 17.5786-19.712 30.72 4.9493-4.096 10.0693-6.9974 15.36-8.704 5.2907-1.8774 10.8373-2.816 16.64-2.816 12.9707 0 23.2107 4.2666 30.7197 12.8 7.68 8.5337 11.606 20.3947 11.776 35.5837.171 11.264-2.048 21.675-6.656 31.232-4.437 9.387-10.752 16.896-18.9437 22.528-8.192 5.632-17.7493 8.448-28.672 8.448zm6.912-26.624c8.5333 0 15.4453-2.645 20.736-7.936 5.2907-5.461 7.8507-12.458 7.6797-20.992-.17-9.045-3.157-16.042-8.9597-20.992-5.8027-5.12-12.9706-7.68-21.504-7.68-5.4613 0-10.6667 1.024-15.616 3.072-4.7787 2.048-9.3013 4.95-13.568 8.704-.6827 7.851 0 15.275 2.048 22.272 2.2187 6.998 5.8027 12.715 10.752 17.152 4.9493 4.267 11.0933 6.4 18.432 6.4z"/><path d="m174.313 246.951c-4.949 0-8.704-1.365-11.264-4.096-2.56-2.56-3.84-6.826-3.84-12.8 0-7.338 1.024-14.848 3.072-22.528 2.048-7.509 4.779-15.189 8.192-23.04 5.974-13.312 13.398-27.136 22.272-41.472 8.875-14.506 18.091-27.733 27.648-39.68-5.802.854-12.202 1.622-19.2 2.304-6.826.512-13.653.939-20.48 1.28-6.656.171-12.544.256-17.664.256-3.754 0-6.912-.085-9.472-.256-2.56-.341-4.778-.938-6.656-1.792-3.242-1.536-4.864-5.12-4.864-10.7517 0-5.12.854-9.6427 2.56-13.568 1.878-3.9254 4.182-5.888 6.912-5.888.512 0 1.195.0853 2.048.256.854.1706 2.219.512 4.096 1.024 6.827 1.7066 13.568 2.816 20.224 3.328s13.91.768 21.76.768c7.339 0 13.91-.256 19.712-.768 5.803-.512 10.496-.9387 14.08-1.28 3.584-.512 5.888-.768 6.912-.768 2.39 0 4.352 1.28 5.888 3.84 1.536 2.3893 2.304 4.5226 2.304 6.4 0 2.048-.682 4.096-2.048 6.144-10.41 14.8477-20.053 29.8667-28.928 45.0557-8.874 15.019-15.701 28.416-20.48 40.192-2.048 5.291-3.669 10.24-4.864 14.848-1.024 4.608-1.536 8.875-1.536 12.8 0 3.755.512 6.742 1.536 8.96 1.024 2.219 2.134 4.267 3.328 6.144.854 1.536 1.622 2.902 2.304 4.096.683 1.366 1.024 2.731 1.024 4.096 0 2.219-1.024 4.608-3.072 7.168-2.048 2.731-4.949 5.035-8.704 6.912-3.584 1.878-7.85 2.816-12.8 2.816z"/></g></svg>