<svg fill="none" height="272" viewBox="0 0 272 272" width="272" xmlns="http://www.w3.org/2000/svg"><g fill="rgb(0,0,0)"><path d="m66.8353 221.52c-10.24 0-18.688-2.475-25.344-7.424-6.4853-5.12-11.264-12.117-14.336-20.992s-4.7787-19.029-5.12-30.464c-.3413-15.531 1.792-29.952 6.4-43.264 4.608-13.483 11.0933-25.344 19.456-35.584s17.8347-18.176 28.416-23.808c4.9493-2.56 10.24-4.608 15.872-6.144 5.632-1.7067 10.6667-2.4747 15.1037-2.304 3.755.1707 6.315 1.1093 7.68 2.816 1.366 1.536 2.048 3.84 2.048 6.912 0 2.9013-.512 5.9733-1.536 9.216-.853 3.072-2.133 5.7173-3.84 7.936-1.536 2.048-3.413 3.072-5.632 3.072-1.365 0-2.56-.1707-3.584-.512-.682-.1707-1.45-.256-2.304-.256-.853-.1707-1.9624-.256-3.3277-.256-11.0933 0-21.248 3.7547-30.464 11.264-9.216 7.3387-15.7867 17.579-19.712 30.72 4.9493-4.096 10.0693-6.997 15.36-8.704 5.2907-1.877 10.8373-2.816 16.64-2.816 12.9707 0 23.2107 4.267 30.7197 12.8 7.68 8.533 11.606 20.395 11.776 35.584.171 11.264-2.048 21.675-6.656 31.232-4.437 9.387-10.752 16.896-18.9437 22.528-8.192 5.632-17.7493 8.448-28.672 8.448zm6.912-26.624c8.5333 0 15.4453-2.645 20.736-7.936 5.2907-5.461 7.8507-12.459 7.6797-20.992-.17-9.045-3.157-16.043-8.9597-20.992-5.8027-5.12-12.9706-7.68-21.504-7.68-5.4613 0-10.6667 1.024-15.616 3.072-4.7787 2.048-9.3013 4.949-13.568 8.704-.6827 7.851 0 15.275 2.048 22.272 2.2187 6.997 5.8027 12.715 10.752 17.152 4.9493 4.267 11.0933 6.4 18.432 6.4z"/><path d="m192.001 221.52c-10.752 0-19.456-1.963-26.112-5.888-6.485-3.925-11.178-8.96-14.08-15.104-2.901-6.315-4.352-12.971-4.352-19.968 0-7.68 1.451-14.421 4.352-20.224 2.902-5.973 6.486-11.008 10.752-15.104 4.438-4.267 8.875-7.68 13.312-10.24-4.949-2.731-9.216-6.741-12.8-12.032-3.584-5.461-5.376-12.117-5.376-19.968 0-3.7547.342-6.9973 1.024-9.728.854-2.7307 1.878-5.12 3.072-7.168-.341.1707-.853.3413-1.536.512-.512.1707-1.024.256-1.536.256-1.706 0-2.986-1.28-3.84-3.84-.682-2.7307-1.024-5.12-1.024-7.168 0-3.2427.768-5.8027 2.304-7.68 1.536-2.048 3.072-3.6693 4.608-4.864 3.414-2.3893 8.79-5.2053 16.128-8.448 7.51-3.2427 16.299-4.864 26.368-4.864 13.654 0 24.491 3.584 32.512 10.752 8.192 7.168 12.288 16.64 12.288 28.416 0 9.216-2.304 17.579-6.912 25.088-4.437 7.339-10.154 13.312-17.152 17.92 6.486 3.243 12.288 8.107 17.408 14.592 5.12 6.315 7.68 14.507 7.68 24.576 0 9.557-2.56 18.176-7.68 25.856-4.949 7.509-11.69 13.483-20.224 17.92-8.533 4.267-18.261 6.4-29.184 6.4zm15.872-98.304c5.462-3.072 9.814-6.4 13.056-9.984 3.243-3.755 4.864-8.704 4.864-14.848 0-7.3387-2.304-12.9707-6.912-16.896-4.608-4.096-10.666-6.144-18.176-6.144-3.413 0-6.656.4267-9.728 1.28-2.901.6827-5.632 1.6213-8.192 2.816-2.389 3.7547-3.584 7.936-3.584 12.544 0 7.3387 2.902 13.483 8.704 18.432 5.974 4.949 12.63 9.216 19.968 12.8zm-4.608 73.472c6.827 0 12.886-1.536 18.176-4.608 5.291-3.243 7.936-8.107 7.936-14.592 0-4.779-1.536-9.045-4.608-12.8s-7.253-7.168-12.544-10.24c-3.242-2.048-6.826-3.925-10.752-5.632-3.925-1.707-7.936-3.243-12.032-4.608-5.29 3.072-9.557 6.827-12.8 11.264-3.242 4.437-4.864 9.557-4.864 15.36s1.536 10.667 4.608 14.592c3.072 3.755 6.998 6.571 11.776 8.448 4.95 1.877 9.984 2.816 15.104 2.816z"/></g></svg>