<svg fill="none" height="272" viewBox="0 0 272 272" width="272" xmlns="http://www.w3.org/2000/svg"><g fill="rgb(0,0,0)"><path d="m67.8353 196.007c-10.24 0-18.688-2.474-25.344-7.424-6.4853-5.12-11.264-12.117-14.336-20.992-3.072-8.874-4.7787-19.029-5.12-30.464-.3413-15.53 1.792-29.952 6.4-43.2637 4.608-13.4827 11.0933-25.344 19.456-35.584s17.8347-18.176 28.416-23.808c4.9493-2.56 10.24-4.608 15.872-6.144 5.632-1.7067 10.6667-2.4747 15.1037-2.304 3.755.1706 6.315 1.1093 7.68 2.816 1.366 1.536 2.048 3.84 2.048 6.912 0 2.9013-.512 5.9733-1.536 9.216-.853 3.072-2.133 5.7173-3.84 7.936-1.536 2.048-3.413 3.072-5.632 3.072-1.365 0-2.56-.1707-3.584-.512-.682-.1707-1.45-.256-2.304-.256-.853-.1707-1.9624-.256-3.3277-.256-11.0933 0-21.248 3.7546-30.464 11.264-9.216 7.3386-15.7867 17.5786-19.712 30.72 4.9493-4.096 10.0693-6.9974 15.36-8.704 5.2907-1.8774 10.8373-2.816 16.64-2.816 12.9707 0 23.2107 4.2666 30.7197 12.8 7.68 8.5337 11.606 20.3947 11.776 35.5837.171 11.264-2.048 21.675-6.656 31.232-4.437 9.387-10.752 16.896-18.9437 22.528-8.192 5.632-17.7493 8.448-28.672 8.448zm6.912-26.624c8.5333 0 15.4453-2.645 20.736-7.936 5.2907-5.461 7.8507-12.458 7.6797-20.992-.17-9.045-3.157-16.042-8.9597-20.992-5.8027-5.12-12.9706-7.68-21.504-7.68-5.4613 0-10.6667 1.024-15.616 3.072-4.7787 2.048-9.3013 4.95-13.568 8.704-.6827 7.851 0 15.275 2.048 22.272 2.2187 6.998 5.8027 12.715 10.752 17.152 4.9493 4.267 11.0933 6.4 18.432 6.4z"/><path d="m164.585 246.695c-3.754-.17-6.4-1.024-7.936-2.56-1.365-1.536-2.048-3.754-2.048-6.656 0-3.072.427-6.229 1.28-9.472 1.024-3.242 2.304-5.973 3.84-8.192 1.707-2.048 3.584-3.072 5.632-3.072h1.536c.683.171 1.366.342 2.048.512.854.171 1.622.256 2.304.256.854.171 1.963.256 3.328.256 11.435 0 21.931-3.754 31.488-11.264 9.558-7.509 16.299-18.005 20.224-31.488-4.949 4.267-10.069 7.424-15.36 9.472-5.12 1.878-10.666 2.816-16.64 2.816-12.97 0-23.381-4.266-31.232-12.8-7.85-8.533-11.946-20.138-12.288-34.816-.17-11.776 1.878-22.357 6.144-31.744 4.438-9.5571 10.667-17.1517 18.688-22.7837 8.022-5.632 17.408-8.448 28.16-8.448 10.411 0 18.944 2.6453 25.6 7.936 6.656 5.12 11.691 12.1173 15.104 20.9917 3.414 8.875 5.206 19.03 5.376 30.464.342 15.36-1.877 29.782-6.656 43.264-4.608 13.312-11.093 25.003-19.456 35.072-8.192 10.24-17.578 18.262-28.16 24.064-4.949 2.56-10.24 4.608-15.872 6.144s-10.666 2.219-15.104 2.048zm35.584-85.76c5.462 0 10.582-1.024 15.36-3.072 4.779-2.048 9.302-4.949 13.568-8.704 1.024-7.85.427-15.189-1.792-22.016-2.048-6.997-5.546-12.629-10.496-16.896-4.949-4.437-11.264-6.656-18.944-6.656-8.362 0-15.189 2.816-20.48 8.448-5.29 5.632-7.85 12.63-7.68 20.992.171 8.704 3.158 15.531 8.96 20.48 5.974 4.95 13.142 7.424 21.504 7.424z"/></g></svg>