<svg fill="none" height="272" viewBox="0 0 272 272" width="272" xmlns="http://www.w3.org/2000/svg"><g fill="rgb(0,0,0)"><path d="m53.256 222.032c-4.9493 0-8.704-1.365-11.264-4.096-2.56-2.56-3.84-6.827-3.84-12.8 0-7.339 1.024-14.848 3.072-22.528 2.048-7.509 4.7787-15.189 8.192-23.04 5.9733-13.312 13.3973-27.136 22.272-41.472 8.8747-14.507 18.0907-27.7333 27.648-39.68-5.8027.8533-12.2027 1.6213-19.2 2.304-6.8267.512-13.6533.9387-20.48 1.28-6.656.1707-12.544.256-17.664.256-3.7547 0-6.912-.0853-9.472-.256-2.56-.3413-4.7787-.9387-6.656-1.792-3.2427-1.536-4.864-5.12-4.864-10.752 0-5.12.8533-9.6427 2.56-13.568 1.8773-3.9253 4.1813-5.888 6.912-5.888.512 0 1.1947.0853 2.048.256s2.2187.512 4.096 1.024c6.8267 1.7067 13.568 2.816 20.224 3.328s13.9093.768 21.76.768c7.3387 0 13.9093-.256 19.712-.768 5.803-.512 10.496-.9387 14.08-1.28 3.584-.512 5.888-.768 6.912-.768 2.389 0 4.352 1.28 5.888 3.84 1.536 2.3893 2.304 4.5227 2.304 6.4 0 2.048-.683 4.096-2.048 6.144-10.411 14.848-20.053 29.8667-28.928 45.056-8.8747 15.019-15.7013 28.416-20.48 40.192-2.048 5.291-3.6693 10.24-4.864 14.848-1.024 4.608-1.536 8.875-1.536 12.8 0 3.755.512 6.741 1.536 8.96s2.1333 4.267 3.328 6.144c.8533 1.536 1.6213 2.901 2.304 4.096.6827 1.365 1.024 2.731 1.024 4.096 0 2.219-1.024 4.608-3.072 7.168-2.048 2.731-4.9493 5.035-8.704 6.912-3.584 1.877-7.8507 2.816-12.8 2.816z"/><path d="m213.014 222.288c-4.779 0-8.533-1.365-11.264-4.096s-4.181-7.765-4.352-15.104c0-3.925.256-8.96.768-15.104.512-5.973 1.28-11.776 2.304-17.408h-45.824c-6.144 0-10.837-1.707-14.08-5.12-3.072-3.584-4.608-7.595-4.608-12.032 0-2.731.512-5.547 1.536-8.448s2.389-5.973 4.096-9.216c4.949-9.899 11.179-19.541 18.688-28.928 7.68-9.5573 15.616-18.3467 23.808-26.368s15.616-14.592 22.272-19.712c4.267-3.072 7.936-5.4613 11.008-7.168s5.973-2.56 8.704-2.56c3.584 0 5.888 1.3653 6.912 4.096 1.195 2.7307 1.792 6.4853 1.792 11.264 0 7.3387-.683 16.128-2.048 26.368-1.195 10.24-2.56 20.395-4.096 30.464-.341 2.901-.683 5.888-1.024 8.96s-.683 6.315-1.024 9.728c2.219-.171 4.608-.256 7.168-.256 2.731-.171 5.717-.256 8.96-.256 1.877 0 3.584.427 5.12 1.28 1.707.683 2.56 2.389 2.56 5.12s-.768 5.888-2.304 9.472c-1.365 3.413-3.243 6.485-5.632 9.216-2.219 2.56-4.608 3.84-7.168 3.84h-13.056v5.632c0 5.12.597 9.899 1.792 14.336s3.84 7.595 7.936 9.472c2.389 1.024 3.584 2.56 3.584 4.608 0 1.536-.683 3.669-2.048 6.4-1.365 2.901-3.669 5.547-6.912 7.936s-7.765 3.584-13.568 3.584zm-43.776-78.08 35.072-1.792c.512-3.072 1.109-6.997 1.792-11.776.683-4.949 1.365-9.899 2.048-14.848.683-5.12 1.195-9.728 1.536-13.824.512-4.2667.768-7.3387.768-9.216 0-2.7307-.768-4.096-2.304-4.096-1.365 0-3.328.8533-5.888 2.56-6.144 4.4373-12.885 10.155-20.224 17.152s-13.824 15.531-19.456 25.6c-1.024 1.536-1.536 3.072-1.536 4.608 0 1.877.768 3.328 2.304 4.352s3.499 1.451 5.888 1.28z"/></g></svg>