<svg fill="none" height="272" viewBox="0 0 272 272" width="272" xmlns="http://www.w3.org/2000/svg"><g fill="rgb(0,0,0)"><path d="m60.256 224.664c-4.9493 0-8.704-1.365-11.264-4.096-2.56-2.56-3.84-6.827-3.84-12.8 0-7.339 1.024-14.848 3.072-22.528 2.048-7.509 4.7787-15.189 8.192-23.04 5.9733-13.312 13.3973-27.136 22.272-41.472 8.8747-14.507 18.0907-27.7333 27.648-39.68-5.803.8533-12.2027 1.6213-19.2 2.304-6.8267.512-13.6533.9387-20.48 1.28-6.656.1707-12.544.256-17.664.256-3.7547 0-6.912-.0853-9.472-.256-2.56-.3413-4.7787-.9387-6.656-1.792-3.2427-1.536-4.864-5.12-4.864-10.752 0-5.12.8533-9.6427 2.56-13.568 1.8773-3.9253 4.1813-5.888 6.912-5.888.512 0 1.1947.0853 2.048.256s2.2187.512 4.096 1.024c6.8267 1.7067 13.568 2.816 20.224 3.328s13.9093.768 21.76.768c7.3387 0 13.9093-.256 19.712-.768 5.803-.512 10.496-.9387 14.08-1.28 3.584-.512 5.888-.768 6.912-.768 2.389 0 4.352 1.28 5.888 3.84 1.536 2.3893 2.304 4.5227 2.304 6.4 0 2.048-.683 4.096-2.048 6.144-10.411 14.848-20.053 29.867-28.928 45.056-8.8747 15.019-15.7013 28.416-20.48 40.192-2.048 5.291-3.6693 10.24-4.864 14.848-1.024 4.608-1.536 8.875-1.536 12.8 0 3.755.512 6.741 1.536 8.96s2.1333 4.267 3.328 6.144c.8533 1.536 1.6213 2.901 2.304 4.096.6827 1.365 1.024 2.731 1.024 4.096 0 2.219-1.024 4.608-3.072 7.168-2.048 2.731-4.9493 5.035-8.704 6.912-3.584 1.877-7.8507 2.816-12.8 2.816z"/><path d="m184.686 224.664c-6.485 0-12.544-1.024-18.176-3.072s-10.155-5.205-13.568-9.472c-3.243-4.096-4.864-9.301-4.864-15.616 0-6.485 1.451-11.093 4.352-13.824 3.072-2.56 5.717-3.84 7.936-3.84 2.048 0 4.437 1.792 7.168 5.376 3.413 4.267 7.595 7.424 12.544 9.472 5.12 2.219 10.411 3.328 15.872 3.328 9.045 0 15.872-2.304 20.48-6.912 4.779-4.437 7.253-10.069 7.424-16.896.171-7.509-2.304-14.165-7.424-19.968-4.949-5.973-11.264-10.667-18.944-14.08s-15.445-5.12-23.296-5.12c-2.901 0-5.205.171-6.912.512s-3.243.512-4.608.512c-2.219 0-4.181-.597-5.888-1.792s-2.56-2.731-2.56-4.608c0-1.195.256-2.645.768-4.352.512-2.731 1.195-8.789 2.048-18.176 1.024-9.5573 1.536-23.808 1.536-42.752 0-2.3893.427-4.352 1.28-5.888 1.024-1.536 2.645-2.304 4.864-2.304.512 0 1.28.0853 2.304.256 1.024 0 1.963.0853 2.816.256 3.072.3413 7.253.6827 12.544 1.024s10.923.512 16.896.512c8.021 0 14.165-.3413 18.432-1.024 4.437-.8533 7.595-1.792 9.472-2.816 2.048-1.1947 3.499-2.304 4.352-3.328 1.877-2.048 3.328-3.072 4.352-3.072 1.877 0 3.669 1.28 5.376 3.84 1.877 2.56 2.816 6.4853 2.816 11.776 0 8.8747-3.243 14.592-9.728 17.152-6.315 2.3893-15.275 3.584-26.88 3.584-5.291 0-10.581-.1707-15.872-.512-5.12-.3413-9.216-.6827-12.288-1.024l-3.84 26.112c8.533-.171 17.067.853 25.6 3.072 8.533 2.048 15.957 5.291 22.272 9.728 7.509 5.291 12.971 11.691 16.384 19.2s5.12 15.275 5.12 23.296c0 10.923-2.645 21.077-7.936 30.464s-12.459 16.896-21.504 22.528-19.285 8.448-30.72 8.448z"/></g></svg>