<svg fill="none" height="272" viewBox="0 0 272 272" width="272" xmlns="http://www.w3.org/2000/svg"><g fill="rgb(0,0,0)"><path d="m55.256 246.951c-4.9493 0-8.704-1.365-11.264-4.096-2.56-2.56-3.84-6.826-3.84-12.8 0-7.338 1.024-14.848 3.072-22.528 2.048-7.509 4.7787-15.189 8.192-23.04 5.9733-13.312 13.3973-27.136 22.272-41.472 8.8747-14.506 18.0907-27.733 27.648-39.68-5.8027.854-12.2027 1.622-19.2 2.304-6.8267.512-13.6533.939-20.48 1.28-6.656.171-12.544.256-17.664.256-3.7547 0-6.912-.085-9.472-.256-2.56-.341-4.7787-.938-6.656-1.792-3.2427-1.536-4.864-5.12-4.864-10.7517 0-5.12.8533-9.6427 2.56-13.568 1.8773-3.9254 4.1813-5.888 6.912-5.888.512 0 1.1947.0853 2.048.256.8533.1706 2.2187.512 4.096 1.024 6.8267 1.7066 13.568 2.816 20.224 3.328s13.9093.768 21.76.768c7.3387 0 13.9093-.256 19.712-.768 5.803-.512 10.496-.9387 14.08-1.28 3.584-.512 5.888-.768 6.912-.768 2.389 0 4.352 1.28 5.888 3.84 1.536 2.3893 2.304 4.5226 2.304 6.4 0 2.048-.683 4.096-2.048 6.144-10.411 14.8477-20.053 29.8667-28.928 45.0557-8.8747 15.019-15.7013 28.416-20.48 40.192-2.048 5.291-3.6693 10.24-4.864 14.848-1.024 4.608-1.536 8.875-1.536 12.8 0 3.755.512 6.742 1.536 8.96 1.024 2.219 2.1333 4.267 3.328 6.144.8533 1.536 1.6213 2.902 2.304 4.096.6827 1.366 1.024 2.731 1.024 4.096 0 2.219-1.024 4.608-3.072 7.168-2.048 2.731-4.9493 5.035-8.704 6.912-3.584 1.878-7.8507 2.816-12.8 2.816z"/><path d="m194.278 196.007c-10.24 0-18.688-2.474-25.344-7.424-6.485-5.12-11.264-12.117-14.336-20.992-3.072-8.874-4.779-19.029-5.12-30.464-.341-15.53 1.792-29.952 6.4-43.2637 4.608-13.4827 11.093-25.344 19.456-35.584s17.835-18.176 28.416-23.808c4.949-2.56 10.24-4.608 15.872-6.144 5.632-1.7067 10.667-2.4747 15.104-2.304 3.755.1706 6.315 1.1093 7.68 2.816 1.365 1.536 2.048 3.84 2.048 6.912 0 2.9013-.512 5.9733-1.536 9.216-.853 3.072-2.133 5.7173-3.84 7.936-1.536 2.048-3.413 3.072-5.632 3.072-1.365 0-2.56-.1707-3.584-.512-.683-.1707-1.451-.256-2.304-.256-.853-.1707-1.963-.256-3.328-.256-11.093 0-21.248 3.7546-30.464 11.264-9.216 7.3386-15.787 17.5786-19.712 30.72 4.949-4.096 10.069-6.9974 15.36-8.704 5.291-1.8774 10.837-2.816 16.64-2.816 12.971 0 23.211 4.2666 30.72 12.8 7.68 8.5337 11.605 20.3947 11.776 35.5837.171 11.264-2.048 21.675-6.656 31.232-4.437 9.387-10.752 16.896-18.944 22.528s-17.749 8.448-28.672 8.448zm6.912-26.624c8.533 0 15.445-2.645 20.736-7.936 5.291-5.461 7.851-12.458 7.68-20.992-.171-9.045-3.157-16.042-8.96-20.992-5.803-5.12-12.971-7.68-21.504-7.68-5.461 0-10.667 1.024-15.616 3.072-4.779 2.048-9.301 4.95-13.568 8.704-.683 7.851 0 15.275 2.048 22.272 2.219 6.998 5.803 12.715 10.752 17.152 4.949 4.267 11.093 6.4 18.432 6.4z"/></g></svg>