<svg fill="none" height="272" viewBox="0 0 272 272" width="272" xmlns="http://www.w3.org/2000/svg"><g fill="rgb(0,0,0)"><path d="m60.544 221.52c-10.752 0-19.456-1.963-26.112-5.888-6.4853-3.925-11.1787-8.96-14.08-15.104-2.9013-6.315-4.352-12.971-4.352-19.968 0-7.68 1.4507-14.421 4.352-20.224 2.9013-5.973 6.4853-11.008 10.752-15.104 4.4373-4.267 8.8747-7.68 13.312-10.24-4.9493-2.731-9.216-6.741-12.8-12.032-3.584-5.461-5.376-12.117-5.376-19.968 0-3.7547.3413-6.9973 1.024-9.728.8533-2.7307 1.8773-5.12 3.072-7.168-.3413.1707-.8533.3413-1.536.512-.512.1707-1.024.256-1.536.256-1.7067 0-2.9867-1.28-3.84-3.84-.6827-2.7307-1.024-5.12-1.024-7.168 0-3.2427.768-5.8027 2.304-7.68 1.536-2.048 3.072-3.6693 4.608-4.864 3.4133-2.3893 8.7893-5.2053 16.128-8.448 7.5093-3.2427 16.2987-4.864 26.368-4.864 13.6533 0 24.4907 3.584 32.512 10.752 8.192 7.168 12.288 16.64 12.288 28.416 0 9.216-2.304 17.579-6.912 25.088-4.437 7.339-10.1547 13.312-17.152 17.92 6.4853 3.243 12.288 8.107 17.408 14.592 5.12 6.315 7.68 14.507 7.68 24.576 0 9.557-2.56 18.176-7.68 25.856-4.949 7.509-11.6907 13.483-20.224 17.92-8.5333 4.267-18.2613 6.4-29.184 6.4zm15.872-98.304c5.4613-3.072 9.8133-6.4 13.056-9.984 3.2427-3.755 4.864-8.704 4.864-14.848 0-7.3387-2.304-12.9707-6.912-16.896-4.608-4.096-10.6667-6.144-18.176-6.144-3.4133 0-6.656.4267-9.728 1.28-2.9013.6827-5.632 1.6213-8.192 2.816-2.3893 3.7547-3.584 7.936-3.584 12.544 0 7.3387 2.9013 13.483 8.704 18.432 5.9733 4.949 12.6293 9.216 19.968 12.8zm-4.608 73.472c6.8267 0 12.8853-1.536 18.176-4.608 5.2907-3.243 7.936-8.107 7.936-14.592 0-4.779-1.536-9.045-4.608-12.8s-7.2533-7.168-12.544-10.24c-3.2427-2.048-6.8267-3.925-10.752-5.632s-7.936-3.243-12.032-4.608c-5.2907 3.072-9.5573 6.827-12.8 11.264s-4.864 9.557-4.864 15.36 1.536 10.667 4.608 14.592c3.072 3.755 6.9973 6.571 11.776 8.448 4.9493 1.877 9.984 2.816 15.104 2.816z"/><path d="m196.29 221.52c-8.533 0-16.725-1.792-24.576-5.376-7.68-3.755-13.909-9.557-18.688-17.408-4.779-8.021-7.168-18.261-7.168-30.72s2.475-23.637 7.424-33.536c5.12-9.899 12.117-17.749 20.992-23.552 9.045-5.803 19.456-8.704 31.232-8.704 8.704 0 16.896 1.877 24.576 5.632 7.68 3.584 13.909 9.301 18.688 17.152s7.168 18.005 7.168 30.464-2.56 23.723-7.68 33.792c-4.949 9.899-11.861 17.749-20.736 23.552s-19.285 8.704-31.232 8.704zm5.12-25.856c9.557-.171 17.835-3.243 24.832-9.216s10.496-14.336 10.496-25.088c0-7.339-1.792-13.483-5.376-18.432-3.413-4.949-7.936-8.704-13.568-11.264-5.461-2.731-11.349-4.011-17.664-3.84-9.387.171-17.493 3.328-24.32 9.472s-10.325 14.336-10.496 24.576c0 7.509 1.707 13.824 5.12 18.944 3.413 4.949 7.851 8.704 13.312 11.264 5.632 2.389 11.52 3.584 17.664 3.584z"/></g></svg>