<svg fill="none" height="272" viewBox="0 0 272 272" width="272" xmlns="http://www.w3.org/2000/svg"><g fill="rgb(0,0,0)"><path d="m85.544 221.52c-10.752 0-19.456-1.963-26.112-5.888-6.4853-3.925-11.1787-8.96-14.08-15.104-2.9013-6.315-4.352-12.971-4.352-19.968 0-7.68 1.4507-14.421 4.352-20.224 2.9013-5.973 6.4853-11.008 10.752-15.104 4.4373-4.267 8.8747-7.68 13.312-10.24-4.9493-2.731-9.216-6.741-12.8-12.032-3.584-5.461-5.376-12.117-5.376-19.968 0-3.7547.3413-6.9973 1.024-9.728.8533-2.7307 1.8773-5.12 3.072-7.168-.3413.1707-.8533.3413-1.536.512-.512.1707-1.024.256-1.536.256-1.7067 0-2.9867-1.28-3.84-3.84-.6827-2.7307-1.024-5.12-1.024-7.168 0-3.2427.768-5.8027 2.304-7.68 1.536-2.048 3.072-3.6693 4.608-4.864 3.4133-2.3893 8.7893-5.2053 16.128-8.448 7.5093-3.2427 16.2987-4.864 26.368-4.864 13.653 0 24.491 3.584 32.512 10.752 8.192 7.168 12.288 16.64 12.288 28.416 0 9.216-2.304 17.579-6.912 25.088-4.437 7.339-10.155 13.312-17.152 17.92 6.485 3.243 12.288 8.107 17.408 14.592 5.12 6.315 7.68 14.507 7.68 24.576 0 9.557-2.56 18.176-7.68 25.856-4.949 7.509-11.691 13.483-20.224 17.92-8.533 4.267-18.2613 6.4-29.184 6.4zm15.872-98.304c5.461-3.072 9.813-6.4 13.056-9.984 3.243-3.755 4.864-8.704 4.864-14.848 0-7.3387-2.304-12.9707-6.912-16.896-4.608-4.096-10.667-6.144-18.176-6.144-3.4133 0-6.656.4267-9.728 1.28-2.9013.6827-5.632 1.6213-8.192 2.816-2.3893 3.7547-3.584 7.936-3.584 12.544 0 7.3387 2.9013 13.483 8.704 18.432 5.9733 4.949 12.6293 9.216 19.968 12.8zm-4.608 73.472c6.827 0 12.885-1.536 18.176-4.608 5.291-3.243 7.936-8.107 7.936-14.592 0-4.779-1.536-9.045-4.608-12.8s-7.253-7.168-12.544-10.24c-3.243-2.048-6.8267-3.925-10.752-5.632s-7.936-3.243-12.032-4.608c-5.2907 3.072-9.5573 6.827-12.8 11.264s-4.864 9.557-4.864 15.36 1.536 10.667 4.608 14.592c3.072 3.755 6.9973 6.571 11.776 8.448 4.9493 1.877 9.984 2.816 15.104 2.816z"/><path d="m206.954 220.496c-5.291 0-9.387-1.451-12.288-4.352-2.901-3.072-4.437-8.875-4.608-17.408-.171-7.339.683-16.384 2.56-27.136 1.877-10.923 4.437-23.125 7.68-36.608-4.096 3.243-8.619 6.315-13.568 9.216s-9.301 4.352-13.056 4.352c-4.267 0-7.595-1.707-9.984-5.12-2.219-3.584-3.328-7.509-3.328-11.776 0-3.584.683-6.059 2.048-7.424 1.536-1.365 3.157-2.133 4.864-2.304 10.069-.853 18.432-2.987 25.088-6.4s12.971-7.339 18.944-11.776c2.048-1.536 4.011-2.304 5.888-2.304s3.755.597 5.632 1.792c1.877 1.024 2.816 2.219 2.816 3.584 0 .683-.256 1.877-.768 3.584-.341 1.707-.853 3.755-1.536 6.144-1.707 5.632-3.413 13.312-5.12 23.04-1.707 9.557-2.56 20.565-2.56 33.024 0 7.68.768 13.397 2.304 17.152 1.707 3.584 4.779 6.315 9.216 8.192 1.365.512 2.389 1.109 3.072 1.792.683.512 1.024 1.451 1.024 2.816s-.768 3.499-2.304 6.4c-1.365 2.901-3.84 5.547-7.424 7.936-3.413 2.389-8.277 3.584-14.592 3.584z"/></g></svg>