<svg fill="none" height="272" viewBox="0 0 272 272" width="272" xmlns="http://www.w3.org/2000/svg"><g fill="rgb(0,0,0)"><path d="m71.544 221.52c-10.752 0-19.456-1.963-26.112-5.888-6.4853-3.925-11.1787-8.96-14.08-15.104-2.9013-6.315-4.352-12.971-4.352-19.968 0-7.68 1.4507-14.421 4.352-20.224 2.9013-5.973 6.4853-11.008 10.752-15.104 4.4373-4.267 8.8747-7.68 13.312-10.24-4.9493-2.731-9.216-6.741-12.8-12.032-3.584-5.461-5.376-12.117-5.376-19.968 0-3.7547.3413-6.9973 1.024-9.728.8533-2.7307 1.8773-5.12 3.072-7.168-.3413.1707-.8533.3413-1.536.512-.512.1707-1.024.256-1.536.256-1.7067 0-2.9867-1.28-3.84-3.84-.6827-2.7307-1.024-5.12-1.024-7.168 0-3.2427.768-5.8027 2.304-7.68 1.536-2.048 3.072-3.6693 4.608-4.864 3.4133-2.3893 8.7893-5.2053 16.128-8.448 7.5093-3.2427 16.2987-4.864 26.368-4.864 13.6533 0 24.491 3.584 32.512 10.752 8.192 7.168 12.288 16.64 12.288 28.416 0 9.216-2.304 17.579-6.912 25.088-4.437 7.339-10.155 13.312-17.152 17.92 6.485 3.243 12.288 8.107 17.408 14.592 5.12 6.315 7.68 14.507 7.68 24.576 0 9.557-2.56 18.176-7.68 25.856-4.949 7.509-11.691 13.483-20.224 17.92-8.5333 4.267-18.2613 6.4-29.184 6.4zm15.872-98.304c5.4613-3.072 9.8133-6.4 13.056-9.984 3.243-3.755 4.864-8.704 4.864-14.848 0-7.3387-2.304-12.9707-6.912-16.896-4.608-4.096-10.6667-6.144-18.176-6.144-3.4133 0-6.656.4267-9.728 1.28-2.9013.6827-5.632 1.6213-8.192 2.816-2.3893 3.7547-3.584 7.936-3.584 12.544 0 7.3387 2.9013 13.483 8.704 18.432 5.9733 4.949 12.6293 9.216 19.968 12.8zm-4.608 73.472c6.8267 0 12.8853-1.536 18.176-4.608 5.291-3.243 7.936-8.107 7.936-14.592 0-4.779-1.536-9.045-4.608-12.8s-7.2533-7.168-12.544-10.24c-3.2427-2.048-6.8267-3.925-10.752-5.632s-7.936-3.243-12.032-4.608c-5.2907 3.072-9.5573 6.827-12.8 11.264s-4.864 9.557-4.864 15.36 1.536 10.667 4.608 14.592c3.072 3.755 6.9973 6.571 11.776 8.448 4.9493 1.877 9.984 2.816 15.104 2.816z"/><path d="m192.186 220.496c-11.435 0-21.077-.683-28.928-2.048-7.68-1.195-12.715-3.669-15.104-7.424-.683-1.024-1.365-2.56-2.048-4.608s-1.024-3.925-1.024-5.632c0-5.291 2.304-8.789 6.912-10.496 7.68-3.755 15.104-7.68 22.272-11.776s13.739-8.789 19.712-14.08c10.411-9.045 15.616-16.981 15.616-23.808 0-3.413-1.365-6.144-4.096-8.192s-6.656-3.072-11.776-3.072c-3.925 0-8.192.512-12.8 1.536-4.437 1.024-8.363 2.475-11.776 4.352-2.048 1.195-3.925 2.219-5.632 3.072-1.536.683-2.987 1.024-4.352 1.024-2.219 0-3.925-1.109-5.12-3.328s-1.792-4.608-1.792-7.168c0-2.901.768-5.717 2.304-8.448 1.707-2.901 4.693-5.717 8.96-8.448 4.437-2.901 9.643-5.205 15.616-6.912 6.144-1.877 12.629-2.816 19.456-2.816 10.752 0 19.456 2.645 26.112 7.936 6.827 5.12 10.24 12.203 10.24 21.248 0 5.803-1.28 11.435-3.84 16.896-2.56 5.291-5.803 10.155-9.728 14.592-5.803 6.827-12.629 12.885-20.48 18.176s-15.445 9.643-22.784 13.056c2.901.171 6.485.341 10.752.512h10.24c10.069 0 17.237-.853 21.504-2.56 4.267-1.877 7.509-4.011 9.728-6.4 2.048-2.219 3.755-3.328 5.12-3.328 1.877 0 3.755 1.365 5.632 4.096 2.048 2.56 3.072 6.144 3.072 10.752 0 8.875-4.352 15.019-13.056 18.432-8.533 3.243-21.504 4.864-38.912 4.864z"/></g></svg>