<svg fill="none" height="272" viewBox="0 0 272 272" width="272" xmlns="http://www.w3.org/2000/svg"><g fill="rgb(0,0,0)"><path d="m71.544 196.52c-10.752 0-19.456-1.963-26.112-5.888-6.4853-3.925-11.1787-8.96-14.08-15.104-2.9013-6.315-4.352-12.971-4.352-19.968 0-7.68 1.4507-14.421 4.352-20.224 2.9013-5.973 6.4853-11.008 10.752-15.104 4.4373-4.267 8.8747-7.68 13.312-10.24-4.9493-2.731-9.216-6.741-12.8-12.032-3.584-5.4613-5.376-12.1173-5.376-19.968 0-3.7547.3413-6.9973 1.024-9.728.8533-2.7307 1.8773-5.12 3.072-7.168-.3413.1707-.8533.3413-1.536.512-.512.1707-1.024.256-1.536.256-1.7067 0-2.9867-1.28-3.84-3.84-.6827-2.7307-1.024-5.12-1.024-7.168 0-3.2427.768-5.8027 2.304-7.68 1.536-2.048 3.072-3.6693 4.608-4.864 3.4133-2.3893 8.7893-5.2053 16.128-8.448 7.5093-3.2427 16.2987-4.864 26.368-4.864 13.6533 0 24.491 3.584 32.512 10.752 8.192 7.168 12.288 16.64 12.288 28.416 0 9.216-2.304 17.5787-6.912 25.088-4.437 7.3387-10.155 13.312-17.152 17.92 6.485 3.243 12.288 8.107 17.408 14.592 5.12 6.315 7.68 14.507 7.68 24.576 0 9.557-2.56 18.176-7.68 25.856-4.949 7.509-11.691 13.483-20.224 17.92-8.5333 4.267-18.2613 6.4-29.184 6.4zm15.872-98.304c5.4613-3.072 9.8133-6.4 13.056-9.984 3.243-3.7547 4.864-8.704 4.864-14.848 0-7.3387-2.304-12.9707-6.912-16.896-4.608-4.096-10.6667-6.144-18.176-6.144-3.4133 0-6.656.4267-9.728 1.28-2.9013.6827-5.632 1.6213-8.192 2.816-2.3893 3.7547-3.584 7.936-3.584 12.544 0 7.3387 2.9013 13.4827 8.704 18.432 5.9733 4.9493 12.6293 9.216 19.968 12.8zm-4.608 73.472c6.8267 0 12.8853-1.536 18.176-4.608 5.291-3.243 7.936-8.107 7.936-14.592 0-4.779-1.536-9.045-4.608-12.8s-7.2533-7.168-12.544-10.24c-3.2427-2.048-6.8267-3.925-10.752-5.632s-7.936-3.243-12.032-4.608c-5.2907 3.072-9.5573 6.827-12.8 11.264s-4.864 9.557-4.864 15.36 1.536 10.667 4.608 14.592c3.072 3.755 6.9973 6.571 11.776 8.448 4.9493 1.877 9.984 2.816 15.104 2.816z"/><path d="m185.786 247.464c-6.485 0-12.544-1.024-18.176-3.072s-10.155-5.205-13.568-9.472c-3.243-4.096-4.864-9.301-4.864-15.616 0-6.485 1.451-11.093 4.352-13.824 3.072-2.56 5.717-3.84 7.936-3.84 2.048 0 4.437 1.792 7.168 5.376 3.413 4.267 7.595 7.424 12.544 9.472 5.12 2.219 10.411 3.328 15.872 3.328 9.045 0 15.872-2.304 20.48-6.912 4.779-4.437 7.253-10.069 7.424-16.896.171-7.509-2.304-14.165-7.424-19.968-4.949-5.973-11.264-10.667-18.944-14.08s-15.445-5.12-23.296-5.12c-2.901 0-5.205.171-6.912.512s-3.243.512-4.608.512c-2.219 0-4.181-.597-5.888-1.792s-2.56-2.731-2.56-4.608c0-1.195.256-2.645.768-4.352.512-2.731 1.195-8.789 2.048-18.176 1.024-9.557 1.536-23.808 1.536-42.752 0-2.3893.427-4.352 1.28-5.888 1.024-1.536 2.645-2.304 4.864-2.304.512 0 1.28.0853 2.304.256 1.024 0 1.963.0853 2.816.256 3.072.3413 7.253.6827 12.544 1.024s10.923.512 16.896.512c8.021 0 14.165-.3413 18.432-1.024 4.437-.8533 7.595-1.792 9.472-2.816 2.048-1.1947 3.499-2.304 4.352-3.328 1.877-2.048 3.328-3.072 4.352-3.072 1.877 0 3.669 1.28 5.376 3.84 1.877 2.56 2.816 6.4853 2.816 11.776 0 8.8747-3.243 14.592-9.728 17.152-6.315 2.389-15.275 3.584-26.88 3.584-5.291 0-10.581-.171-15.872-.512-5.12-.341-9.216-.683-12.288-1.024l-3.84 26.112c8.533-.171 17.067.853 25.6 3.072 8.533 2.048 15.957 5.291 22.272 9.728 7.509 5.291 12.971 11.691 16.384 19.2s5.12 15.275 5.12 23.296c0 10.923-2.645 21.077-7.936 30.464s-12.459 16.896-21.504 22.528-19.285 8.448-30.72 8.448z"/></g></svg>