<svg fill="none" height="272" viewBox="0 0 272 272" width="272" xmlns="http://www.w3.org/2000/svg"><g fill="rgb(0,0,0)"><path d="m66.544 221.52c-10.752 0-19.456-1.963-26.112-5.888-6.4853-3.925-11.1787-8.96-14.08-15.104-2.9013-6.315-4.352-12.971-4.352-19.968 0-7.68 1.4507-14.421 4.352-20.224 2.9013-5.973 6.4853-11.008 10.752-15.104 4.4373-4.267 8.8747-7.68 13.312-10.24-4.9493-2.731-9.216-6.741-12.8-12.032-3.584-5.461-5.376-12.117-5.376-19.968 0-3.7547.3413-6.9973 1.024-9.728.8533-2.7307 1.8773-5.12 3.072-7.168-.3413.1707-.8533.3413-1.536.512-.512.1707-1.024.256-1.536.256-1.7067 0-2.9867-1.28-3.84-3.84-.6827-2.7307-1.024-5.12-1.024-7.168 0-3.2427.768-5.8027 2.304-7.68 1.536-2.048 3.072-3.6693 4.608-4.864 3.4133-2.3893 8.7893-5.2053 16.128-8.448 7.5093-3.2427 16.2987-4.864 26.368-4.864 13.6533 0 24.491 3.584 32.512 10.752 8.192 7.168 12.288 16.64 12.288 28.416 0 9.216-2.304 17.579-6.912 25.088-4.437 7.339-10.155 13.312-17.152 17.92 6.485 3.243 12.288 8.107 17.408 14.592 5.12 6.315 7.68 14.507 7.68 24.576 0 9.557-2.56 18.176-7.68 25.856-4.949 7.509-11.691 13.483-20.224 17.92-8.5333 4.267-18.2613 6.4-29.184 6.4zm15.872-98.304c5.4613-3.072 9.8133-6.4 13.056-9.984 3.2427-3.755 4.864-8.704 4.864-14.848 0-7.3387-2.304-12.9707-6.912-16.896-4.608-4.096-10.6667-6.144-18.176-6.144-3.4133 0-6.656.4267-9.728 1.28-2.9013.6827-5.632 1.6213-8.192 2.816-2.3893 3.7547-3.584 7.936-3.584 12.544 0 7.3387 2.9013 13.483 8.704 18.432 5.9733 4.949 12.6293 9.216 19.968 12.8zm-4.608 73.472c6.8267 0 12.8853-1.536 18.176-4.608 5.291-3.243 7.936-8.107 7.936-14.592 0-4.779-1.536-9.045-4.608-12.8s-7.2533-7.168-12.544-10.24c-3.2427-2.048-6.8267-3.925-10.752-5.632s-7.936-3.243-12.032-4.608c-5.2907 3.072-9.5573 6.827-12.8 11.264s-4.864 9.557-4.864 15.36 1.536 10.667 4.608 14.592c3.072 3.755 6.9973 6.571 11.776 8.448 4.9493 1.877 9.984 2.816 15.104 2.816z"/><path d="m195.378 221.52c-10.24 0-18.688-2.475-25.344-7.424-6.485-5.12-11.264-12.117-14.336-20.992s-4.779-19.029-5.12-30.464c-.341-15.531 1.792-29.952 6.4-43.264 4.608-13.483 11.093-25.344 19.456-35.584s17.835-18.176 28.416-23.808c4.949-2.56 10.24-4.608 15.872-6.144 5.632-1.7067 10.667-2.4747 15.104-2.304 3.755.1707 6.315 1.1093 7.68 2.816 1.365 1.536 2.048 3.84 2.048 6.912 0 2.9013-.512 5.9733-1.536 9.216-.853 3.072-2.133 5.7173-3.84 7.936-1.536 2.048-3.413 3.072-5.632 3.072-1.365 0-2.56-.1707-3.584-.512-.683-.1707-1.451-.256-2.304-.256-.853-.1707-1.963-.256-3.328-.256-11.093 0-21.248 3.7547-30.464 11.264-9.216 7.3387-15.787 17.579-19.712 30.72 4.949-4.096 10.069-6.997 15.36-8.704 5.291-1.877 10.837-2.816 16.64-2.816 12.971 0 23.211 4.267 30.72 12.8 7.68 8.533 11.605 20.395 11.776 35.584.171 11.264-2.048 21.675-6.656 31.232-4.437 9.387-10.752 16.896-18.944 22.528s-17.749 8.448-28.672 8.448zm6.912-26.624c8.533 0 15.445-2.645 20.736-7.936 5.291-5.461 7.851-12.459 7.68-20.992-.171-9.045-3.157-16.043-8.96-20.992-5.803-5.12-12.971-7.68-21.504-7.68-5.461 0-10.667 1.024-15.616 3.072-4.779 2.048-9.301 4.949-13.568 8.704-.683 7.851 0 15.275 2.048 22.272 2.219 6.997 5.803 12.715 10.752 17.152 4.949 4.267 11.093 6.4 18.432 6.4z"/></g></svg>