<svg fill="none" height="272" viewBox="0 0 272 272" width="272" xmlns="http://www.w3.org/2000/svg"><g fill="rgb(0,0,0)"><path d="m67.544 196.52c-10.752 0-19.456-1.963-26.112-5.888-6.4853-3.925-11.1787-8.96-14.08-15.104-2.9013-6.315-4.352-12.971-4.352-19.968 0-7.68 1.4507-14.421 4.352-20.224 2.9013-5.973 6.4853-11.008 10.752-15.104 4.4373-4.267 8.8747-7.68 13.312-10.24-4.9493-2.731-9.216-6.741-12.8-12.032-3.584-5.4613-5.376-12.1173-5.376-19.968 0-3.7547.3413-6.9973 1.024-9.728.8533-2.7307 1.8773-5.12 3.072-7.168-.3413.1707-.8533.3413-1.536.512-.512.1707-1.024.256-1.536.256-1.7067 0-2.9867-1.28-3.84-3.84-.6827-2.7307-1.024-5.12-1.024-7.168 0-3.2427.768-5.8027 2.304-7.68 1.536-2.048 3.072-3.6693 4.608-4.864 3.4133-2.3893 8.7893-5.2053 16.128-8.448 7.5093-3.2427 16.2987-4.864 26.368-4.864 13.6533 0 24.491 3.584 32.512 10.752 8.192 7.168 12.288 16.64 12.288 28.416 0 9.216-2.304 17.5787-6.912 25.088-4.437 7.3387-10.155 13.312-17.152 17.92 6.485 3.243 12.288 8.107 17.408 14.592 5.12 6.315 7.68 14.507 7.68 24.576 0 9.557-2.56 18.176-7.68 25.856-4.949 7.509-11.691 13.483-20.224 17.92-8.5333 4.267-18.2613 6.4-29.184 6.4zm15.872-98.304c5.4613-3.072 9.8133-6.4 13.056-9.984 3.2427-3.7547 4.864-8.704 4.864-14.848 0-7.3387-2.304-12.9707-6.912-16.896-4.608-4.096-10.6667-6.144-18.176-6.144-3.4133 0-6.656.4267-9.728 1.28-2.9013.6827-5.632 1.6213-8.192 2.816-2.3893 3.7547-3.584 7.936-3.584 12.544 0 7.3387 2.9013 13.4827 8.704 18.432 5.9733 4.9493 12.6293 9.216 19.968 12.8zm-4.608 73.472c6.8267 0 12.8853-1.536 18.176-4.608 5.291-3.243 7.936-8.107 7.936-14.592 0-4.779-1.536-9.045-4.608-12.8s-7.2533-7.168-12.544-10.24c-3.2427-2.048-6.8267-3.925-10.752-5.632s-7.936-3.243-12.032-4.608c-5.2907 3.072-9.5573 6.827-12.8 11.264s-4.864 9.557-4.864 15.36 1.536 10.667 4.608 14.592c3.072 3.755 6.9973 6.571 11.776 8.448 4.9493 1.877 9.984 2.816 15.104 2.816z"/><path d="m174.106 247.464c-4.949 0-8.704-1.365-11.264-4.096-2.56-2.56-3.84-6.827-3.84-12.8 0-7.339 1.024-14.848 3.072-22.528 2.048-7.509 4.779-15.189 8.192-23.04 5.973-13.312 13.397-27.136 22.272-41.472 8.875-14.507 18.091-27.733 27.648-39.68-5.803.853-12.203 1.621-19.2 2.304-6.827.512-13.653.939-20.48 1.28-6.656.171-12.544.256-17.664.256-3.755 0-6.912-.085-9.472-.256-2.56-.341-4.779-.939-6.656-1.792-3.243-1.536-4.864-5.12-4.864-10.752 0-5.12.853-9.6427 2.56-13.568 1.877-3.9253 4.181-5.888 6.912-5.888.512 0 1.195.0853 2.048.256s2.219.512 4.096 1.024c6.827 1.7067 13.568 2.816 20.224 3.328s13.909.768 21.76.768c7.339 0 13.909-.256 19.712-.768s10.496-.9387 14.08-1.28c3.584-.512 5.888-.768 6.912-.768 2.389 0 4.352 1.28 5.888 3.84 1.536 2.3893 2.304 4.5227 2.304 6.4 0 2.048-.683 4.096-2.048 6.144-10.411 14.848-20.053 29.867-28.928 45.056-8.875 15.019-15.701 28.416-20.48 40.192-2.048 5.291-3.669 10.24-4.864 14.848-1.024 4.608-1.536 8.875-1.536 12.8 0 3.755.512 6.741 1.536 8.96s2.133 4.267 3.328 6.144c.853 1.536 1.621 2.901 2.304 4.096.683 1.365 1.024 2.731 1.024 4.096 0 2.219-1.024 4.608-3.072 7.168-2.048 2.731-4.949 5.035-8.704 6.912-3.584 1.877-7.851 2.816-12.8 2.816z"/></g></svg>