<svg fill="none" height="272" viewBox="0 0 272 272" width="272" xmlns="http://www.w3.org/2000/svg"><g fill="rgb(0,0,0)"><path d="m67.544 196.52c-10.752 0-19.456-1.963-26.112-5.888-6.4853-3.925-11.1787-8.96-14.08-15.104-2.9013-6.315-4.352-12.971-4.352-19.968 0-7.68 1.4507-14.421 4.352-20.224 2.9013-5.973 6.4853-11.008 10.752-15.104 4.4373-4.267 8.8747-7.68 13.312-10.24-4.9493-2.731-9.216-6.741-12.8-12.032-3.584-5.4613-5.376-12.1173-5.376-19.968 0-3.7547.3413-6.9973 1.024-9.728.8533-2.7307 1.8773-5.12 3.072-7.168-.3413.1707-.8533.3413-1.536.512-.512.1707-1.024.256-1.536.256-1.7067 0-2.9867-1.28-3.84-3.84-.6827-2.7307-1.024-5.12-1.024-7.168 0-3.2427.768-5.8027 2.304-7.68 1.536-2.048 3.072-3.6693 4.608-4.864 3.4133-2.3893 8.7893-5.2053 16.128-8.448 7.5093-3.2427 16.2987-4.864 26.368-4.864 13.6533 0 24.491 3.584 32.512 10.752 8.192 7.168 12.288 16.64 12.288 28.416 0 9.216-2.304 17.5787-6.912 25.088-4.437 7.3387-10.155 13.312-17.152 17.92 6.485 3.243 12.288 8.107 17.408 14.592 5.12 6.315 7.68 14.507 7.68 24.576 0 9.557-2.56 18.176-7.68 25.856-4.949 7.509-11.691 13.483-20.224 17.92-8.5333 4.267-18.2613 6.4-29.184 6.4zm15.872-98.304c5.4613-3.072 9.8133-6.4 13.056-9.984 3.2427-3.7547 4.864-8.704 4.864-14.848 0-7.3387-2.304-12.9707-6.912-16.896-4.608-4.096-10.6667-6.144-18.176-6.144-3.4133 0-6.656.4267-9.728 1.28-2.9013.6827-5.632 1.6213-8.192 2.816-2.3893 3.7547-3.584 7.936-3.584 12.544 0 7.3387 2.9013 13.4827 8.704 18.432 5.9733 4.9493 12.6293 9.216 19.968 12.8zm-4.608 73.472c6.8267 0 12.8853-1.536 18.176-4.608 5.291-3.243 7.936-8.107 7.936-14.592 0-4.779-1.536-9.045-4.608-12.8s-7.2533-7.168-12.544-10.24c-3.2427-2.048-6.8267-3.925-10.752-5.632s-7.936-3.243-12.032-4.608c-5.2907 3.072-9.5573 6.827-12.8 11.264s-4.864 9.557-4.864 15.36 1.536 10.667 4.608 14.592c3.072 3.755 6.9973 6.571 11.776 8.448 4.9493 1.877 9.984 2.816 15.104 2.816z"/><path d="m164.378 247.208c-3.755-.171-6.4-1.024-7.936-2.56-1.365-1.536-2.048-3.755-2.048-6.656 0-3.072.427-6.229 1.28-9.472 1.024-3.243 2.304-5.973 3.84-8.192 1.707-2.048 3.584-3.072 5.632-3.072h1.536c.683.171 1.365.341 2.048.512.853.171 1.621.256 2.304.256.853.171 1.963.256 3.328.256 11.435 0 21.931-3.755 31.488-11.264s16.299-18.005 20.224-31.488c-4.949 4.267-10.069 7.424-15.36 9.472-5.12 1.877-10.667 2.816-16.64 2.816-12.971 0-23.381-4.267-31.232-12.8s-11.947-20.139-12.288-34.816c-.171-11.776 1.877-22.357 6.144-31.744 4.437-9.5573 10.667-17.152 18.688-22.784s17.408-8.448 28.16-8.448c10.411 0 18.944 2.6453 25.6 7.936 6.656 5.12 11.691 12.1173 15.104 20.992 3.413 8.875 5.205 19.029 5.376 30.464.341 15.36-1.877 29.781-6.656 43.264-4.608 13.312-11.093 25.003-19.456 35.072-8.192 10.24-17.579 18.261-28.16 24.064-4.949 2.56-10.24 4.608-15.872 6.144s-10.667 2.219-15.104 2.048zm35.584-85.76c5.461 0 10.581-1.024 15.36-3.072s9.301-4.949 13.568-8.704c1.024-7.851.427-15.189-1.792-22.016-2.048-6.997-5.547-12.629-10.496-16.896-4.949-4.437-11.264-6.656-18.944-6.656-8.363 0-15.189 2.816-20.48 8.448s-7.851 12.629-7.68 20.992c.171 8.704 3.157 15.531 8.96 20.48 5.973 4.949 13.141 7.424 21.504 7.424z"/></g></svg>