<svg fill="none" height="272" viewBox="0 0 272 272" width="272" xmlns="http://www.w3.org/2000/svg"><g fill="rgb(0,0,0)"><path d="m28.8338 220.984c-3.7546-.171-6.4-1.024-7.936-2.56-1.3653-1.536-2.048-3.755-2.048-6.656 0-3.072.4267-6.229 1.28-9.472 1.024-3.243 2.304-5.973 3.84-8.192 1.7067-2.048 3.584-3.072 5.632-3.072h1.536c.6827.171 1.3654.341 2.048.512.8534.171 1.6214.256 2.304.256.8534.171 1.9627.256 3.328.256 11.4347 0 21.9307-3.755 31.4881-11.264 9.5573-7.509 16.2986-18.005 20.2239-31.488-4.9493 4.267-10.0693 7.424-15.36 9.472-5.1199 1.877-10.6666 2.816-16.6399 2.816-12.9707 0-23.3814-4.267-31.2321-12.8-7.8506-8.533-11.9466-20.139-12.288-34.816-.1706-11.776 1.8774-22.3573 6.144-31.744 4.4374-9.5573 10.6667-17.152 18.688-22.784 8.0214-5.632 17.408-8.448 28.1601-8.448 10.4106 0 18.9439 2.6453 25.5999 7.936 6.6562 5.12 11.6912 12.1173 15.1042 20.992s5.205 19.0293 5.376 30.464c.341 15.36-1.877 29.781-6.656 43.264-4.608 13.312-11.0935 25.003-19.4562 35.072-8.192 10.24-17.5786 18.261-28.16 24.064-4.9493 2.56-10.24 4.608-15.872 6.144s-10.6666 2.219-15.104 2.048zm35.5841-85.76c5.4613 0 10.5813-1.024 15.3599-3.072 4.7787-2.048 9.3014-4.949 13.568-8.704 1.024-7.851.4267-15.189-1.792-22.016-2.0479-6.9973-5.5466-12.6293-10.496-16.896-4.9493-4.4373-11.264-6.656-18.944-6.656-8.3626 0-15.1893 2.816-20.48 8.448-5.2906 5.632-7.8506 12.6293-7.68 20.992.1707 8.704 3.1574 15.531 8.96 20.48 5.9734 4.949 13.1414 7.424 21.5041 7.424z"/><path d="m196.496 170.296c-8.533 0-16.725-1.792-24.576-5.376-7.68-3.755-13.909-9.557-18.688-17.408-4.779-8.021-7.168-18.261-7.168-30.72s2.475-23.6373 7.424-33.536c5.12-9.8987 12.117-17.7493 20.992-23.552 9.045-5.8027 19.456-8.704 31.232-8.704 8.704 0 16.896 1.8773 24.576 5.632 7.68 3.584 13.909 9.3013 18.688 17.152s7.168 18.0053 7.168 30.464c0 12.459-2.56 23.723-7.68 33.792-4.949 9.899-11.861 17.749-20.736 23.552s-19.285 8.704-31.232 8.704zm5.12-25.856c9.557-.171 17.835-3.243 24.832-9.216s10.496-14.336 10.496-25.088c0-7.339-1.792-13.4827-5.376-18.432-3.413-4.9493-7.936-8.704-13.568-11.264-5.461-2.7307-11.349-4.0107-17.664-3.84-9.387.1707-17.494 3.328-24.32 9.472-6.827 6.144-10.325 14.336-10.496 24.576 0 7.509 1.707 13.824 5.12 18.944 3.413 4.949 7.851 8.704 13.312 11.264 5.632 2.389 11.52 3.584 17.664 3.584z"/></g></svg>