<svg fill="none" height="272" viewBox="0 0 272 272" width="272" xmlns="http://www.w3.org/2000/svg"><g fill="rgb(0,0,0)"><path d="m42.8338 219.984c-3.7546-.171-6.4-1.024-7.936-2.56-1.3653-1.536-2.048-3.755-2.048-6.656 0-3.072.4267-6.229 1.28-9.472 1.024-3.243 2.304-5.973 3.84-8.192 1.7067-2.048 3.584-3.072 5.632-3.072h1.536c.6827.171 1.3654.341 2.048.512.8534.171 1.6214.256 2.304.256.8534.171 1.9627.256 3.328.256 11.4347 0 21.9307-3.755 31.4881-11.264 9.5573-7.509 16.2991-18.005 20.2241-31.488-4.9495 4.267-10.0695 7.424-15.3602 9.472-5.1199 1.877-10.6666 2.816-16.6399 2.816-12.9707 0-23.3814-4.267-31.2321-12.8-7.8506-8.533-11.9466-20.139-12.288-34.816-.1706-11.776 1.8774-22.3573 6.144-31.744 4.4374-9.5573 10.6667-17.152 18.688-22.784 8.0214-5.632 17.408-8.448 28.1601-8.448 10.4106 0 18.9441 2.6453 25.6001 7.936 6.656 5.12 11.691 12.1173 15.104 20.992s5.205 19.0293 5.376 30.464c.341 15.36-1.877 29.781-6.656 43.264-4.608 13.312-11.093 25.003-19.456 35.072-8.1922 10.24-17.5788 18.261-28.1602 24.064-4.9493 2.56-10.24 4.608-15.872 6.144s-10.6666 2.219-15.104 2.048zm35.5841-85.76c5.4613 0 10.5813-1.024 15.3599-3.072 4.7787-2.048 9.3012-4.949 13.5682-8.704 1.024-7.851.427-15.189-1.792-22.016-2.048-6.9973-5.547-12.6293-10.4962-16.896-4.9493-4.4373-11.264-6.656-18.944-6.656-8.3626 0-15.1893 2.816-20.48 8.448-5.2906 5.632-7.8506 12.6293-7.68 20.992.1707 8.704 3.1574 15.531 8.96 20.48 5.9734 4.949 13.1414 7.424 21.5041 7.424z"/><path d="m180.288 221.008c-10.923 0-20.224-2.475-27.904-7.424-7.68-4.779-11.52-11.691-11.52-20.736 0-6.485 1.536-11.093 4.608-13.824 3.072-2.56 5.803-3.84 8.192-3.84 1.365 0 2.56.427 3.584 1.28 1.195 1.024 2.475 2.475 3.84 4.352 2.219 2.731 5.888 5.547 11.008 8.448 5.12 3.072 11.861 4.608 20.224 4.608 9.045 0 16.384-1.963 22.016-5.888 5.803-3.925 8.704-9.472 8.704-16.64 0-5.632-1.621-10.069-4.864-13.312-3.072-3.243-6.571-5.717-10.496-7.424-5.461-2.048-11.605-3.499-18.432-4.352-1.365-.171-2.56-.512-3.584-1.024-1.024-.683-1.963-2.048-2.816-4.096-1.536-3.413-2.304-6.827-2.304-10.24 0-1.877.512-3.413 1.536-4.608s2.389-2.219 4.096-3.072c3.413-1.536 7.253-3.499 11.52-5.888 4.437-2.56 8.192-5.717 11.264-9.472 3.243-3.755 4.864-8.3627 4.864-13.824 0-6.3147-2.219-10.6667-6.656-13.056-4.267-2.56-9.131-3.84-14.592-3.84s-10.411.9387-14.848 2.816c-4.437 1.7067-7.851 3.2427-10.24 4.608-3.072 2.048-5.376 3.072-6.912 3.072-2.389 0-4.096-1.28-5.12-3.84s-1.536-4.9493-1.536-7.168c0-2.9013.768-5.7173 2.304-8.448 1.707-2.9013 4.523-5.632 8.448-8.192 5.461-3.9253 11.179-6.5707 17.152-7.936 6.144-1.3653 11.947-2.048 17.408-2.048 12.629 0 22.443 3.1573 29.44 9.472 6.997 6.144 10.496 14.2507 10.496 24.32 0 8.5333-2.389 16.469-7.168 23.808s-10.496 13.056-17.152 17.152c8.875 2.389 15.701 6.827 20.48 13.312 4.949 6.485 7.424 14.763 7.424 24.832 0 11.093-2.816 20.992-8.448 29.696-5.461 8.875-12.885 15.787-22.272 20.736-9.387 5.12-19.968 7.68-31.744 7.68z"/></g></svg>