<svg fill="none" height="272" viewBox="0 0 272 272" width="272" xmlns="http://www.w3.org/2000/svg"><g fill="rgb(0,0,0)"><path d="m33.8338 220.752c-3.7546-.171-6.4-1.024-7.936-2.56-1.3653-1.536-2.048-3.755-2.048-6.656 0-3.072.4267-6.229 1.28-9.472 1.024-3.243 2.304-5.973 3.84-8.192 1.7067-2.048 3.584-3.072 5.632-3.072h1.536c.6827.171 1.3654.341 2.048.512.8534.171 1.6214.256 2.304.256.8534.171 1.9627.256 3.328.256 11.4347 0 21.9307-3.755 31.4881-11.264 9.5573-7.509 16.2986-18.005 20.2239-31.488-4.9493 4.267-10.0693 7.424-15.36 9.472-5.1199 1.877-10.6666 2.816-16.6399 2.816-12.9707 0-23.3814-4.267-31.2321-12.8-7.8506-8.533-11.9466-20.139-12.288-34.816-.1706-11.776 1.8774-22.3573 6.144-31.744 4.4374-9.5573 10.6667-17.152 18.688-22.784 8.0214-5.632 17.408-8.448 28.1601-8.448 10.4106 0 18.9439 2.6453 25.5999 7.936 6.6562 5.12 11.6912 12.1173 15.1042 20.992s5.205 19.0293 5.376 30.464c.341 15.36-1.877 29.781-6.656 43.264-4.608 13.312-11.093 25.003-19.4562 35.072-8.192 10.24-17.5786 18.261-28.16 24.064-4.9493 2.56-10.24 4.608-15.872 6.144s-10.6666 2.219-15.104 2.048zm35.5841-85.76c5.4613 0 10.5813-1.024 15.3599-3.072 4.7787-2.048 9.3014-4.949 13.568-8.704 1.024-7.851.4267-15.189-1.792-22.016-2.0479-6.9973-5.5466-12.6293-10.496-16.896-4.9493-4.4373-11.264-6.656-18.944-6.656-8.3626 0-15.1893 2.816-20.48 8.448-5.2906 5.632-7.8506 12.6293-7.68 20.992.1707 8.704 3.1574 15.531 8.96 20.48 5.9734 4.949 13.1414 7.424 21.5041 7.424z"/><path d="m215.32 221.264c-4.779 0-8.533-1.365-11.264-4.096s-4.181-7.765-4.352-15.104c0-3.925.256-8.96.768-15.104.512-5.973 1.28-11.776 2.304-17.408h-45.824c-6.144 0-10.837-1.707-14.08-5.12-3.072-3.584-4.608-7.595-4.608-12.032 0-2.731.512-5.547 1.536-8.448s2.389-5.973 4.096-9.216c4.949-9.899 11.179-19.541 18.688-28.928 7.68-9.5573 15.616-18.3467 23.808-26.368s15.616-14.592 22.272-19.712c4.267-3.072 7.936-5.4613 11.008-7.168s5.973-2.56 8.704-2.56c3.584 0 5.888 1.3653 6.912 4.096 1.195 2.7307 1.792 6.4853 1.792 11.264 0 7.3387-.683 16.128-2.048 26.368-1.195 10.24-2.56 20.395-4.096 30.464-.342 2.901-.683 5.888-1.024 8.96s-.683 6.315-1.024 9.728c2.219-.171 4.608-.256 7.168-.256 2.731-.171 5.717-.256 8.96-.256 1.877 0 3.584.427 5.12 1.28 1.707.683 2.56 2.389 2.56 5.12s-.768 5.888-2.304 9.472c-1.365 3.413-3.243 6.485-5.632 9.216-2.219 2.56-4.608 3.84-7.168 3.84h-13.056v5.632c0 5.12.597 9.899 1.792 14.336s3.84 7.595 7.936 9.472c2.389 1.024 3.584 2.56 3.584 4.608 0 1.536-.683 3.669-2.048 6.4-1.365 2.901-3.669 5.547-6.912 7.936s-7.765 3.584-13.568 3.584zm-43.776-78.08 35.072-1.792c.512-3.072 1.109-6.997 1.792-11.776.683-4.949 1.365-9.899 2.048-14.848.683-5.12 1.194-9.728 1.536-13.824.512-4.2667.768-7.3387.768-9.216 0-2.7307-.768-4.096-2.304-4.096-1.365 0-3.328.8533-5.888 2.56-6.144 4.4373-12.885 10.155-20.224 17.152s-13.824 15.531-19.456 25.6c-1.024 1.536-1.536 3.072-1.536 4.608 0 1.877.768 3.328 2.304 4.352s3.499 1.451 5.888 1.28z"/></g></svg>