<svg fill="none" height="272" viewBox="0 0 272 272" width="272" xmlns="http://www.w3.org/2000/svg"><g fill="rgb(0,0,0)"><path d="m35.8338 246.695c-3.7546-.17-6.4-1.024-7.936-2.56-1.3653-1.536-2.048-3.754-2.048-6.656 0-3.072.4267-6.229 1.28-9.472 1.024-3.242 2.304-5.973 3.84-8.192 1.7067-2.048 3.584-3.072 5.632-3.072h1.536c.6827.171 1.3654.342 2.048.512.8534.171 1.6214.256 2.304.256.8534.171 1.9627.256 3.328.256 11.4347 0 21.9307-3.754 31.4881-11.264 9.5573-7.509 16.2986-18.005 20.2239-31.488-4.9493 4.267-10.0693 7.424-15.36 9.472-5.1199 1.878-10.6666 2.816-16.6399 2.816-12.9707 0-23.3814-4.266-31.2321-12.8-7.8506-8.533-11.9466-20.138-12.288-34.816-.1706-11.776 1.8774-22.357 6.144-31.744 4.4374-9.5571 10.6667-17.1517 18.688-22.7837 8.0214-5.632 17.408-8.448 28.1601-8.448 10.4106 0 18.9439 2.6453 25.6001 7.936 6.656 5.12 11.691 12.1173 15.104 20.9917 3.413 8.875 5.205 19.03 5.376 30.464.341 15.36-1.877 29.782-6.656 43.264-4.608 13.312-11.093 25.003-19.4562 35.072-8.192 10.24-17.5786 18.262-28.16 24.064-4.9493 2.56-10.24 4.608-15.872 6.144s-10.6666 2.219-15.104 2.048zm35.5841-85.76c5.4613 0 10.5813-1.024 15.3599-3.072 4.7787-2.048 9.3014-4.949 13.5682-8.704 1.024-7.85.427-15.189-1.7922-22.016-2.0479-6.997-5.5466-12.629-10.496-16.896-4.9493-4.437-11.264-6.656-18.944-6.656-8.3626 0-15.1893 2.816-20.48 8.448-5.2906 5.632-7.8506 12.63-7.68 20.992.1707 8.704 3.1574 15.531 8.96 20.48 5.9734 4.95 13.1414 7.424 21.5041 7.424z"/><path d="m196.584 196.007c-10.24 0-18.688-2.474-25.344-7.424-6.485-5.12-11.264-12.117-14.336-20.992-3.072-8.874-4.779-19.029-5.12-30.464-.341-15.53 1.792-29.952 6.4-43.2637 4.608-13.4827 11.093-25.344 19.456-35.584s17.835-18.176 28.416-23.808c4.949-2.56 10.24-4.608 15.872-6.144 5.632-1.7067 10.667-2.4747 15.104-2.304 3.755.1706 6.315 1.1093 7.68 2.816 1.365 1.536 2.048 3.84 2.048 6.912 0 2.9013-.512 5.9733-1.536 9.216-.853 3.072-2.133 5.7173-3.84 7.936-1.536 2.048-3.413 3.072-5.632 3.072-1.365 0-2.56-.1707-3.584-.512-.683-.1707-1.451-.256-2.304-.256-.853-.1707-1.963-.256-3.328-.256-11.093 0-21.248 3.7546-30.464 11.264-9.216 7.3386-15.787 17.5786-19.712 30.72 4.949-4.096 10.069-6.9974 15.36-8.704 5.291-1.8774 10.837-2.816 16.64-2.816 12.971 0 23.211 4.2666 30.72 12.8 7.68 8.5337 11.605 20.3947 11.776 35.5837.171 11.264-2.048 21.675-6.656 31.232-4.437 9.387-10.752 16.896-18.944 22.528s-17.749 8.448-28.672 8.448zm6.912-26.624c8.533 0 15.445-2.645 20.736-7.936 5.291-5.461 7.851-12.458 7.68-20.992-.171-9.045-3.157-16.042-8.96-20.992-5.803-5.12-12.971-7.68-21.504-7.68-5.461 0-10.667 1.024-15.616 3.072-4.779 2.048-9.301 4.95-13.568 8.704-.683 7.851 0 15.275 2.048 22.272 2.219 6.998 5.803 12.715 10.752 17.152 4.949 4.267 11.093 6.4 18.432 6.4z"/></g></svg>