<svg fill="none" height="272" viewBox="0 0 272 272" width="272" xmlns="http://www.w3.org/2000/svg"><g fill="rgb(0,0,0)"><path d="m36.8338 221.776c-3.7546-.171-6.4-1.024-7.936-2.56-1.3653-1.536-2.048-3.755-2.048-6.656 0-3.072.4267-6.229 1.28-9.472 1.024-3.243 2.304-5.973 3.84-8.192 1.7067-2.048 3.584-3.072 5.632-3.072h1.536c.6827.171 1.3654.341 2.048.512.8534.171 1.6214.256 2.304.256.8534.171 1.9627.256 3.328.256 11.4347 0 21.9307-3.755 31.4881-11.264 9.5573-7.509 16.2986-18.005 20.2239-31.488-4.9493 4.267-10.0693 7.424-15.36 9.472-5.1199 1.877-10.6666 2.816-16.6399 2.816-12.9707 0-23.3814-4.267-31.2321-12.8-7.8506-8.533-11.9466-20.139-12.288-34.816-.1706-11.776 1.8774-22.3573 6.144-31.744 4.4374-9.5573 10.6667-17.152 18.688-22.784 8.0214-5.632 17.408-8.448 28.1601-8.448 10.4106 0 18.9439 2.6453 25.6001 7.936 6.656 5.12 11.691 12.1173 15.104 20.992s5.205 19.0293 5.376 30.464c.341 15.36-1.877 29.781-6.656 43.264-4.608 13.312-11.093 25.003-19.4562 35.072-8.192 10.24-17.5786 18.261-28.16 24.064-4.9493 2.56-10.24 4.608-15.872 6.144s-10.6666 2.219-15.104 2.048zm35.5841-85.76c5.4613 0 10.5813-1.024 15.3599-3.072 4.7787-2.048 9.3014-4.949 13.5682-8.704 1.024-7.851.427-15.189-1.7922-22.016-2.0479-6.9973-5.5466-12.6293-10.496-16.896-4.9493-4.4373-11.264-6.656-18.944-6.656-8.3626 0-15.1893 2.816-20.48 8.448-5.2906 5.632-7.8506 12.6293-7.68 20.992.1707 8.704 3.1574 15.531 8.96 20.48 5.9734 4.949 13.1414 7.424 21.5041 7.424z"/><path d="m175.312 222.032c-4.949 0-8.704-1.365-11.264-4.096-2.56-2.56-3.84-6.827-3.84-12.8 0-7.339 1.024-14.848 3.072-22.528 2.048-7.509 4.779-15.189 8.192-23.04 5.973-13.312 13.397-27.136 22.272-41.472 8.875-14.507 18.091-27.7333 27.648-39.68-5.803.8533-12.203 1.6213-19.2 2.304-6.827.512-13.654.9387-20.48 1.28-6.656.1707-12.544.256-17.664.256-3.755 0-6.912-.0853-9.472-.256-2.56-.3413-4.779-.9387-6.656-1.792-3.243-1.536-4.864-5.12-4.864-10.752 0-5.12.853-9.6427 2.56-13.568 1.877-3.9253 4.181-5.888 6.912-5.888.512 0 1.195.0853 2.048.256s2.219.512 4.096 1.024c6.827 1.7067 13.568 2.816 20.224 3.328s13.909.768 21.76.768c7.339 0 13.909-.256 19.712-.768s10.496-.9387 14.08-1.28c3.584-.512 5.888-.768 6.912-.768 2.389 0 4.352 1.28 5.888 3.84 1.536 2.3893 2.304 4.5227 2.304 6.4 0 2.048-.683 4.096-2.048 6.144-10.411 14.848-20.053 29.8667-28.928 45.056-8.875 15.019-15.701 28.416-20.48 40.192-2.048 5.291-3.669 10.24-4.864 14.848-1.024 4.608-1.536 8.875-1.536 12.8 0 3.755.512 6.741 1.536 8.96s2.133 4.267 3.328 6.144c.853 1.536 1.621 2.901 2.304 4.096.683 1.365 1.024 2.731 1.024 4.096 0 2.219-1.024 4.608-3.072 7.168-2.048 2.731-4.949 5.035-8.704 6.912-3.584 1.877-7.851 2.816-12.8 2.816z"/></g></svg>