<svg fill="none" height="272" viewBox="0 0 272 272" width="272" xmlns="http://www.w3.org/2000/svg"><g fill="rgb(0,0,0)"><path d="m35.8338 247.208c-3.7546-.171-6.4-1.024-7.936-2.56-1.3653-1.536-2.048-3.755-2.048-6.656 0-3.072.4267-6.229 1.28-9.472 1.024-3.243 2.304-5.973 3.84-8.192 1.7067-2.048 3.584-3.072 5.632-3.072h1.536c.6827.171 1.3654.341 2.048.512.8534.171 1.6214.256 2.304.256.8534.171 1.9627.256 3.328.256 11.4347 0 21.9307-3.755 31.4881-11.264 9.5573-7.509 16.2986-18.005 20.2239-31.488-4.9493 4.267-10.0693 7.424-15.36 9.472-5.1199 1.877-10.6666 2.816-16.6399 2.816-12.9707 0-23.3814-4.267-31.2321-12.8-7.8506-8.533-11.9466-20.139-12.288-34.816-.1706-11.776 1.8774-22.357 6.144-31.744 4.4374-9.5573 10.6667-17.152 18.688-22.784 8.0214-5.632 17.408-8.448 28.1601-8.448 10.4106 0 18.9439 2.6453 25.6001 7.936 6.656 5.12 11.691 12.1173 15.104 20.992 3.413 8.875 5.205 19.029 5.376 30.464.341 15.36-1.877 29.781-6.656 43.264-4.608 13.312-11.093 25.003-19.4562 35.072-8.192 10.24-17.5786 18.261-28.16 24.064-4.9493 2.56-10.24 4.608-15.872 6.144s-10.6666 2.219-15.104 2.048zm35.5841-85.76c5.4613 0 10.5813-1.024 15.3599-3.072 4.7787-2.048 9.3014-4.949 13.5682-8.704 1.024-7.851.427-15.189-1.7922-22.016-2.0479-6.997-5.5466-12.629-10.496-16.896-4.9493-4.437-11.264-6.656-18.944-6.656-8.3626 0-15.1893 2.816-20.48 8.448-5.2906 5.632-7.8506 12.629-7.68 20.992.1707 8.704 3.1574 15.531 8.96 20.48 5.9734 4.949 13.1414 7.424 21.5041 7.424z"/><path d="m193 196.52c-10.752 0-19.456-1.963-26.112-5.888-6.485-3.925-11.179-8.96-14.08-15.104-2.901-6.315-4.352-12.971-4.352-19.968 0-7.68 1.451-14.421 4.352-20.224 2.901-5.973 6.485-11.008 10.752-15.104 4.437-4.267 8.875-7.68 13.312-10.24-4.949-2.731-9.216-6.741-12.8-12.032-3.584-5.4613-5.376-12.1173-5.376-19.968 0-3.7547.341-6.9973 1.024-9.728.853-2.7307 1.877-5.12 3.072-7.168-.341.1707-.853.3413-1.536.512-.512.1707-1.024.256-1.536.256-1.707 0-2.987-1.28-3.84-3.84-.683-2.7307-1.024-5.12-1.024-7.168 0-3.2427.768-5.8027 2.304-7.68 1.536-2.048 3.072-3.6693 4.608-4.864 3.413-2.3893 8.789-5.2053 16.128-8.448 7.509-3.2427 16.299-4.864 26.368-4.864 13.653 0 24.491 3.584 32.512 10.752 8.192 7.168 12.288 16.64 12.288 28.416 0 9.216-2.304 17.5787-6.912 25.088-4.437 7.3387-10.155 13.312-17.152 17.92 6.485 3.243 12.288 8.107 17.408 14.592 5.12 6.315 7.68 14.507 7.68 24.576 0 9.557-2.56 18.176-7.68 25.856-4.949 7.509-11.691 13.483-20.224 17.92-8.533 4.267-18.261 6.4-29.184 6.4zm15.872-98.304c5.461-3.072 9.813-6.4 13.056-9.984 3.243-3.7547 4.864-8.704 4.864-14.848 0-7.3387-2.304-12.9707-6.912-16.896-4.608-4.096-10.667-6.144-18.176-6.144-3.413 0-6.656.4267-9.728 1.28-2.901.6827-5.632 1.6213-8.192 2.816-2.389 3.7547-3.584 7.936-3.584 12.544 0 7.3387 2.901 13.4827 8.704 18.432 5.973 4.9493 12.629 9.216 19.968 12.8zm-4.608 73.472c6.826 0 12.885-1.536 18.176-4.608 5.291-3.243 7.936-8.107 7.936-14.592 0-4.779-1.536-9.045-4.608-12.8s-7.253-7.168-12.544-10.24c-3.243-2.048-6.827-3.925-10.752-5.632s-7.936-3.243-12.032-4.608c-5.291 3.072-9.557 6.827-12.8 11.264s-4.864 9.557-4.864 15.36 1.536 10.667 4.608 14.592c3.072 3.755 6.997 6.571 11.776 8.448 4.949 1.877 9.984 2.816 15.104 2.816z"/></g></svg>